<svg width="70" height="53" viewBox="0 0 70 53" fill="none" xmlns="http://www.w3.org/2000/svg">
<g clip-path="url(#clip0)">
<path d="M33.6406 30.0728C33.5883 28.8823 33.5675 27.6892 33.4749 26.5018C33.3776 25.26 33.662 24.2249 34.6257 23.3416C34.9873 23.0104 35.1246 22.3907 35.2596 21.8754C35.3558 21.51 35.3362 21.0884 35.2665 20.7103C34.5327 16.7203 37.0294 14.2516 39.6364 12.0069C40.5432 11.2258 42.0806 11.1117 43.3613 10.8463C44.0243 10.7088 44.702 11.1599 44.58 11.899C44.512 12.3123 43.8859 12.9339 43.4933 12.9473C40.1433 13.0618 38.9672 15.7511 37.5334 17.9975C37.1002 18.6765 37.4664 19.8621 37.4664 21.0918C39.0586 19.8541 40.4091 18.8039 41.7596 17.754C43.1495 16.6737 44.5035 15.5429 45.9421 14.5316C46.8555 13.8894 47.1346 13.1479 46.812 12.1227C46.7184 11.8255 46.6384 11.5239 46.5608 11.222C46.3879 10.5525 46.4398 9.92502 47.1886 9.67533C47.9264 9.42923 48.3571 9.86667 48.6339 10.5154C49.6742 12.9513 49.2091 14.7359 47.1097 16.3747C43.5946 19.1192 40.0797 21.8648 36.572 24.6189C35.4603 25.4916 35.3771 26.4717 36.2549 27.8763C37.0801 29.1964 37.8694 29.5031 39.1879 28.8205C44.0891 26.2827 48.8812 23.5913 53.0382 19.8762C54.448 18.6161 56.2051 17.7404 57.8134 16.7043C58.4248 16.3103 59.031 16.3364 59.4459 16.9829C59.8728 17.6476 59.5826 18.1748 58.9714 18.5551C58.078 19.1109 57.1747 19.6507 56.3608 20.4162C56.701 20.266 57.056 20.1426 57.3787 19.9615C60.5145 18.1988 63.6488 16.4326 66.7744 14.6523C67.4741 14.2538 68.2075 13.9317 68.7153 14.7864C69.2173 15.6311 68.6318 16.1309 67.9092 16.5362C64.6007 18.3916 61.3654 20.3904 57.9757 22.0834C56.3295 22.9058 54.387 23.1238 52.6094 23.7091C51.8171 23.9701 51.0857 24.4353 50.3536 24.8545C46.7622 26.9099 43.2119 29.0407 39.5693 31.0011C38.7559 31.4389 37.6285 31.2972 36.6086 31.427C36.6086 31.8806 36.5989 32.4945 36.6112 33.1078C36.6294 33.9989 36.7997 34.9143 35.8048 35.4966C35.6396 35.5935 35.6371 36.0551 35.6456 36.3457C35.7295 39.2322 35.8348 42.1182 35.9232 45.0049C35.9342 45.362 35.8829 45.7209 35.8607 46.0792L35.412 46.1156C35.3022 45.1501 35.1923 44.1844 35.0558 42.9873H26.428C26.4929 41.9017 26.5428 41.0594 26.5966 40.1604H35.0518C34.9813 38.7359 34.9819 37.3376 34.8042 35.9618C34.7449 35.5006 33.943 35.076 33.9738 34.6714C34.0981 33.0237 32.9668 32.5213 31.9083 31.6576C31.005 30.9205 30.2959 29.5321 30.1547 28.3538C29.5613 23.4027 29.1617 18.4259 28.8247 13.4494C28.7671 12.6008 29.1545 11.5497 29.688 10.8634C31.8662 8.06168 34.1528 5.34165 36.4535 2.63715C38.4166 0.329533 41.0771 0.472172 43.7305 0.781834C45.7909 1.02213 47.8448 1.3216 49.8954 1.63334C54.201 2.2876 58.3955 1.31031 62.6217 0.802983C63.6318 0.681889 64.6356 0.509861 65.6438 0.36945C66.3899 0.265538 67.1272 0.45905 67.095 1.27619C67.0779 1.70288 66.437 2.40751 66.0046 2.46836C61.8982 3.04599 57.7843 3.80698 53.656 3.91892C50.246 4.01145 46.7999 3.39554 43.3965 2.91062C40.8713 2.55069 38.7615 2.93314 37.119 5.03843C35.2704 7.40744 33.3385 9.71177 31.4941 12.0838C31.1847 12.4818 30.9567 13.0943 30.9938 13.5846C31.3484 18.2477 31.7292 22.9096 32.2029 27.5618C32.2952 28.4662 32.8225 29.3266 33.1487 30.2073C33.3127 30.1624 33.4767 30.1177 33.6406 30.0728Z" fill="#09B7B2"/>
<path d="M37.0793 43.0548C37.0298 42.1478 36.9819 41.2683 36.929 40.2953C38.7375 40.1804 40.4468 40.0809 42.1545 39.9617C48.5417 39.516 54.7156 37.9411 60.9158 36.4826C62.9634 36.0009 65.0652 35.7332 67.1526 35.4409C68.4146 35.2644 69.1499 35.8038 69.2053 36.7741C69.259 37.7109 68.7063 38.0822 67.4275 38.3342C62.5264 39.2999 57.6646 40.4941 52.7371 41.2905C47.8093 42.0869 42.821 42.5109 37.8584 43.0908C37.6323 43.1171 37.3977 43.0715 37.0793 43.0548Z" fill="#09B7B2"/>
<path d="M33.2747 52.7157C23.9986 52.5556 16.0832 51.6329 8.25894 49.9209C7.48391 49.7512 6.7023 49.5253 6.90713 48.5378C7.1282 47.4737 7.96695 47.6182 8.78421 47.7964C16.9558 49.5772 25.2162 50.5796 33.5898 50.4779C35.7788 50.4513 37.9663 50.251 40.1531 50.1141C40.9344 50.0652 41.6366 50.164 41.6614 51.1227C41.6828 51.9613 41.0862 52.2201 40.3303 52.2659C37.5581 52.4334 34.7871 52.6183 33.2747 52.7157Z" fill="#09B7B2"/>
<path d="M6.6676 36.5284C9.35742 37.1761 11.8905 37.7859 14.5812 38.4339C14.8779 36.9612 15.7487 35.3552 15.3059 34.2935C14.244 31.7472 15.6212 29.5958 15.7715 27.2762C15.8417 26.1904 16.6265 25.6092 17.4773 25.8179C18.4766 26.0629 18.712 26.7907 18.5408 27.7149C18.2218 29.4383 17.9169 31.1649 17.5642 32.8815C17.4987 33.1995 17.2998 33.6564 17.0544 33.7426C16.0734 34.087 16.0443 34.9014 15.8868 35.6984C15.3734 38.2971 14.8431 40.8925 14.304 43.486C14.2355 43.816 14.0757 44.1275 13.9583 44.4476L13.5287 44.3511C13.6671 43.3602 13.8057 42.3696 13.957 41.2879C11.3352 40.6386 8.70239 39.9869 5.95801 39.3073L6.6676 36.5284Z" fill="#09B7B2"/>
<path d="M24.1802 45.6662V42.7341C21.5002 42.3791 18.8518 42.0286 16.0681 41.6599C16.2512 40.6634 16.4098 39.8023 16.5837 38.8553C19.1808 39.1774 21.6921 39.4887 24.3806 39.822C24.4908 38.286 25.1606 36.5371 24.5845 35.4343C23.3019 32.9785 24.3719 30.6401 24.2231 28.2719C24.165 27.3546 24.7214 26.774 25.6602 26.7965C26.6031 26.8191 27.0601 27.4118 27.0117 28.3462C26.9191 30.1375 26.8278 31.929 26.6858 33.7165C26.657 34.0757 26.4965 34.6082 26.2382 34.7326C25.2755 35.1955 25.3936 36.019 25.3368 36.8244C25.1578 39.3518 24.9635 41.8781 24.7664 44.4042C24.734 44.8181 24.656 45.2284 24.599 45.6405L24.1802 45.6662Z" fill="#09B7B2"/>
<path d="M3.3989 41.8439L4.07309 38.7506C3.10532 38.3897 2.15476 38.0573 1.22177 37.6819C0.169405 37.2582 -0.227568 36.5393 0.126436 35.7097C0.566378 34.679 1.37692 34.6715 2.28232 34.9942C2.68711 35.1384 3.08896 35.2898 3.49375 35.4339C3.89585 35.5772 4.29978 35.7158 4.8812 35.9187C5.24069 34.5413 6.18637 33.0071 5.81711 31.9146C4.93442 29.305 6.4487 27.2498 6.77158 24.9483C6.9271 23.838 7.73825 23.3868 8.61826 23.7103C9.57456 24.0616 9.71591 24.7986 9.46054 25.7143C9.09433 27.0268 8.77365 28.3517 8.44357 29.6741C8.20957 30.6108 8.14267 31.6305 6.91037 31.927C6.7247 31.9717 6.59433 32.4231 6.51706 32.7075C5.78171 35.4115 5.07004 38.1222 4.3331 40.8257C4.22348 41.228 4.01694 41.6038 3.85495 41.9918L3.3989 41.8439Z" fill="#09B7B2"/>
</g>
<defs>
<clipPath id="clip0">
<rect width="69.2089" height="52.3718" fill="white" transform="translate(0 0.34375)"/>
</clipPath>
</defs>
</svg>
