<svg width="16" height="20" viewBox="0 0 16 20" fill="none" xmlns="http://www.w3.org/2000/svg">
<path d="M7.33334 12.5C6.23067 12.5 5.33334 11.3783 5.33334 10C5.33334 8.62167 6.23067 7.5 7.33334 7.5H10.6667V2.29167C10.6667 1.0275 9.84468 0 8.83334 0H1.83334C0.822001 0 0 1.0275 0 2.29167V17.7083C0 18.9725 0.822001 20 1.83334 20H8.83334C9.84468 20 10.6667 18.9725 10.6667 17.7083V12.5H7.33334Z" fill="#3F3D56"/>
<path d="M12.4112 14.1033C12.1625 13.9742 11.9999 13.67 11.9999 13.3333V10.8333H7.33317C6.96517 10.8333 6.6665 10.46 6.6665 10C6.6665 9.54002 6.96517 9.16668 7.33317 9.16668H11.9999V6.66668C11.9999 6.33002 12.1625 6.02585 12.4112 5.89668C12.6605 5.76752 12.9472 5.83918 13.1379 6.07752L15.8045 9.41085C16.0652 9.73668 16.0652 10.2633 15.8045 10.5892L13.1379 13.9225C12.9472 14.1608 12.6605 14.2325 12.4112 14.1033Z" fill="#3F3D56"/>
</svg>
