<svg width="16" height="16" viewBox="0 0 16 16" fill="none" xmlns="http://www.w3.org/2000/svg">
<path d="M7.716 0.0389168C8.05812 -0.0442626 8.43553 0.0071574 8.73583 0.181078C9.02635 0.346933 9.30113 0.536481 9.59763 0.693261C10.8064 1.3718 12.164 1.82803 13.5678 1.98985C13.8382 2.01909 14.1092 2.04278 14.3802 2.07253C14.706 2.10882 15.0535 2.10529 15.3462 2.26308C15.773 2.46876 16.0125 2.92197 15.9995 3.35954C15.9713 5.06043 15.7475 6.7699 15.1991 8.39769C14.6745 9.97205 13.8415 11.4637 12.7065 12.7346C11.6992 13.8749 10.4654 14.8353 9.11269 15.6046C8.86778 15.7326 8.63645 15.8959 8.35896 15.959C8.05866 16.0275 7.73284 16.0124 7.44774 15.8969C5.74315 15.1705 4.17648 14.132 2.97366 12.7891C1.68992 11.3745 0.845493 9.64538 0.419208 7.84518C0.0705784 6.45835 -0.0152215 5.02766 0.00432783 3.60757C-0.0211949 3.17907 0.0591746 2.69814 0.43387 2.40726C0.771097 2.12395 1.24463 2.10529 1.67362 2.07152C3.46619 1.91877 5.24301 1.42776 6.76406 0.520853C7.07685 0.353486 7.35814 0.121088 7.716 0.0389168ZM6.78198 4.31283C6.78198 5.1784 6.78578 6.04447 6.77926 6.91054C5.86153 6.90399 4.9438 6.90702 4.02606 6.90903C4.03584 7.64756 4.01846 8.3861 4.03367 9.12463C4.96117 9.11808 5.88922 9.12261 6.81673 9.12211C6.81782 9.97659 6.81619 10.8311 6.81727 11.6855C7.60848 11.6861 8.40023 11.6866 9.19143 11.6855C9.19578 10.8195 9.19035 9.9539 9.19415 9.08833C10.1211 9.08632 11.0486 9.08985 11.9761 9.08682C11.9778 8.35535 11.9794 7.62437 11.975 6.8929C11.0432 6.89441 10.1119 6.89492 9.18003 6.8929C9.17949 6.03287 9.18057 5.17285 9.18003 4.31283C8.38068 4.31232 7.58133 4.31232 6.78198 4.31283Z" fill="#3F3D56"/>
</svg>
