<svg width="16" height="20" viewBox="0 0 16 20" fill="none" xmlns="http://www.w3.org/2000/svg">
<path d="M12.973 11.4286C13.267 11.4286 13.5524 11.4667 13.8378 11.5143V8.57143C13.8378 7.52381 13.0681 6.66667 12.1081 6.66667H11.2432V4.7619C11.2432 2.13333 9.30595 0 6.91892 0C4.53189 0 2.59459 2.13333 2.59459 4.7619V6.66667H1.72973C0.778378 6.66667 0 7.51429 0 8.57143V18.0952C0 19.1524 0.76973 20 1.72973 20H8.48432C8.04324 19.1619 7.78378 18.1905 7.78378 17.1429C7.78378 13.9905 10.1103 11.4286 12.973 11.4286ZM4.32432 4.7619C4.32432 3.18095 5.48324 1.90476 6.91892 1.90476C8.35459 1.90476 9.51351 3.18095 9.51351 4.7619V6.66667H4.32432V4.7619ZM6.91892 15.2381C5.96757 15.2381 5.18919 14.3905 5.18919 13.3333C5.18919 12.2762 5.96757 11.4286 6.91892 11.4286C7.87027 11.4286 8.64865 12.2762 8.64865 13.3333C8.64865 14.3905 7.87892 15.2381 6.91892 15.2381ZM16 15.4762L11.8919 20L9.51351 17.1429L10.5168 16.0381L11.8919 17.5524L14.9968 14.1333L16 15.4762Z" fill="#3F3D56"/>
</svg>
