<svg width="16" height="20" viewBox="0 0 16 20" fill="none" xmlns="http://www.w3.org/2000/svg">
<path d="M10.9091 12.7273H5.81818V10.9091H10.9091V12.7273ZM13.0909 9.09091H5.81818V7.27273H13.0909V9.09091ZM13.0909 5.45455H5.81818V3.63636H13.0909V5.45455ZM14.5455 0H4.36364C3.55636 0 2.90909 0.809091 2.90909 1.81818V14.5455C2.90909 15.5545 3.56364 16.3636 4.36364 16.3636H14.5455C15.3527 16.3636 16 15.5545 16 14.5455V1.81818C16 0.809091 15.3455 0 14.5455 0ZM1.45455 3.63636V18.1818H13.0909V20H1.45455C1.06878 20 0.698807 19.8084 0.426027 19.4675C0.153246 19.1265 0 18.664 0 18.1818V3.63636H1.45455Z" fill="#3F3D56"/>
</svg>
