<svg width="12" height="12" viewBox="0 0 12 12" fill="none" xmlns="http://www.w3.org/2000/svg">
<path fill-rule="evenodd" clip-rule="evenodd" d="M9.4839 0.261963C9.24585 0.261963 9.0079 0.352856 8.82623 0.534534L7.70349 1.65728L10.0289 3.98262L11.1516 2.85985C11.5149 2.4965 11.5149 1.90799 11.1516 1.54463L10.1415 0.534534C9.95989 0.352856 9.72183 0.261963 9.4839 0.261963ZM6.77336 2.5874L1.31234 8.04657C1.31234 8.04657 1.73921 8.00849 1.89913 8.16831C2.05895 8.32825 1.92629 9.36733 2.12258 9.5635C2.31878 9.75979 3.35244 9.62174 3.4996 9.76889C3.64861 9.91779 3.63951 10.372 3.63951 10.372L9.09869 4.91274L6.77336 2.5874ZM0.727276 9.5635L0.287636 10.8061C0.271294 10.8553 0.262207 10.9061 0.262207 10.9588C0.262207 11.215 0.471149 11.4239 0.727276 11.4239C0.779968 11.4239 0.830826 11.4148 0.879951 11.3966C0.881794 11.3966 0.883514 11.3966 0.883514 11.3948L0.89629 11.393C0.898136 11.3912 0.898136 11.3912 0.898136 11.3894L2.12258 10.9588L0.727276 9.5635Z" fill="#FEFEFE"/>
</svg>
