<svg width="19" height="19" viewBox="0 0 19 19" fill="none" xmlns="http://www.w3.org/2000/svg">
<path d="M9.5 18.999C14.7467 18.999 19 14.7457 19 9.49902C19 4.25232 14.7467 -0.000976562 9.5 -0.000976562C4.25329 -0.000976562 0 4.25232 0 9.49902C0 14.7457 4.25329 18.999 9.5 18.999Z" fill="white"/>
<g clip-path="url(#clip0)">
<path fill-rule="evenodd" clip-rule="evenodd" d="M13.4844 4.26172C13.2463 4.26172 13.0084 4.35261 12.8267 4.53429L11.704 5.65703L14.0294 7.98238L15.1521 6.85961C15.5154 6.49625 15.5154 5.90774 15.1521 5.54438L14.142 4.53429C13.9604 4.35261 13.7223 4.26172 13.4844 4.26172ZM10.7738 6.58715L5.31283 12.0463C5.31283 12.0463 5.7397 12.0082 5.89962 12.1681C6.05944 12.328 5.92678 13.3671 6.12307 13.5633C6.31926 13.7595 7.35292 13.6215 7.50008 13.7687C7.64909 13.9175 7.64 14.3718 7.64 14.3718L13.0992 8.9125L10.7738 6.58715ZM4.72776 13.5633L4.28812 14.8059C4.27178 14.855 4.2627 14.9059 4.2627 14.9586C4.2627 15.2147 4.47164 15.4236 4.72776 15.4236C4.78046 15.4236 4.83131 15.4146 4.88044 15.3964C4.88228 15.3964 4.884 15.3964 4.884 15.3945L4.89678 15.3927C4.89862 15.391 4.89862 15.391 4.89862 15.3891L6.12307 14.9586L4.72776 13.5633Z" fill="#0ABAB5"/>
</g>
<defs>
<clipPath id="clip0">
<rect width="11.1619" height="11.1619" fill="white" transform="translate(4.2627 4.26172)"/>
</clipPath>
</defs>
</svg>
