<svg width="22" height="22" viewBox="0 0 22 22" fill="none" xmlns="http://www.w3.org/2000/svg">
<path d="M21.7964 10.8982C21.7964 4.88029 16.9161 0 10.8982 0C4.88029 0 0 4.88029 0 10.8982C0 16.9161 4.88029 21.7964 10.8982 21.7964C16.9161 21.7964 21.7964 16.9161 21.7964 10.8982Z" fill="#0ABAB5"/>
<path d="M17.6094 10.4369L11.407 6.62858C11.2355 6.52302 11.0159 6.51876 10.8402 6.61537C10.6645 6.71194 10.5547 6.90087 10.5547 7.10302V14.6891C10.5547 14.891 10.6645 15.0757 10.8402 15.1765C10.9238 15.2249 11.0204 15.2469 11.1125 15.2469C11.2136 15.2469 11.3147 15.2205 11.4025 15.1635L17.6049 11.3859C17.7719 11.2848 17.8729 11.1046 17.8729 10.9114C17.8772 10.718 17.7763 10.538 17.6094 10.4369Z" fill="white"/>
<path d="M14.742 9.73401H4.44997C4.1557 9.73401 3.92285 9.97113 3.92285 10.2611V11.5305C3.92285 11.825 4.16019 12.0576 4.44997 12.0576H14.742C15.0362 12.0576 15.2691 11.8205 15.2691 11.5305V10.2611C15.2736 9.97113 15.0362 9.73401 14.742 9.73401Z" fill="white"/>
</svg>
