<svg width="726" height="251" viewBox="0 0 726 251" fill="none" xmlns="http://www.w3.org/2000/svg">
<path d="M16.3992 186.872C14.8658 185.288 13.6749 183.405 12.9006 181.341C12.1263 179.277 11.7852 177.076 11.8984 174.874V27.2954C11.8026 25.211 12.1247 23.1285 12.8458 21.1705C13.5668 19.2124 14.6723 17.4183 16.097 15.8939C19.3585 13.1538 23.5419 11.7603 27.795 11.9974H89.888C108.786 11.9974 123.483 16.7975 134.283 26.0954C144.781 35.6927 150.179 48.8986 150.179 66.0009C150.179 83.1033 144.781 96.597 134.283 106.191C123.785 115.786 108.786 120.589 89.888 120.589H44.8945V174.874C45.0089 177.075 44.6691 179.276 43.8963 181.34C43.1235 183.404 41.9341 185.287 40.4023 186.872C38.8175 188.406 36.9336 189.598 34.868 190.372C32.8024 191.146 30.5995 191.487 28.3965 191.373C26.1949 191.486 23.9936 191.145 21.9296 190.37C19.8656 189.596 17.983 188.405 16.3992 186.872ZM85.6894 95.6849C108.188 95.6849 119.284 86.0876 119.284 66.2888C119.284 46.49 108.185 36.8927 85.6894 36.8927H44.5953V95.3856H85.6894V95.6849Z" fill="black"/>
<path d="M264.163 76.1884C272.562 84.5876 276.762 97.4856 276.762 114.883V176.374C276.881 178.344 276.596 180.318 275.926 182.175C275.255 184.031 274.213 185.732 272.863 187.171C271.379 188.547 269.627 189.603 267.718 190.274C265.809 190.945 263.782 191.216 261.763 191.071C259.795 191.163 257.829 190.866 255.976 190.197C254.123 189.528 252.421 188.5 250.966 187.171C249.598 185.793 248.521 184.153 247.799 182.349C247.078 180.546 246.727 178.615 246.767 176.673V170.973C243.964 177.349 239.246 182.696 233.268 186.271C226.794 189.981 219.429 191.848 211.97 191.669C204.182 191.69 196.49 189.947 189.472 186.57C183.086 183.398 177.616 178.65 173.578 172.774C169.722 166.903 167.734 160.001 167.877 152.978C167.475 145.271 169.931 137.687 174.775 131.68C179.276 126.581 186.772 122.681 197.273 120.278C211.533 117.803 225.997 116.698 240.468 116.978H246.767V110.992C246.767 102.894 244.969 96.5944 241.369 92.9944C237.769 89.095 232.071 87.2936 224.266 87.2936C219.192 87.2748 214.141 87.9822 209.268 89.3943C204.169 90.8936 198.17 92.9934 191.27 95.6937C188.305 97.3828 185.05 98.5023 181.673 98.9944C180.263 98.9913 178.869 98.6964 177.578 98.1284C176.287 97.5603 175.128 96.7314 174.174 95.6937C172.166 93.2457 171.102 90.1593 171.175 86.9943C171.043 84.3327 171.78 81.7004 173.276 79.4949C175.201 76.989 177.66 74.944 180.476 73.5091C187.082 70.0221 194.152 67.4968 201.472 66.0097C209.344 64.2347 217.386 63.3229 225.455 63.2904C243.167 63.2904 255.766 67.7912 264.163 76.1884ZM238.667 160.489C241.349 157.535 243.419 154.079 244.757 150.321C246.096 146.563 246.676 142.576 246.465 138.592V133.182H241.967C233.244 133.064 224.524 133.565 215.872 134.681C210.914 135.012 206.187 136.901 202.367 140.08C201.022 141.4 199.978 142.994 199.305 144.754C198.632 146.514 198.346 148.398 198.467 150.279C198.356 152.767 198.811 155.248 199.798 157.534C200.786 159.82 202.28 161.852 204.168 163.476C208.073 166.865 213.097 168.683 218.266 168.575C222.062 168.917 225.885 168.364 229.428 166.959C232.972 165.555 236.136 163.339 238.667 160.489Z" fill="black"/>
<path d="M310.658 36.887C308.978 35.3225 307.653 33.4157 306.773 31.2953C305.894 29.1749 305.479 26.8904 305.559 24.5961C305.479 22.345 305.894 20.1039 306.775 18.0309C307.657 15.9579 308.982 14.1036 310.658 12.5988C314.421 9.43488 319.249 7.82524 324.157 8.09801C329.052 7.9268 333.844 9.5246 337.657 12.5988C339.309 14.1223 340.619 15.98 341.498 18.0485C342.377 20.117 342.806 22.349 342.756 24.5961C342.777 26.8827 342.335 29.1499 341.459 31.2619C340.582 33.3739 339.288 35.2871 337.654 36.887C333.929 40.1463 329.101 41.8629 324.155 41.687C319.232 41.7211 314.454 40.0218 310.658 36.887Z" fill="#F1D427"/>
<path d="M313.052 187.473C311.529 186.07 310.336 184.347 309.558 182.428C308.78 180.509 308.436 178.442 308.551 176.374V78.8906C308.406 76.8199 308.736 74.7434 309.516 72.8197C310.296 70.896 311.506 69.1761 313.052 67.7912C316.178 65.2271 320.108 63.8465 324.151 63.8918C328.308 63.7044 332.382 65.0976 335.553 67.7912C337.099 69.1761 338.309 70.896 339.089 72.8197C339.869 74.7434 340.199 76.8199 340.054 78.8906V176.374C340.199 178.445 339.869 180.521 339.089 182.445C338.309 184.369 337.099 186.089 335.553 187.473C332.382 190.167 328.308 191.56 324.151 191.373C320.108 191.418 316.178 190.038 313.052 187.473Z" fill="black"/>
<path d="M477.433 75.8892C484.633 84.2893 488.23 96.8851 488.23 113.985V176.075C488.327 178.114 488.004 180.151 487.282 182.06C486.559 183.969 485.453 185.71 484.031 187.174C482.488 188.552 480.683 189.608 478.725 190.277C476.767 190.947 474.694 191.218 472.63 191.074C468.38 191.307 464.201 189.913 460.943 187.174C459.465 185.751 458.321 184.016 457.595 182.097C456.869 180.177 456.579 178.12 456.745 176.075V115.783C456.745 106.186 454.946 99.2852 451.346 94.7873C447.746 90.2893 442.048 88.1886 434.244 88.1886C430.189 88.0338 426.147 88.7277 422.377 90.2257C418.606 91.7238 415.19 93.993 412.347 96.888C406.777 103.142 403.872 111.325 404.249 119.691V175.775C404.345 177.814 404.023 179.851 403.3 181.761C402.578 183.67 401.472 185.41 400.05 186.875C396.818 189.658 392.62 191.059 388.364 190.774C386.299 190.918 384.227 190.648 382.269 189.978C380.31 189.308 378.506 188.253 376.962 186.875C375.54 185.41 374.434 183.67 373.712 181.761C372.99 179.851 372.667 177.814 372.764 175.775V78.5771C372.695 76.6314 373.033 74.6929 373.756 72.8852C374.478 71.0776 375.571 69.4407 376.962 68.0791C380.195 65.2955 384.392 63.8949 388.649 64.1798C390.617 64.0873 392.583 64.3842 394.436 65.0533C396.289 65.7224 397.991 66.7507 399.446 68.0791C400.81 69.3985 401.887 70.9854 402.61 72.7403C403.332 74.4952 403.684 76.3804 403.645 78.2778V85.1757C407.676 78.4334 413.488 72.933 420.442 69.2791C427.898 65.5976 436.125 63.7469 444.44 63.8805C459.133 63.2933 470.23 67.4919 477.433 75.8892Z" fill="black"/>
<path d="M371.547 244.164H0.5L16.3966 222.267H384.448L371.547 244.164Z" fill="#0ABAB5"/>
<path d="M624.418 0C644.411 0 663.955 5.92861 680.579 17.0361C697.202 28.1436 710.159 43.9311 717.81 62.4022C725.461 80.8733 727.462 101.198 723.562 120.807C719.662 140.416 710.034 158.428 695.897 172.565C681.76 186.702 663.748 196.33 644.139 200.23C624.53 204.131 604.205 202.129 585.734 194.478C567.263 186.827 551.475 173.87 540.368 157.247C529.26 140.623 523.332 121.079 523.332 101.086C523.332 74.2765 533.982 48.5648 552.939 29.6075C571.897 10.6501 597.608 0 624.418 0V0Z" fill="#0ABAB5"/>
<path d="M655.014 190.173C645.519 193.153 635.558 194.373 625.624 193.773C603.6 192.733 582.751 183.538 567.131 167.977C551.564 152.824 541.968 132.576 540.095 110.933C538.222 89.2898 544.197 67.6949 556.929 50.093C586.625 8.99881 635.218 6.30519 663.115 18.5961C623.82 9.2981 590.826 18.2968 565.632 50.093C550.935 68.6918 545.836 90.2835 548.529 113.685C553.928 164.377 604.024 201.272 655.014 190.173Z" fill="white" stroke="white" stroke-width="0.65552" stroke-miterlimit="10" stroke-linejoin="round"/>
<path d="M588.42 67.4914C601.318 62.6914 613.617 57.8942 627.114 55.8048C632.139 54.6566 637.346 54.5547 642.412 55.5055C643.574 55.6185 644.696 55.9925 645.694 56.5997C646.691 57.2068 647.539 58.0314 648.173 59.0119C648.808 59.9924 649.212 61.1035 649.357 62.2623C649.502 63.4211 649.384 64.5977 649.01 65.7042C646.768 73.6891 643.111 81.2068 638.213 87.9002C633.712 94.4989 628.314 100.499 623.816 106.798L622.915 107.699C618.414 113.998 619.614 118.496 626.515 121.797C633.114 124.796 640.015 126.597 646.613 129.296C650.997 130.788 655.14 132.91 658.913 135.596C663.713 139.495 664.613 143.694 661.013 149.095C658.179 152.83 654.848 156.16 651.114 158.995C643.339 164.57 635.111 169.486 626.518 173.691C626.104 174.033 625.598 174.244 625.064 174.298C624.53 174.351 623.992 174.244 623.519 173.991C627.419 170.69 631.318 168.005 634.921 164.393C637.446 161.827 639.57 158.894 641.22 155.694C642.159 154.02 642.403 152.043 641.898 150.191C641.393 148.339 640.18 146.76 638.521 145.795C635.071 143.521 631.34 141.706 627.422 140.396C620.118 137.788 613.001 134.681 606.123 131.098C601.323 128.099 597.723 124.499 598.025 118.2C598.523 114.62 600.092 111.274 602.526 108.603C609.424 100.203 616.924 92.4038 622.924 83.7073C625.189 80.6773 627.008 77.3377 628.325 73.7908C630.124 68.6914 628.325 65.6928 622.927 64.4928C616.608 63.694 610.195 64.1012 604.028 65.6928C600.129 66.2914 596.23 67.4914 592.342 68.3921C591.119 67.7907 590.218 68.3921 588.42 67.4914Z" fill="white"/>
<path d="M649.914 47.995C649.964 44.6469 651.329 41.4529 653.715 39.103C656.1 36.753 659.314 35.4358 662.662 35.4358C666.011 35.4358 669.225 36.753 671.61 39.103C673.995 41.4529 675.361 44.6469 675.411 47.995C675.419 49.6772 675.089 51.3439 674.44 52.8959C673.791 54.4479 672.836 55.8534 671.633 57.0289C670.429 58.2044 669.002 59.1257 667.435 59.7382C665.868 60.3506 664.194 60.6416 662.513 60.5937C660.841 60.66 659.173 60.3794 657.614 59.7696C656.056 59.1599 654.64 58.2343 653.457 57.0509C652.274 55.8675 651.348 54.4521 650.738 52.8936C650.128 51.335 649.848 49.6672 649.914 47.995Z" fill="white"/>
<path d="M616.761 75.1023C616.798 74.636 617.009 74.2007 617.352 73.8832C617.696 73.5656 618.146 73.3893 618.614 73.3893C619.082 73.3893 619.532 73.5656 619.876 73.8832C620.219 74.2007 620.43 74.636 620.467 75.1023C620.468 75.3472 620.419 75.5898 620.325 75.8157C620.23 76.0416 620.091 76.2462 619.916 76.4174C619.741 76.5886 619.533 76.7229 619.305 76.8123C619.077 76.9017 618.833 76.9445 618.588 76.938C618.345 76.9464 618.103 76.9046 617.877 76.8152C617.651 76.7258 617.446 76.5908 617.274 76.4185C617.103 76.2462 616.969 76.0404 616.881 75.8139C616.792 75.5874 616.752 75.3452 616.761 75.1023Z" fill="#F1D427"/>
<path d="M605.903 83.5736C605.903 82.8989 606.171 82.2519 606.648 81.7748C607.125 81.2977 607.772 81.0297 608.447 81.0297C609.122 81.0297 609.769 81.2977 610.246 81.7748C610.723 82.2519 610.991 82.8989 610.991 83.5736C610.992 83.9086 610.927 84.2404 610.798 84.5496C610.669 84.8587 610.479 85.1388 610.24 85.3732C610.001 85.6077 609.717 85.7917 609.405 85.9144C609.093 86.0371 608.76 86.096 608.425 86.0876C608.091 86.1021 607.757 86.047 607.445 85.9259C607.133 85.8048 606.85 85.6203 606.613 85.384C606.375 85.1477 606.19 84.8649 606.068 84.5532C605.946 84.2416 605.889 83.9081 605.903 83.5736Z" fill="#F1D427"/>
<path d="M596.792 93.7244C596.816 92.8961 597.163 92.11 597.758 91.5329C598.352 90.9557 599.148 90.6329 599.977 90.6329C600.806 90.6329 601.602 90.9557 602.196 91.5329C602.791 92.11 603.138 92.8961 603.162 93.7244C603.163 94.1437 603.079 94.5587 602.916 94.945C602.752 95.3313 602.514 95.681 602.213 95.9733C601.912 96.2656 601.556 96.4947 601.166 96.647C600.775 96.7993 600.358 96.8716 599.939 96.8598C599.522 96.8762 599.106 96.8063 598.718 96.6547C598.329 96.5031 597.977 96.2729 597.681 95.9786C597.386 95.6843 597.154 95.3321 597.001 94.9443C596.848 94.5564 596.777 94.1411 596.792 93.7244Z" fill="#F1D427"/>
<path d="M586.382 107.289C586.382 106.376 586.744 105.501 587.389 104.856C588.035 104.211 588.91 103.848 589.822 103.848C590.735 103.848 591.61 104.211 592.255 104.856C592.9 105.501 593.263 106.376 593.263 107.289C593.265 107.743 593.175 108.192 593 108.611C592.825 109.03 592.568 109.409 592.243 109.726C591.918 110.044 591.533 110.292 591.11 110.458C590.688 110.623 590.236 110.702 589.782 110.689C589.331 110.707 588.881 110.632 588.46 110.467C588.039 110.303 587.657 110.053 587.338 109.733C587.018 109.414 586.768 109.032 586.604 108.611C586.439 108.19 586.364 107.74 586.382 107.289Z" fill="#F1D427"/>
<path d="M584.585 122.533C584.585 121.595 584.958 120.695 585.621 120.032C586.284 119.369 587.184 118.996 588.122 118.996C589.06 118.996 589.96 119.369 590.623 120.032C591.287 120.695 591.66 121.595 591.66 122.533C591.662 123 591.57 123.462 591.39 123.893C591.209 124.324 590.944 124.714 590.61 125.04C590.276 125.366 589.88 125.621 589.445 125.791C589.011 125.961 588.546 126.041 588.079 126.028C587.616 126.046 587.153 125.968 586.721 125.799C586.289 125.629 585.896 125.373 585.568 125.044C585.24 124.716 584.983 124.324 584.814 123.892C584.645 123.46 584.567 122.997 584.585 122.533Z" fill="#F1D427"/>
<path d="M593.774 134.393C593.774 133.646 594.071 132.928 594.599 132.4C595.128 131.871 595.845 131.574 596.593 131.574C597.34 131.574 598.057 131.871 598.586 132.4C599.115 132.928 599.412 133.646 599.412 134.393C599.413 134.765 599.34 135.133 599.197 135.477C599.053 135.82 598.842 136.13 598.577 136.39C598.311 136.65 597.995 136.854 597.649 136.99C597.303 137.126 596.933 137.191 596.561 137.181C596.191 137.196 595.822 137.134 595.477 136.999C595.132 136.864 594.819 136.659 594.557 136.397C594.295 136.136 594.09 135.822 593.956 135.477C593.821 135.132 593.759 134.763 593.774 134.393Z" fill="#F1D427"/>
<path d="M604.32 141.166C604.342 140.535 604.608 139.938 605.062 139.499C605.516 139.06 606.122 138.815 606.753 138.815C607.384 138.815 607.991 139.06 608.445 139.499C608.899 139.938 609.164 140.535 609.186 141.166C609.187 141.487 609.124 141.805 609 142.101C608.876 142.397 608.694 142.665 608.464 142.89C608.234 143.114 607.962 143.289 607.663 143.406C607.364 143.523 607.044 143.578 606.723 143.569C606.404 143.582 606.086 143.528 605.789 143.412C605.492 143.295 605.222 143.119 604.997 142.893C604.771 142.667 604.594 142.398 604.478 142.1C604.362 141.803 604.308 141.485 604.32 141.166Z" fill="#F1D427"/>
<path d="M614.799 147.944C614.819 147.394 615.051 146.874 615.447 146.493C615.843 146.111 616.371 145.898 616.921 145.898C617.471 145.898 617.999 146.111 618.395 146.493C618.79 146.874 619.023 147.394 619.043 147.944C619.044 148.224 618.989 148.501 618.881 148.759C618.773 149.018 618.614 149.251 618.414 149.447C618.214 149.643 617.976 149.796 617.716 149.898C617.455 150.001 617.176 150.049 616.897 150.042C616.618 150.052 616.341 150.006 616.081 149.904C615.822 149.802 615.586 149.648 615.389 149.451C615.192 149.254 615.038 149.019 614.936 148.759C614.835 148.5 614.788 148.222 614.799 147.944Z" fill="#F1D427"/>
<path d="M624.858 154.72C624.878 154.143 625.122 153.598 625.537 153.197C625.952 152.797 626.506 152.573 627.082 152.573C627.659 152.573 628.213 152.797 628.628 153.197C629.043 153.598 629.286 154.143 629.307 154.72C629.308 155.013 629.251 155.304 629.137 155.575C629.024 155.846 628.857 156.091 628.647 156.296C628.437 156.501 628.188 156.662 627.914 156.768C627.641 156.875 627.349 156.926 627.055 156.917C626.764 156.929 626.473 156.879 626.201 156.773C625.929 156.666 625.683 156.505 625.476 156.299C625.27 156.092 625.108 155.846 625.002 155.574C624.895 155.302 624.846 155.011 624.858 154.72Z" fill="#F1D427"/>
<path d="M622.005 163.191C622.005 162.742 622.184 162.311 622.501 161.994C622.819 161.676 623.249 161.498 623.699 161.498C624.148 161.498 624.578 161.676 624.896 161.994C625.213 162.311 625.392 162.742 625.392 163.191C625.393 163.414 625.349 163.635 625.262 163.841C625.176 164.047 625.05 164.233 624.89 164.389C624.731 164.545 624.542 164.668 624.334 164.749C624.126 164.831 623.904 164.87 623.681 164.864C623.459 164.873 623.237 164.836 623.03 164.756C622.823 164.675 622.634 164.552 622.477 164.395C622.319 164.238 622.196 164.049 622.115 163.842C622.034 163.635 621.997 163.413 622.005 163.191Z" fill="#F1D427"/>
<path d="M617.483 169.969C617.517 169.693 617.651 169.439 617.86 169.255C618.068 169.07 618.337 168.969 618.615 168.969C618.893 168.969 619.162 169.07 619.37 169.255C619.579 169.439 619.712 169.693 619.746 169.969C619.747 170.118 619.718 170.266 619.661 170.404C619.604 170.541 619.519 170.666 619.413 170.77C619.307 170.875 619.181 170.957 619.042 171.012C618.903 171.066 618.755 171.093 618.606 171.089C618.457 171.096 618.309 171.071 618.17 171.017C618.031 170.963 617.905 170.881 617.799 170.776C617.693 170.671 617.611 170.545 617.557 170.406C617.502 170.267 617.477 170.118 617.483 169.969Z" fill="#F1D427"/>
<path d="M647.803 86.0907C648.06 87.821 648.462 89.5267 649.003 91.1901C650.502 96.2894 654.102 98.088 659.501 96.5887C663.789 95.1701 667.758 92.9287 671.188 89.99C672.258 89.2833 673.262 88.4799 674.186 87.59C674.186 88.1886 674.486 88.1886 674.486 88.4907C668.5 95.0894 662.488 101.389 654.388 105.288C649.587 107.688 646.589 105.887 645.987 100.488C645.42 95.6127 646.043 90.6724 647.803 86.0907Z" fill="#F1D427"/>
<path d="M422.132 218.408C422.247 218.528 422.334 218.672 422.386 218.829C422.438 218.986 422.455 219.153 422.434 219.318V242.927C422.458 243.092 422.443 243.26 422.391 243.418C422.338 243.576 422.25 243.719 422.132 243.837C422.014 243.955 421.871 244.043 421.713 244.096C421.555 244.148 421.387 244.163 421.223 244.139C420.92 244.139 420.618 243.837 420.313 243.535L404.271 222.043V242.927C404.292 243.092 404.276 243.259 404.223 243.416C404.171 243.574 404.084 243.717 403.969 243.837C403.667 244.139 403.667 244.139 403.06 244.139C402.895 244.162 402.728 244.147 402.57 244.094C402.412 244.042 402.269 243.953 402.152 243.836C402.034 243.718 401.946 243.575 401.893 243.417C401.84 243.26 401.825 243.092 401.848 242.927V219.318C401.825 219.153 401.84 218.986 401.893 218.828C401.946 218.67 402.034 218.527 402.152 218.41C402.269 218.292 402.412 218.204 402.57 218.151C402.728 218.098 402.895 218.083 403.06 218.106C403.362 218.106 403.664 218.408 403.969 218.711L419.709 240.202V219.318C419.688 219.153 419.705 218.986 419.757 218.829C419.809 218.672 419.896 218.528 420.011 218.408C420.313 218.106 420.313 218.106 420.92 218.106C421.528 218.106 421.83 218.106 422.132 218.408Z" fill="#A8A8A8"/>
<path d="M442.712 240.493C443.014 240.796 443.014 240.796 443.014 241.098C443.014 241.702 442.712 242.007 441.803 242.611C440.129 243.531 438.264 244.049 436.356 244.125C435.188 244.17 434.022 243.979 432.93 243.563C431.838 243.146 430.841 242.514 429.999 241.702C428.356 239.882 427.487 237.494 427.577 235.044C427.556 233.384 427.865 231.737 428.486 230.198C429.063 228.761 430.137 227.579 431.513 226.869C432.774 226.053 434.25 225.631 435.752 225.657C436.759 225.588 437.77 225.742 438.712 226.108C439.653 226.474 440.502 227.043 441.199 227.775C442.567 229.496 443.314 231.63 443.316 233.829C443.316 234.131 443.316 234.739 443.014 234.739C442.895 234.853 442.751 234.94 442.594 234.993C442.437 235.045 442.27 235.061 442.105 235.041H429.999C429.949 235.975 430.084 236.911 430.395 237.794C430.707 238.677 431.189 239.489 431.815 240.186C432.408 240.782 433.117 241.251 433.898 241.563C434.678 241.876 435.515 242.025 436.356 242.001C437.275 242.051 438.195 241.949 439.081 241.699C439.847 241.412 440.563 241.003 441.199 240.488C441.803 240.186 442.108 239.884 442.41 239.884C442.712 239.884 442.399 240.208 442.712 240.493ZM431.513 229.294C430.498 230.61 429.87 232.182 429.697 233.835H440.896C440.906 232.196 440.374 230.6 439.383 229.294C438.868 228.783 438.253 228.384 437.575 228.123C436.898 227.863 436.174 227.746 435.449 227.781C434.722 227.733 433.993 227.844 433.313 228.107C432.633 228.37 432.019 228.778 431.513 229.303V229.294Z" fill="#A8A8A8"/>
<path d="M461.171 225.973C461.473 225.973 461.775 225.973 461.775 226.275C462.078 226.577 462.078 226.577 462.078 226.879V227.484L454.82 243.226C454.81 243.383 454.743 243.531 454.632 243.642C454.521 243.753 454.373 243.82 454.216 243.831C453.987 243.863 453.775 243.969 453.612 244.133C453.447 244.153 453.28 244.137 453.123 244.085C452.966 244.032 452.822 243.946 452.703 243.831L452.098 243.226L445.129 227.487V227.184C445.129 226.882 445.129 226.58 445.431 226.58C445.551 226.465 445.694 226.378 445.852 226.326C446.009 226.274 446.176 226.257 446.341 226.278C446.945 226.278 447.25 226.58 447.25 226.882L453.908 241.419L460.567 226.882C460.567 226.275 460.869 225.973 461.171 225.973Z" fill="#A8A8A8"/>
<path d="M479.948 240.493C480.25 240.796 480.25 240.796 480.25 241.098C480.25 241.702 479.948 242.007 479.039 242.611C477.365 243.531 475.5 244.049 473.592 244.125C472.424 244.17 471.258 243.979 470.166 243.563C469.074 243.146 468.077 242.514 467.236 241.702C465.592 239.882 464.723 237.494 464.813 235.044C464.792 233.384 465.101 231.737 465.722 230.198C466.299 228.761 467.373 227.579 468.749 226.869C470.01 226.053 471.486 225.631 472.988 225.657C473.995 225.588 475.006 225.741 475.948 226.107C476.889 226.473 477.739 227.043 478.435 227.775C479.803 229.496 480.55 231.63 480.553 233.829C480.553 234.131 480.553 234.739 480.25 234.739C480.131 234.854 479.987 234.94 479.83 234.993C479.673 235.045 479.506 235.061 479.341 235.041H467.236C467.185 235.975 467.32 236.911 467.631 237.794C467.943 238.677 468.425 239.489 469.051 240.186C469.644 240.782 470.353 241.251 471.134 241.563C471.915 241.876 472.751 242.025 473.592 242.001C474.511 242.051 475.431 241.949 476.317 241.699C477.084 241.412 477.799 241.003 478.435 240.488C479.039 240.186 479.344 239.884 479.646 239.884C479.948 239.884 479.635 240.208 479.948 240.493ZM468.749 229.294C467.734 230.61 467.106 232.182 466.933 233.835H478.133C478.142 232.196 477.61 230.6 476.619 229.294C476.104 228.783 475.489 228.384 474.812 228.124C474.134 227.863 473.41 227.746 472.685 227.781C471.958 227.733 471.229 227.844 470.549 228.107C469.869 228.37 469.255 228.778 468.749 229.303V229.294Z" fill="#A8A8A8"/>
<path d="M494.166 226.278C494.468 226.278 494.468 226.581 494.468 226.883C494.468 227.487 494.166 227.792 493.257 227.792H492.046C490.572 227.955 489.192 228.592 488.112 229.608C487.31 230.647 486.883 231.927 486.901 233.239V242.623C486.912 242.789 486.889 242.955 486.833 243.112C486.778 243.269 486.69 243.413 486.577 243.534C486.463 243.656 486.326 243.753 486.173 243.819C486.02 243.886 485.856 243.92 485.689 243.92C485.523 243.92 485.358 243.886 485.205 243.819C485.053 243.753 484.915 243.656 484.802 243.534C484.688 243.413 484.601 243.269 484.545 243.112C484.489 242.955 484.466 242.789 484.478 242.623V226.581C484.466 226.415 484.489 226.248 484.545 226.091C484.601 225.934 484.688 225.79 484.802 225.669C484.915 225.547 485.053 225.45 485.205 225.384C485.358 225.317 485.523 225.283 485.689 225.283C485.856 225.283 486.02 225.317 486.173 225.384C486.326 225.45 486.463 225.547 486.577 225.669C486.69 225.79 486.778 225.934 486.833 226.091C486.889 226.248 486.912 226.415 486.901 226.581V229.003C487.342 227.945 488.106 227.053 489.084 226.456C490.062 225.858 491.205 225.584 492.348 225.674H492.952C493.556 225.973 493.858 225.973 494.166 226.278Z" fill="#A8A8A8"/>
<path d="M506.582 243.831C506.467 243.712 506.381 243.568 506.328 243.411C506.276 243.254 506.259 243.087 506.28 242.922V219.315C506.269 219.149 506.292 218.982 506.347 218.825C506.403 218.669 506.49 218.525 506.604 218.403C506.718 218.282 506.855 218.185 507.008 218.118C507.16 218.052 507.325 218.018 507.492 218.018C507.658 218.018 507.823 218.052 507.975 218.118C508.128 218.185 508.266 218.282 508.379 218.403C508.493 218.525 508.58 218.669 508.636 218.825C508.692 218.982 508.714 219.149 508.703 219.315V242.925C508.689 243.164 508.609 243.394 508.472 243.59C508.334 243.786 508.145 243.94 507.925 244.034C507.705 244.128 507.463 244.16 507.227 244.124C506.99 244.089 506.768 243.989 506.585 243.834L506.582 243.831Z" fill="#A8A8A8"/>
<path d="M528.367 240.493C528.669 240.796 528.669 240.796 528.669 241.098C528.669 241.702 528.367 242.007 527.457 242.611C525.783 243.531 523.919 244.049 522.01 244.125C520.842 244.17 519.677 243.979 518.584 243.563C517.492 243.146 516.495 242.514 515.654 241.702C514.011 239.882 513.142 237.494 513.231 235.044C513.21 233.384 513.519 231.737 514.14 230.198C514.717 228.761 515.791 227.579 517.167 226.869C518.429 226.053 519.904 225.631 521.406 225.657C522.414 225.588 523.424 225.742 524.366 226.108C525.308 226.474 526.157 227.043 526.853 227.775C528.222 229.496 528.968 231.63 528.971 233.829C528.971 234.131 528.971 234.739 528.669 234.739C528.549 234.853 528.406 234.94 528.248 234.993C528.091 235.045 527.924 235.061 527.759 235.041H515.654C515.604 235.975 515.738 236.911 516.05 237.794C516.361 238.677 516.844 239.489 517.469 240.186C518.062 240.782 518.771 241.251 519.552 241.563C520.333 241.876 521.169 242.025 522.01 242.001C522.929 242.051 523.85 241.949 524.735 241.699C525.502 241.412 526.217 241.003 526.853 240.488C527.457 240.186 527.762 239.884 528.064 239.884C528.367 239.884 528.367 240.208 528.367 240.493ZM517.469 229.294C516.455 230.61 515.826 232.182 515.654 233.835H526.853C526.863 232.196 526.331 230.6 525.339 229.294C524.825 228.783 524.209 228.384 523.532 228.124C522.855 227.863 522.131 227.746 521.406 227.781C520.676 227.706 519.939 227.805 519.255 228.069C518.571 228.334 517.959 228.757 517.469 229.303V229.294Z" fill="#A8A8A8"/>
<path d="M541.99 243.227C541.99 243.529 541.99 243.831 541.688 243.831C541.568 243.946 541.425 244.033 541.267 244.086C541.11 244.138 540.943 244.154 540.778 244.134H539.869C539.071 244.186 538.271 244.049 537.536 243.734C536.8 243.419 536.149 242.935 535.636 242.321C534.659 241.021 534.225 239.393 534.425 237.78V228.089H531.7C531.398 228.089 531.096 228.089 531.096 227.787C530.793 227.484 530.793 227.484 530.793 227.182C530.793 226.88 530.793 226.578 531.096 226.578C531.398 226.276 531.398 226.276 531.7 226.276H534.425V221.738C534.413 221.572 534.436 221.405 534.492 221.249C534.548 221.092 534.635 220.948 534.749 220.826C534.862 220.705 535 220.608 535.152 220.541C535.305 220.475 535.47 220.441 535.636 220.441C535.803 220.441 535.967 220.475 536.12 220.541C536.273 220.608 536.41 220.705 536.524 220.826C536.637 220.948 536.725 221.092 536.781 221.249C536.836 221.405 536.859 221.572 536.848 221.738V226.279H541.388C541.691 226.279 541.993 226.279 541.993 226.581C542.295 226.883 542.295 226.883 542.295 227.185C542.295 227.487 542.295 227.789 541.993 227.789C541.691 228.092 541.691 228.092 541.388 228.092H536.848V237.783C536.781 238.962 537.1 240.131 537.757 241.112C538.542 241.751 539.482 242.169 540.482 242.324H541.391C541.688 242.321 541.99 242.623 541.99 243.227Z" fill="#A8A8A8"/>
<path d="M566.81 226.882C568.027 227.698 568.975 228.857 569.535 230.211C570.747 233.328 570.747 236.786 569.535 239.903C569.055 241.228 568.077 242.314 566.81 242.93C565.523 243.689 564.064 244.106 562.571 244.141C561.297 244.203 560.034 243.887 558.94 243.232C557.911 242.548 557.077 241.609 556.52 240.507V249.588C556.531 249.754 556.508 249.921 556.452 250.078C556.397 250.235 556.309 250.379 556.196 250.5C556.082 250.622 555.945 250.719 555.792 250.785C555.639 250.852 555.475 250.886 555.308 250.886C555.142 250.886 554.977 250.852 554.824 250.785C554.672 250.719 554.534 250.622 554.421 250.5C554.307 250.379 554.22 250.235 554.164 250.078C554.108 249.921 554.085 249.754 554.097 249.588V227.184C554.085 227.018 554.108 226.852 554.164 226.695C554.22 226.538 554.307 226.394 554.421 226.272C554.534 226.151 554.672 226.054 554.824 225.987C554.977 225.921 555.142 225.887 555.308 225.887C555.475 225.887 555.639 225.921 555.792 225.987C555.945 226.054 556.082 226.151 556.196 226.272C556.309 226.394 556.397 226.538 556.452 226.695C556.508 226.852 556.531 227.018 556.52 227.184V229.607C556.982 228.443 557.838 227.478 558.94 226.882C560.062 226.298 561.306 225.987 562.571 225.973C564.038 225.917 565.495 226.23 566.81 226.882ZM566.81 240.504C567.846 238.993 568.376 237.191 568.323 235.359C568.418 233.428 567.887 231.518 566.81 229.912C566.263 229.338 565.606 228.882 564.877 228.569C564.149 228.257 563.365 228.096 562.572 228.096C561.78 228.096 560.996 228.257 560.268 228.569C559.539 228.882 558.882 229.338 558.335 229.912C557.258 231.518 556.727 233.428 556.822 235.359C556.774 237.285 557.301 239.181 558.335 240.806C558.803 241.474 559.447 241.997 560.196 242.318C560.945 242.639 561.768 242.744 562.574 242.622C564.186 242.422 565.68 241.677 566.81 240.51V240.504Z" fill="#A8A8A8"/>
<path d="M587.091 227.486C588.171 228.977 588.706 230.793 588.604 232.631V242.924C588.616 243.09 588.593 243.257 588.537 243.414C588.481 243.57 588.394 243.714 588.28 243.836C588.167 243.958 588.03 244.055 587.877 244.121C587.724 244.187 587.559 244.221 587.393 244.221C587.226 244.221 587.062 244.187 586.909 244.121C586.756 244.055 586.619 243.958 586.505 243.836C586.392 243.714 586.304 243.57 586.249 243.414C586.193 243.257 586.17 243.09 586.182 242.924V240.795C585.728 241.792 584.991 242.634 584.064 243.218C583.065 243.835 581.909 244.15 580.734 244.127C579.698 244.102 578.674 243.898 577.707 243.523C576.879 243.076 576.157 242.457 575.59 241.707C575.02 240.91 574.703 239.961 574.68 238.982C574.608 237.894 574.93 236.817 575.59 235.949C576.541 235.152 577.692 234.629 578.919 234.436C581.112 234.01 583.343 233.808 585.577 233.831H586.487V232.62C586.549 231.346 586.232 230.083 585.577 228.988C584.749 228.23 583.673 227.8 582.55 227.777C580.731 227.814 578.955 228.336 577.405 229.291C577.242 229.455 577.03 229.561 576.801 229.593C576.681 229.708 576.538 229.795 576.38 229.847C576.223 229.899 576.056 229.916 575.892 229.895C575.59 229.895 575.589 229.895 575.287 229.593C574.985 229.291 574.985 229.291 574.985 228.988C574.985 228.384 575.287 228.079 576.197 227.475C577.044 226.946 577.961 226.539 578.922 226.263C579.91 226.013 580.93 225.912 581.949 225.961C583.787 225.864 585.603 226.402 587.091 227.486ZM584.973 240.803C585.91 239.701 586.443 238.313 586.487 236.867V235.664H585.882C584.061 235.575 582.235 235.676 580.435 235.966C579.498 236.176 578.585 236.48 577.71 236.875C577.399 237.177 577.157 237.542 577.001 237.946C576.846 238.35 576.78 238.784 576.809 239.216C576.838 239.648 576.96 240.069 577.168 240.449C577.376 240.829 577.664 241.159 578.012 241.416C578.809 241.986 579.758 242.303 580.737 242.325C582.295 242.386 583.814 241.837 584.973 240.795V240.803Z" fill="#A8A8A8"/>
<path d="M594.356 221.433C594.172 221.289 594.022 221.106 593.917 220.896C593.813 220.687 593.756 220.456 593.752 220.222C593.752 219.618 593.752 219.313 594.356 219.011C594.658 218.709 594.961 218.708 595.568 218.708C596.175 218.708 596.477 218.709 596.779 219.011C596.964 219.155 597.114 219.338 597.218 219.548C597.323 219.758 597.379 219.988 597.383 220.222C597.383 220.826 597.383 221.131 596.779 221.433C596.477 221.736 596.175 221.736 595.568 221.736C594.961 221.736 594.661 221.736 594.356 221.433ZM594.658 243.832C594.543 243.712 594.457 243.569 594.404 243.411C594.352 243.254 594.336 243.087 594.356 242.923V226.881C594.345 226.715 594.368 226.548 594.423 226.391C594.479 226.234 594.567 226.09 594.68 225.969C594.794 225.847 594.931 225.75 595.084 225.684C595.237 225.617 595.401 225.583 595.568 225.583C595.734 225.583 595.899 225.617 596.052 225.684C596.204 225.75 596.342 225.847 596.455 225.969C596.569 226.09 596.656 226.234 596.712 226.391C596.768 226.548 596.791 226.715 596.779 226.881V242.937C596.765 243.176 596.685 243.406 596.548 243.602C596.41 243.798 596.221 243.952 596.001 244.046C595.781 244.14 595.54 244.172 595.303 244.136C595.066 244.101 594.844 244.001 594.661 243.846L594.658 243.832Z" fill="#A8A8A8"/>
<path d="M617.048 232.633V242.922C617.06 243.089 617.037 243.255 616.981 243.412C616.925 243.569 616.838 243.713 616.724 243.834C616.611 243.956 616.473 244.053 616.321 244.119C616.168 244.186 616.003 244.22 615.837 244.22C615.67 244.22 615.506 244.186 615.353 244.119C615.2 244.053 615.063 243.956 614.949 243.834C614.836 243.713 614.748 243.569 614.692 243.412C614.637 243.255 614.614 243.089 614.625 242.922V232.946C614.723 231.573 614.406 230.203 613.716 229.013C613.303 228.553 612.783 228.203 612.202 227.992C611.622 227.78 610.998 227.715 610.387 227.801C609.612 227.724 608.83 227.82 608.097 228.081C607.364 228.343 606.699 228.764 606.148 229.315C605.598 229.865 605.177 230.531 604.915 231.264C604.653 231.997 604.557 232.779 604.635 233.553V242.937C604.646 243.103 604.623 243.269 604.567 243.426C604.512 243.583 604.424 243.727 604.311 243.849C604.197 243.97 604.06 244.067 603.907 244.134C603.754 244.2 603.59 244.234 603.423 244.234C603.257 244.234 603.092 244.2 602.939 244.134C602.787 244.067 602.649 243.97 602.536 243.849C602.422 243.727 602.335 243.583 602.279 243.426C602.223 243.269 602.2 243.103 602.212 242.937V226.883C602.2 226.717 602.223 226.551 602.279 226.394C602.335 226.237 602.422 226.093 602.536 225.972C602.649 225.85 602.787 225.753 602.939 225.686C603.092 225.62 603.257 225.586 603.423 225.586C603.59 225.586 603.754 225.62 603.907 225.686C604.06 225.753 604.197 225.85 604.311 225.972C604.424 226.093 604.512 226.237 604.567 226.394C604.623 226.551 604.646 226.717 604.635 226.883V229.306C605.198 228.287 606.038 227.447 607.057 226.883C608.166 226.265 609.419 225.951 610.689 225.974C614.939 225.974 617.048 228.095 617.048 232.633Z" fill="#A8A8A8"/>
<path d="M641.009 219.121C641.143 219.117 641.275 219.14 641.399 219.189C641.523 219.238 641.636 219.312 641.73 219.406C641.825 219.5 641.899 219.613 641.948 219.737C641.997 219.861 642.02 219.994 642.015 220.127V241.012C642.024 241.145 642.004 241.278 641.957 241.402C641.91 241.527 641.837 241.64 641.743 241.734C641.649 241.828 641.536 241.901 641.411 241.948C641.287 241.995 641.153 242.015 641.021 242.007C640.89 242.012 640.759 241.99 640.638 241.94C640.516 241.891 640.407 241.817 640.317 241.722C640.138 241.529 640.042 241.275 640.049 241.012V238.9C639.624 239.896 638.894 240.732 637.965 241.289C636.97 241.853 635.84 242.136 634.696 242.107C633.414 242.132 632.154 241.781 631.07 241.098C630.001 240.401 629.156 239.411 628.633 238.247C628.036 236.903 627.744 235.442 627.778 233.972C627.746 232.516 628.043 231.072 628.647 229.747C629.174 228.598 630.02 227.624 631.084 226.943C632.171 226.269 633.429 225.923 634.707 225.948C635.846 225.919 636.971 226.2 637.962 226.76C638.893 227.318 639.624 228.156 640.049 229.154V220.116C640.036 219.851 640.128 219.592 640.305 219.395C640.397 219.302 640.507 219.23 640.628 219.182C640.749 219.135 640.879 219.114 641.009 219.121ZM634.949 240.376C635.662 240.417 636.375 240.289 637.029 240.003C637.684 239.717 638.262 239.282 638.718 238.732C639.687 237.363 640.157 235.703 640.049 234.029C640.151 232.357 639.687 230.701 638.732 229.326C638.284 228.77 637.71 228.329 637.058 228.039C636.405 227.749 635.693 227.618 634.981 227.658C634.26 227.618 633.541 227.746 632.879 228.033C632.217 228.319 631.631 228.756 631.167 229.308C630.194 230.658 629.719 232.303 629.821 233.963C629.717 235.647 630.192 237.315 631.167 238.692C631.62 239.251 632.199 239.695 632.856 239.988C633.513 240.281 634.231 240.414 634.949 240.376ZM648.916 242.044C648.652 242.056 648.392 241.964 648.195 241.787C648.098 241.692 648.022 241.576 647.973 241.449C647.924 241.322 647.903 241.185 647.91 241.049V227.008C647.903 226.872 647.924 226.736 647.973 226.608C648.022 226.481 648.098 226.366 648.195 226.27C648.392 226.093 648.652 226.001 648.916 226.013C649.045 226.006 649.174 226.025 649.295 226.069C649.416 226.114 649.526 226.182 649.62 226.27C649.711 226.369 649.78 226.486 649.824 226.613C649.868 226.74 649.886 226.874 649.877 227.008V241.049C649.886 241.183 649.868 241.318 649.824 241.444C649.78 241.571 649.711 241.688 649.62 241.787C649.528 241.874 649.418 241.941 649.3 241.984C649.181 242.028 649.054 242.047 648.928 242.041L648.916 242.044ZM648.916 222.393C648.726 222.401 648.535 222.372 648.356 222.306C648.177 222.239 648.013 222.139 647.873 222.009C647.74 221.88 647.635 221.725 647.566 221.554C647.497 221.383 647.465 221.199 647.471 221.014C647.463 220.824 647.494 220.635 647.563 220.458C647.632 220.281 647.738 220.121 647.873 219.988C648.013 219.858 648.177 219.757 648.356 219.691C648.535 219.625 648.726 219.595 648.916 219.603C649.107 219.595 649.297 219.625 649.476 219.691C649.656 219.757 649.82 219.858 649.96 219.988C650.095 220.121 650.2 220.281 650.269 220.458C650.339 220.635 650.37 220.824 650.361 221.014C650.368 221.199 650.336 221.383 650.266 221.554C650.197 221.725 650.093 221.88 649.96 222.009C649.68 222.267 649.309 222.405 648.928 222.391L648.916 222.393ZM662.059 242.11C660.735 242.134 659.43 241.788 658.291 241.112C657.191 240.437 656.311 239.457 655.76 238.29C655.144 236.978 654.84 235.541 654.871 234.091C654.842 232.624 655.155 231.17 655.786 229.844C656.351 228.664 657.241 227.668 658.351 226.974C659.494 226.278 660.812 225.922 662.151 225.948C662.952 225.946 663.75 226.054 664.522 226.267C665.257 226.464 665.952 226.789 666.574 227.228C666.884 227.435 667.16 227.689 667.393 227.98C667.547 228.189 667.631 228.442 667.632 228.701C667.639 228.908 667.572 229.111 667.441 229.271C667.383 229.343 667.31 229.4 667.226 229.439C667.143 229.479 667.051 229.498 666.959 229.497C666.574 229.413 666.218 229.225 665.933 228.952C665.416 228.569 664.857 228.246 664.266 227.992C663.622 227.74 662.935 227.62 662.245 227.638C661.505 227.601 660.767 227.736 660.088 228.033C659.409 228.33 658.809 228.78 658.334 229.348C657.324 230.711 656.825 232.384 656.923 234.077C656.807 235.742 657.293 237.394 658.291 238.732C658.772 239.285 659.373 239.721 660.047 240.007C660.722 240.293 661.453 240.421 662.185 240.382C662.88 240.403 663.572 240.283 664.22 240.029C664.837 239.755 665.432 239.434 665.999 239.068C666.189 238.941 666.379 238.823 666.569 238.715C666.698 238.626 666.847 238.572 667.002 238.555C667.099 238.551 667.196 238.57 667.284 238.609C667.373 238.648 667.452 238.706 667.515 238.78C667.643 238.932 667.711 239.126 667.706 239.325C667.71 239.568 667.631 239.805 667.481 239.997C667.23 240.281 666.943 240.529 666.626 240.736C665.989 241.192 665.279 241.533 664.525 241.745C663.729 241.984 662.902 242.106 662.071 242.107L662.059 242.11ZM678.632 240.399C679.23 240.464 679.529 240.741 679.529 241.232C679.534 241.349 679.511 241.465 679.462 241.571C679.412 241.678 679.337 241.77 679.244 241.842C678.966 242.011 678.638 242.079 678.315 242.033L677.417 241.97C676.747 241.974 676.083 241.845 675.464 241.589C674.845 241.333 674.283 240.956 673.812 240.479C672.944 239.313 672.529 237.872 672.643 236.423V227.9H670.206C669.983 227.913 669.764 227.839 669.596 227.692C669.519 227.619 669.459 227.53 669.421 227.432C669.382 227.334 669.365 227.228 669.371 227.122C669.368 227.017 669.386 226.912 669.425 226.814C669.464 226.716 669.522 226.627 669.596 226.552C669.677 226.475 669.773 226.415 669.878 226.377C669.983 226.338 670.094 226.321 670.206 226.327H672.643V222.359C672.634 222.225 672.652 222.091 672.696 221.964C672.74 221.837 672.809 221.72 672.899 221.621C672.993 221.533 673.104 221.465 673.225 221.42C673.346 221.376 673.475 221.357 673.604 221.364C673.868 221.352 674.127 221.444 674.325 221.621C674.422 221.717 674.497 221.832 674.546 221.959C674.596 222.087 674.617 222.223 674.61 222.359V226.333H678.489C678.606 226.324 678.723 226.34 678.833 226.379C678.943 226.417 679.045 226.478 679.13 226.558C679.204 226.633 679.263 226.722 679.301 226.82C679.34 226.918 679.358 227.023 679.356 227.128C679.362 227.234 679.345 227.339 679.306 227.438C679.267 227.536 679.207 227.625 679.13 227.698C678.951 227.847 678.722 227.921 678.489 227.906H674.604V236.528C674.506 237.54 674.78 238.553 675.374 239.379C676.019 240.002 676.879 240.352 677.776 240.357L678.632 240.399ZM689.306 225.942C690.073 225.882 690.843 225.982 691.569 226.235C692.295 226.489 692.96 226.891 693.522 227.416C694.553 228.669 695.057 230.273 694.93 231.891V241.012C694.943 241.277 694.851 241.536 694.674 241.733C694.481 241.909 694.229 242.006 693.968 242.006C693.707 242.006 693.456 241.909 693.263 241.733C693.086 241.536 692.994 241.277 693.006 241.012V239.094C692.593 240.016 691.911 240.793 691.051 241.323C690.161 241.857 689.138 242.129 688.101 242.11C687.147 242.12 686.204 241.912 685.344 241.5C684.543 241.12 683.861 240.529 683.372 239.789C682.897 239.078 682.645 238.241 682.651 237.386C682.59 236.406 682.912 235.441 683.549 234.693C684.378 233.939 685.419 233.459 686.53 233.316C688.447 232.997 690.39 232.858 692.333 232.9H693.006V231.72C693.102 230.62 692.799 229.522 692.151 228.627C691.794 228.277 691.366 228.008 690.896 227.84C690.425 227.671 689.924 227.606 689.426 227.649C687.834 227.652 686.272 228.085 684.905 228.901L684.409 229.237C684.212 229.398 683.972 229.497 683.72 229.522C683.619 229.525 683.519 229.504 683.427 229.463C683.335 229.422 683.254 229.36 683.189 229.283C683.049 229.118 682.975 228.906 682.981 228.69C682.981 228.221 683.356 227.761 684.104 227.31C684.889 226.868 685.73 226.533 686.604 226.316C687.49 226.081 688.402 225.958 689.318 225.951L689.306 225.942ZM688.249 240.399C688.887 240.421 689.522 240.306 690.111 240.063C690.701 239.82 691.232 239.453 691.669 238.988C692.57 238.014 693.049 236.723 693 235.397V234.348H692.39C690.816 234.319 689.241 234.405 687.679 234.604C686.841 234.673 686.04 234.978 685.37 235.485C685.136 235.724 684.955 236.01 684.84 236.324C684.725 236.638 684.678 236.973 684.703 237.307C684.694 237.732 684.782 238.153 684.96 238.539C685.138 238.925 685.401 239.266 685.729 239.536C686.437 240.128 687.338 240.438 688.26 240.408L688.249 240.399ZM707.58 240.399C708.179 240.464 708.478 240.741 708.478 241.232C708.483 241.349 708.46 241.465 708.41 241.571C708.36 241.678 708.286 241.77 708.193 241.842C707.915 242.011 707.586 242.079 707.264 242.033L706.366 241.97C705.696 241.976 705.032 241.848 704.412 241.593C703.792 241.339 703.23 240.963 702.757 240.488C701.893 239.32 701.481 237.879 701.597 236.432V227.9H699.16C698.937 227.913 698.719 227.839 698.55 227.692C698.474 227.619 698.414 227.53 698.375 227.432C698.336 227.334 698.319 227.228 698.325 227.122C698.322 227.017 698.341 226.912 698.379 226.814C698.418 226.716 698.476 226.627 698.55 226.552C698.631 226.475 698.727 226.415 698.832 226.377C698.937 226.338 699.048 226.321 699.16 226.327H701.597V222.359C701.588 222.225 701.606 222.091 701.65 221.964C701.694 221.837 701.763 221.72 701.854 221.621C701.948 221.533 702.058 221.465 702.179 221.42C702.3 221.376 702.429 221.357 702.558 221.364C702.823 221.352 703.082 221.444 703.279 221.621C703.376 221.717 703.452 221.832 703.501 221.959C703.55 222.087 703.571 222.223 703.564 222.359V226.333H707.432C707.549 226.324 707.666 226.34 707.776 226.379C707.886 226.417 707.987 226.478 708.073 226.558C708.147 226.633 708.205 226.722 708.244 226.82C708.283 226.918 708.301 227.023 708.298 227.128C708.305 227.234 708.288 227.339 708.249 227.438C708.21 227.536 708.15 227.625 708.073 227.698C707.894 227.847 707.664 227.921 707.432 227.906H703.553V236.528C703.455 237.54 703.729 238.553 704.322 239.379C704.967 240.002 705.828 240.352 706.725 240.357L707.58 240.399ZM724.027 238.541C724.122 238.541 724.216 238.563 724.302 238.604C724.388 238.646 724.463 238.706 724.523 238.78C724.662 238.937 724.736 239.141 724.731 239.35C724.731 239.82 724.368 240.28 723.642 240.73C722.176 241.629 720.491 242.106 718.771 242.11C717.737 242.164 716.704 242.001 715.738 241.631C714.772 241.26 713.894 240.691 713.161 239.96C711.725 238.343 710.987 236.223 711.109 234.063C711.08 232.595 711.393 231.141 712.024 229.816C712.588 228.639 713.478 227.649 714.589 226.965C715.736 226.279 717.053 225.93 718.389 225.956C719.276 225.913 720.161 226.063 720.984 226.398C721.806 226.733 722.545 227.244 723.149 227.895C724.383 229.39 725.007 231.297 724.896 233.233C724.923 233.541 724.832 233.847 724.64 234.089C724.528 234.191 724.397 234.269 724.253 234.318C724.11 234.367 723.958 234.386 723.807 234.374H713.138C713.083 236.008 713.631 237.606 714.678 238.863C715.209 239.393 715.846 239.804 716.548 240.069C717.249 240.334 717.999 240.448 718.748 240.402C719.534 240.425 720.317 240.3 721.057 240.034C721.745 239.757 722.411 239.43 723.052 239.057C723.334 238.808 723.673 238.633 724.038 238.547L724.027 238.541ZM718.395 227.553C717.73 227.522 717.067 227.632 716.448 227.875C715.83 228.118 715.269 228.489 714.803 228.964C713.84 230.059 713.275 231.449 713.201 232.906H723.106C723.158 231.476 722.704 230.074 721.824 228.946C721.391 228.474 720.859 228.104 720.266 227.863C719.673 227.622 719.034 227.516 718.395 227.553Z" fill="#A8A8A8"/>
</svg>
