<svg width="25" height="22" viewBox="0 0 25 22" fill="none" xmlns="http://www.w3.org/2000/svg">
<g clip-path="url(#clip0)">
<path d="M13.3841 13.6013C13.3301 13.4354 13.2705 13.2711 13.2229 13.1033C13.0308 12.4269 12.8434 11.7492 12.6522 11.0725C12.4766 10.4514 12.2987 9.83093 12.1214 9.21033C11.9441 8.58989 11.7679 7.96912 11.5879 7.34944C11.453 6.88483 11.3094 6.4227 11.1763 5.95761C11.0731 5.59718 10.9854 5.2323 10.8805 4.87238C10.8006 4.59787 10.7171 4.32312 10.6122 4.05754C10.502 3.77831 10.0694 3.52197 9.77093 3.54349C9.45004 3.56662 9.08968 3.7592 8.98858 4.12021C8.86518 4.5609 8.75313 5.00473 8.63753 5.44756C8.56119 5.7401 8.48596 6.03293 8.41264 6.32626C8.33803 6.62466 8.26761 6.92409 8.19312 7.22252C8.11987 7.51598 8.04281 7.80849 7.96927 8.10191C7.89451 8.40022 7.82239 8.69917 7.74844 8.99767C7.67824 9.28105 7.6068 9.56416 7.53667 9.84756C7.48781 10.0449 7.4348 10.2414 7.39365 10.4404C7.3568 10.6186 7.31555 10.6617 7.13597 10.6618C5.29672 10.6626 3.45747 10.6618 1.61822 10.6663C1.48438 10.6666 1.40352 10.6217 1.34357 10.5056C1.05982 9.95602 0.75052 9.41853 0.491929 8.85756C0.23076 8.29105 0.0895319 7.67706 0.0374384 7.06023C-0.00710965 6.53288 -0.0315771 5.99492 0.0802622 5.46463C0.156594 5.10268 0.195138 4.73241 0.278581 4.37233C0.411378 3.79918 0.642274 3.26241 0.951638 2.7614C1.49504 1.88139 2.2317 1.202 3.15458 0.745728C3.57172 0.53952 4.02515 0.397034 4.47404 0.266747C5.25292 0.0406952 6.05611 -0.031929 6.8643 0.0105515C7.19517 0.0279312 7.52453 0.101814 7.85094 0.167961C8.11057 0.220558 8.37161 0.281494 8.61995 0.371857C9.33495 0.631981 9.98179 1.02114 10.6058 1.45247C11.2269 1.88181 11.8145 2.35101 12.3516 2.88162C12.4685 2.99715 12.5434 2.94991 12.6393 2.85744C13.5319 1.99648 14.5167 1.25816 15.6189 0.68763C16.0712 0.453499 16.5546 0.29332 17.0533 0.167709C17.6922 0.00676729 18.3362 -0.0183792 18.9839 0.0151062C19.3359 0.0333099 19.6876 0.100967 20.0342 0.172081C20.3855 0.244202 20.7333 0.337738 21.0772 0.440453C21.6068 0.598686 22.0843 0.866997 22.533 1.18456C23.0581 1.55618 23.5133 2.00461 23.8635 2.54305C24.078 2.87294 24.2383 3.23833 24.4199 3.58936C24.6487 4.03127 24.7422 4.51729 24.8296 4.99721C24.9354 5.57828 24.9795 6.17061 24.9437 6.76347C24.9032 7.43398 24.7601 8.08144 24.525 8.71347C24.2892 9.34749 23.9748 9.93739 23.6216 10.5105C23.5529 10.6218 23.4714 10.6644 23.3407 10.6641C21.7477 10.6605 20.1548 10.6598 18.5618 10.6656C18.422 10.6661 18.3511 10.6096 18.2957 10.4976C17.9348 9.76817 17.575 9.03824 17.2097 8.31105C17.0721 8.03722 16.9409 7.75687 16.7717 7.50287C16.3726 6.90352 15.5598 7.0144 15.2688 7.56519C15.1705 7.75104 15.1257 7.96596 15.0633 8.16969C14.952 8.53329 14.846 8.89847 14.7378 9.263C14.6341 9.61209 14.5319 9.96156 14.4264 10.3101C14.3222 10.6541 14.2131 10.9966 14.109 11.3406C14.0351 11.5848 13.9681 11.831 13.8943 12.0752C13.7875 12.4285 13.6766 12.7805 13.5688 13.1335C13.522 13.2871 13.4787 13.4417 13.4338 13.5958C13.4172 13.5976 13.4007 13.5995 13.3841 13.6013Z" fill="#0ABAB5"/>
<path d="M2.94922 12.482C3.05313 12.4748 3.11905 12.4663 3.185 12.4663C4.75186 12.4657 6.31876 12.4653 7.88559 12.4671C8.09952 12.4673 8.29889 12.4292 8.48593 12.3181C8.73764 12.1687 8.85776 11.9349 8.92599 11.6657C9.00043 11.3723 9.0687 11.0773 9.14169 10.7834C9.24869 10.3527 9.35687 9.92221 9.46573 9.49191C9.57578 9.05679 9.68753 8.6221 9.79761 8.18698C9.81284 8.12674 9.82254 8.06512 9.86606 7.99207C9.89789 8.0621 9.93945 8.12946 9.96002 8.20267C10.0602 8.55954 10.1508 8.91904 10.2523 9.27548C10.355 9.63626 10.4687 9.99393 10.5734 10.3541C10.6739 10.6997 10.7685 11.0469 10.8668 11.3931C10.9438 11.6641 11.0232 11.9344 11.1 12.2054C11.1724 12.461 11.2418 12.7174 11.3144 12.973C11.4197 13.3441 11.5274 13.7144 11.6328 14.0855C11.7069 14.3464 11.7775 14.6083 11.852 14.8692C11.9249 15.1248 12.0021 15.3792 12.0751 15.6348C12.1809 16.0056 12.2774 16.3793 12.3918 16.7474C12.4607 16.9695 12.5329 17.1963 12.6446 17.3984C12.8094 17.6965 13.1051 17.8182 13.4283 17.7917C13.7634 17.7641 14.0402 17.5883 14.1707 17.2638C14.2832 16.9841 14.3608 16.6902 14.4495 16.4013C14.5824 15.968 14.7117 15.5337 14.8421 15.0997C14.9516 14.735 15.059 14.3697 15.1701 14.0056C15.2735 13.6665 15.3813 13.3288 15.4856 12.99C15.5576 12.756 15.6273 12.5214 15.6972 12.2868C15.803 11.932 15.9068 11.5766 16.0139 11.2222C16.0787 11.0079 16.1475 10.7947 16.2159 10.5815C16.2248 10.5536 16.2416 10.5284 16.2741 10.4632C16.3832 10.6747 16.4792 10.8561 16.5709 11.0397C16.7267 11.3513 16.8718 11.6685 17.0362 11.9753C17.2183 12.3152 17.5153 12.4678 17.8997 12.4671C19.2045 12.4649 20.5093 12.466 21.8142 12.4666C21.874 12.4666 21.9337 12.4737 22.041 12.4805C21.8143 12.7035 21.6232 12.8951 21.4284 13.0826C20.8556 13.6339 20.28 14.1823 19.7079 14.7344C19.0949 15.3259 18.4858 15.9215 17.873 16.5132C17.2599 17.105 16.6442 17.6941 16.0299 18.2847C15.2349 19.0493 14.4423 19.8165 13.6439 20.5776C13.4138 20.7969 13.1765 21.0108 12.926 21.2059C12.6701 21.4053 12.2731 21.4037 12.0336 21.1997C11.6883 20.9056 11.3539 20.5978 11.0263 20.2839C10.014 19.3142 9.00677 18.3393 7.99841 17.3655C7.05795 16.4573 6.12009 15.5464 5.17819 14.6398C4.48877 13.9762 3.79449 13.3176 3.10324 12.6559C3.05606 12.6107 3.01617 12.5581 2.94922 12.482Z" fill="#0ABAB5"/>
</g>
<defs>
<clipPath id="clip0">
<rect width="24.9559" height="21.355" fill="white" transform="translate(0 -0.000976562)"/>
</clipPath>
</defs>
</svg>
