<svg width="158" height="99" viewBox="0 0 158 99" fill="none" xmlns="http://www.w3.org/2000/svg">
<g filter="url(#filter0_d)">
<path d="M25.9799 -97.2783C32.7441 -102.324 42.1322 -103.703 51.8895 -103.42C61.5536 -103.14 72.5814 -100.811 82.5073 -94.1404C105.358 -78.7835 112.386 -53.2663 124.745 -32.0859C131.524 -20.4708 143.001 -18.4356 153.222 -16.3657C163.577 -14.2692 173.894 -12.649 184.396 -9.47582C194.425 -6.446 206.395 -1.38206 214.803 7.33266C223.422 16.2655 224.655 27.5163 223.066 36.0712C222.293 40.2333 220.897 44.0393 219.412 47.7789C204.687 71.9777 176.709 84.8525 143.926 83.9946C125.54 83.5135 105.213 78.5707 85.901 68.6254C63.732 57.209 44.8312 37.5681 32.178 15.967C20.2942 -4.32087 14.2605 -25.7818 12.135 -45.7924C10.0128 -65.7673 12.0903 -86.9177 25.9799 -97.2783Z" fill="#0ABAB5"/>
</g>
<defs>
<filter id="filter0_d" x="0.423828" y="-111.455" width="234.235" height="209.49" filterUnits="userSpaceOnUse" color-interpolation-filters="sRGB">
<feFlood flood-opacity="0" result="BackgroundImageFix"/>
<feColorMatrix in="SourceAlpha" type="matrix" values="0 0 0 0 0 0 0 0 0 0 0 0 0 0 0 0 0 0 127 0"/>
<feOffset dy="3"/>
<feGaussianBlur stdDeviation="5.5"/>
<feColorMatrix type="matrix" values="0 0 0 0 0 0 0 0 0 0 0 0 0 0 0 0 0 0 0.160784 0"/>
<feBlend mode="normal" in2="BackgroundImageFix" result="effect1_dropShadow"/>
<feBlend mode="normal" in="SourceGraphic" in2="effect1_dropShadow" result="shape"/>
</filter>
</defs>
</svg>
