<svg width="20" height="20" viewBox="0 0 20 20" fill="none" xmlns="http://www.w3.org/2000/svg">
<g clip-path="url(#clip0)">
<path fill-rule="evenodd" clip-rule="evenodd" d="M4.85931 8.84038C4.85931 8.67397 4.85931 8.55666 4.85931 8.43935C4.85931 6.27257 4.85821 4.10582 4.8598 1.93911C4.86068 0.726948 5.58709 0.0020638 6.80047 0.00169759C10.379 0.000782058 13.9576 0.000751541 17.5361 0.00175862C18.7362 0.00212483 19.4582 0.719105 19.4587 1.92101C19.4611 6.68587 19.4612 11.4507 19.4586 16.2156C19.4581 17.4132 18.7312 18.1309 17.5304 18.1315C14.8048 18.1326 12.0792 18.1338 9.35357 18.1278C9.15292 18.1274 9.00918 18.1849 8.85934 18.3188C7.89734 19.1783 6.75793 19.6705 5.49472 19.8787C5.2897 19.9125 5.06411 19.8734 4.8562 19.8296C3.41558 19.5263 2.16537 18.8773 1.19412 17.7499C0.410702 16.8404 -0.00561899 15.7874 5.72802e-05 14.5767C0.00426871 13.6845 -0.000431001 12.7923 0.0011254 11.9002C0.00194937 11.4195 0.0952416 11.3188 0.572079 11.2682C1.6553 11.1534 2.35241 10.4316 2.43148 9.34301C2.45657 8.99697 2.60431 8.84661 2.95041 8.8423C3.4797 8.83583 4.00918 8.84044 4.53863 8.84038C4.63449 8.84038 4.7304 8.84038 4.85931 8.84038ZM5.74347 8.84047C6.40573 8.84047 7.02258 8.83718 7.63937 8.84175C8.00308 8.84444 8.15588 8.99178 8.18917 9.35033C8.29425 10.4825 8.94888 11.149 10.0765 11.272C10.5009 11.3183 10.6128 11.4427 10.6132 11.8768C10.6143 12.7688 10.6091 13.6609 10.6148 14.5529C10.6203 15.4275 10.3889 16.2351 9.95596 16.9899C9.91388 17.0631 9.87609 17.1388 9.81808 17.2475C9.9411 17.2475 10.0268 17.2475 10.1124 17.2475C12.5925 17.2475 15.0726 17.248 17.5527 17.2472C18.2384 17.247 18.5736 16.9104 18.5737 16.2145C18.5749 11.4504 18.5749 6.68627 18.5738 1.92217C18.5736 1.20806 18.2462 0.88628 17.5291 0.88625C13.961 0.885975 10.3928 0.886005 6.82464 0.886189C6.06375 0.886189 5.74377 1.21029 5.74362 1.98241C5.74313 4.14879 5.74347 6.31514 5.74347 8.48159C5.74347 8.58739 5.74347 8.69326 5.74347 8.84047ZM3.28552 9.73677C3.00122 10.9825 2.29602 11.7853 1.05944 12.0899C0.986324 12.1079 0.894802 12.2478 0.893673 12.3321C0.882504 13.1454 0.884152 13.959 0.891995 14.7724C0.897671 15.3726 1.06836 15.9318 1.36169 16.452C1.97152 17.5334 2.90008 18.2391 4.04483 18.668C4.5896 18.8722 5.13919 19.1286 5.74844 18.9311C6.14807 18.8015 6.56088 18.695 6.93722 18.5146C8.42456 17.8021 9.51562 16.7294 9.69525 15.0154C9.79458 14.0668 9.71301 13.0993 9.71301 12.1282C8.3995 11.8507 7.60312 11.0429 7.30536 9.73677H3.28552Z" fill="black"/>
<path d="M12.1424 2.20418C13.1812 2.20418 14.2198 2.2033 15.2584 2.20555C15.3751 2.2058 15.4965 2.20681 15.6073 2.23748C15.824 2.29735 15.9259 2.45705 15.9129 2.67968C15.9005 2.89012 15.7838 3.02684 15.5782 3.07027C15.4741 3.09218 15.364 3.09099 15.2566 3.09105C13.1989 3.09212 11.1412 3.09212 9.08343 3.09163C8.62313 3.09163 8.41812 2.96019 8.40945 2.66368C8.40045 2.35286 8.61779 2.20455 9.08526 2.20436C10.1043 2.20394 11.1235 2.20418 12.1424 2.20418Z" fill="black"/>
<path d="M12.173 6.6366C13.2018 6.63632 14.2307 6.63602 15.2595 6.63681C15.3573 6.63684 15.4569 6.6329 15.5526 6.64902C15.7737 6.68619 15.8997 6.82367 15.9128 7.04764C15.9258 7.2709 15.8202 7.42844 15.604 7.48788C15.4931 7.5184 15.372 7.52142 15.2555 7.52151C13.1978 7.52341 11.1401 7.52286 9.08234 7.52286C9.02356 7.5228 8.96463 7.52515 8.90607 7.52148C8.59027 7.50156 8.40048 7.32355 8.40949 7.05774C8.41809 6.80362 8.60117 6.63995 8.91004 6.63861C9.99768 6.63412 11.0854 6.63684 12.173 6.6366Z" fill="black"/>
<path d="M12.1412 5.30437C11.0827 5.30437 10.0242 5.31066 8.96586 5.29739C8.81397 5.29543 8.62592 5.23904 8.51942 5.13888C8.28074 4.91415 8.43211 4.5024 8.75996 4.43185C8.83537 4.41555 8.91605 4.42083 8.9943 4.42083C11.1112 4.42031 13.228 4.4204 15.345 4.4204C15.3842 4.4204 15.4235 4.419 15.4626 4.42159C15.7377 4.44021 15.9149 4.61294 15.915 4.86172C15.9152 5.11037 15.7385 5.29494 15.4634 5.30065C14.9932 5.31036 14.5227 5.30419 14.0522 5.30437C13.4153 5.30462 12.7782 5.30437 12.1412 5.30437Z" fill="black"/>
<path d="M4.80684 14.8318C5.36834 14.2703 5.90038 13.738 6.43254 13.2058C6.50875 13.1296 6.58211 13.0503 6.66201 12.9782C6.88121 12.7802 7.16005 12.777 7.34432 12.9667C7.52776 13.1553 7.51967 13.3929 7.29915 13.6165C6.67287 14.251 6.04012 14.8789 5.40972 15.5093C5.32662 15.5925 5.24681 15.6795 5.15825 15.7564C4.94066 15.9454 4.73607 15.9562 4.53017 15.7582C4.10659 15.351 3.69124 14.9347 3.28304 14.512C3.08507 14.307 3.09566 14.0662 3.28035 13.886C3.45885 13.7119 3.7061 13.7116 3.90819 13.9096C4.20839 14.2035 4.4955 14.5109 4.80684 14.8318Z" fill="black"/>
</g>
<defs>
<clipPath id="clip0">
<rect width="19.4605" height="19.8905" fill="white" transform="translate(0 0.00100708)"/>
</clipPath>
</defs>
</svg>
