<svg width="16" height="23" viewBox="0 0 16 23" fill="none" xmlns="http://www.w3.org/2000/svg">
<path fill-rule="evenodd" clip-rule="evenodd" d="M8.06232 1C4.16905 1 1 4.16904 1 8.06229C1 14.2918 7.45714 21.7213 7.73121 22.035C7.8157 22.1317 7.93472 22.1867 8.06232 22.1867C8.19856 22.1782 8.30894 22.1317 8.39339 22.035C8.66747 21.7161 15.1246 14.159 15.1246 8.06229C15.1246 4.16904 11.9556 1 8.06232 1Z" stroke="black"/>
<path fill-rule="evenodd" clip-rule="evenodd" d="M8.06242 5.85526C9.52458 5.85526 10.7108 7.0416 10.7108 8.50358C10.7108 9.96578 9.52458 11.1519 8.06242 11.1519C6.60022 11.1519 5.41406 9.96578 5.41406 8.50358C5.41406 7.0416 6.60022 5.85526 8.06242 5.85526Z" stroke="black"/>
</svg>
