<svg width="19" height="17" viewBox="0 0 19 17" fill="none" xmlns="http://www.w3.org/2000/svg">
<path fill-rule="evenodd" clip-rule="evenodd" d="M11.7983 10.3977C11.4553 10.3977 11.1774 10.6756 11.1774 11.0187V14.8615C11.1774 15.204 10.8989 15.4824 10.5564 15.4824H1.8629C1.52037 15.4824 1.24193 15.204 1.24193 14.8615V1.8629C1.24193 1.52037 1.52037 1.24193 1.8629 1.24193H10.5564C10.8989 1.24193 11.1774 1.52037 11.1774 1.8629V5.70568C11.1774 6.0487 11.4553 6.32665 11.7983 6.32665C12.1414 6.32665 12.4193 6.0487 12.4193 5.70568V1.8629C12.4193 0.835575 11.5837 0 10.5564 0H1.8629C0.83557 0 0 0.835575 0 1.8629V14.8615C0 15.8888 0.83557 16.7243 1.8629 16.7243H10.5564C11.5837 16.7243 12.4193 15.8888 12.4193 14.8615V11.0187C12.4193 10.6756 12.1414 10.3977 11.7983 10.3977ZM18.4626 8.3572C18.4623 8.31846 18.4583 8.27946 18.4509 8.24071C18.4464 8.21985 18.439 8.20047 18.433 8.18011C18.4273 8.16197 18.4233 8.14335 18.4159 8.12521C18.4057 8.10013 18.3918 8.07752 18.3786 8.05418C18.3719 8.04225 18.3667 8.02983 18.3592 8.01841C18.3359 7.98314 18.3093 7.95085 18.2795 7.92104L14.7104 4.35173C14.4678 4.10905 14.0748 4.10905 13.8324 4.35173C13.5897 4.59415 13.5897 4.98735 13.8324 5.22977L16.3428 7.74121H5.17439C4.83136 7.74121 4.55342 8.01915 4.55342 8.36217C4.55342 8.7052 4.83136 8.98314 5.17439 8.98314H16.3433L13.8321 11.4943C13.5895 11.737 13.5895 12.1299 13.8321 12.3724C13.9534 12.4936 14.1123 12.5542 14.2713 12.5542C14.4303 12.5542 14.589 12.4936 14.7104 12.3724L18.2815 8.80132C18.285 8.79785 18.2872 8.79362 18.2907 8.79015C18.3155 8.76431 18.3386 8.73674 18.3585 8.70694C18.3697 8.69005 18.3776 8.67167 18.387 8.65403C18.3967 8.63615 18.4077 8.61876 18.4156 8.59988C18.4245 8.57803 18.4298 8.55542 18.4362 8.53307C18.4412 8.51667 18.4474 8.50078 18.4509 8.48364C18.4588 8.44365 18.4633 8.40291 18.4633 8.36193C18.463 8.36043 18.4626 8.35895 18.4626 8.3572Z" fill="black"/>
</svg>
