<svg width="24" height="28" viewBox="0 0 24 28" fill="none" xmlns="http://www.w3.org/2000/svg">
<g clip-path="url(#clip0)">
<path d="M14.8177 17.155C15.0793 16.7577 15.3187 16.3816 15.575 16.0173C15.6186 15.9553 15.7397 15.9057 15.8166 15.9157C17.2805 16.1061 18.5308 15.1517 18.933 13.9092C19.2977 12.7827 19.7361 11.6803 20.1578 10.5244C18.3765 9.87548 16.6083 9.23132 14.7978 8.57165C14.6713 8.9071 14.5486 9.23245 14.4132 9.59155C14.0452 9.22549 13.6996 8.89062 13.3689 8.54162C13.3252 8.49554 13.3311 8.36834 13.3578 8.29455C14.0339 6.42553 14.6868 4.54748 15.4048 2.69456C16.0931 0.918269 17.8516 -0.131688 19.7567 0.0133007C21.5888 0.152766 23.1462 1.51187 23.5726 3.34899C23.7588 4.15161 23.7202 4.94882 23.4405 5.72195C22.3703 8.67968 21.3013 11.638 20.2094 14.5878C19.4152 16.7332 17.0579 17.8873 14.9351 17.2037C14.8932 17.1902 14.8535 17.1699 14.8177 17.155Z" fill="#0ABAB5"/>
<path fill-rule="evenodd" clip-rule="evenodd" d="M13.3614 17.0231C13.0289 16.1979 12.5862 15.4795 11.9712 14.8771C10.7932 13.7232 9.39019 13.1039 7.72899 13.0711C6.83849 13.0536 5.9887 13.2081 5.17486 13.5617C5.01677 13.6304 4.90972 13.6071 4.78917 13.4857C3.5927 12.2807 2.3659 11.1044 1.19893 9.87165C0.0440265 8.65147 -0.283091 7.1865 0.246175 5.59083C0.776876 3.99092 1.9287 3.02644 3.57909 2.73024C4.96483 2.48152 6.22057 2.85865 7.22719 3.84916C9.51119 6.09681 11.7769 8.36338 14.0287 10.6433C15.7412 12.3771 15.4924 15.4355 13.5503 16.9007C13.5003 16.9384 13.4451 16.9691 13.3614 17.0231ZM4.88366 11.6742C4.99108 11.5932 5.03075 11.57 5.06218 11.5386C6.32885 10.2737 7.59325 9.00657 8.86303 7.74485C9.00152 7.60725 8.95559 7.52262 8.84099 7.40876C7.98577 6.55922 7.14599 5.69374 6.27837 4.8571C5.56792 4.17201 4.69591 3.91398 3.73198 4.11177C2.63476 4.33686 1.87871 5.00895 1.54143 6.0774C1.1964 7.17048 1.46367 8.15235 2.25432 8.97798C2.8037 9.55168 3.37883 10.1007 3.93572 10.6673C4.25478 10.992 4.56035 11.3298 4.88366 11.6742Z" fill="#0ABAB5"/>
<path fill-rule="evenodd" clip-rule="evenodd" d="M14.0812 22.7564C14.0633 20.4409 15.8905 18.3812 18.4463 18.3357C20.8746 18.2923 22.8817 20.2877 22.8917 22.7C22.9019 25.1577 20.9433 27.1549 18.5142 27.1638C16.067 27.1727 14.0919 25.2089 14.0812 22.7564ZM21.3088 22.6719C21.1992 22.2641 21.0996 21.9234 21.0178 21.5785C20.9733 21.3903 20.8843 21.354 20.7062 21.4065C20.2962 21.5271 19.8814 21.6317 19.4685 21.7421C18.2817 22.0595 17.0961 22.3811 15.9071 22.6892C15.6953 22.744 15.647 22.8313 15.7119 23.0333C15.801 23.3101 15.874 23.5927 15.9385 23.8763C15.9868 24.0885 16.0751 24.1511 16.3008 24.0872C17.2111 23.8293 18.127 23.5906 19.0411 23.3459C19.7091 23.1671 20.3783 22.9928 21.0449 22.8093C21.1414 22.7828 21.2265 22.7158 21.3088 22.6719Z" fill="#0ABAB5"/>
<path fill-rule="evenodd" clip-rule="evenodd" d="M7.57011 24.3986C4.69646 24.387 2.40385 22.0607 2.42198 19.1749C2.43962 16.3682 4.77312 14.0578 7.58177 14.0661C10.4985 14.0747 12.7793 16.383 12.763 19.3098C12.7474 22.1296 10.4203 24.4101 7.57011 24.3986ZM11.3224 19.2434C11.3256 17.183 9.65953 15.5084 7.60439 15.5063C5.54106 15.5043 3.8792 17.1628 3.87584 19.2274C3.87236 21.2924 5.52605 22.9584 7.58849 22.9678C9.63762 22.977 11.3191 21.2998 11.3224 19.2434Z" fill="#0ABAB5"/>
<path d="M5.21289 20.5859C6.4567 19.3423 7.71353 18.0858 8.96658 16.833C9.30234 17.1701 9.64841 17.5175 9.97156 17.8419C8.72284 19.0904 7.46216 20.3509 6.20831 21.6046C5.89465 21.2835 5.55276 20.9337 5.21289 20.5859Z" fill="#0ABAB5"/>
</g>
<defs>
<clipPath id="clip0">
<rect width="23.6872" height="27.1639" fill="white"/>
</clipPath>
</defs>
</svg>
