<svg width="17" height="17" viewBox="0 0 17 17" fill="none" xmlns="http://www.w3.org/2000/svg">
<g clip-path="url(#clip0)">
<path fill-rule="evenodd" clip-rule="evenodd" d="M8.35738 0C3.74908 0 0 3.74908 0 8.35738C0 12.9657 3.74908 16.7148 8.35738 16.7148C12.9657 16.7148 16.7148 12.9655 16.7148 8.35738C16.7148 3.74927 12.9655 0 8.35738 0ZM8.35738 15.5688C4.38109 15.5688 1.14594 12.3337 1.14594 8.3572C1.14594 4.3809 4.38109 1.14575 8.35738 1.14575C12.3339 1.14575 15.569 4.3809 15.569 8.3572C15.5688 12.3339 12.3339 15.5688 8.35738 15.5688Z" fill="black"/>
<path fill-rule="evenodd" clip-rule="evenodd" d="M8.51418 8.83231C9.94405 8.83231 11.1075 7.66889 11.1075 6.23903C11.1075 4.8086 9.94405 3.645 8.51418 3.645C7.08413 3.645 5.9209 4.80879 5.9209 6.23903C5.92072 7.66889 7.08413 8.83231 8.51418 8.83231ZM8.51418 4.79057C9.31241 4.79057 9.96172 5.44024 9.96172 6.23884C9.96172 7.03708 9.31241 7.68637 8.51418 7.68637C7.71595 7.68637 7.06665 7.03689 7.06665 6.23884C7.06665 5.44042 7.71595 4.79057 8.51418 4.79057Z" fill="black"/>
<path d="M13.4633 11.0295C12.9347 9.66673 11.9184 8.92725 10.4424 8.83224C10.3059 8.8235 10.1728 8.86311 10.064 8.94399C9.60417 9.28537 9.06811 9.46592 8.51364 9.46592C7.95973 9.46592 7.42274 9.28519 6.96068 8.94343C6.85172 8.86292 6.71655 8.82332 6.58286 8.83224C5.09907 8.92856 4.08031 9.67566 3.55485 11.0531C3.44217 11.3487 3.59017 11.6797 3.88582 11.7926C3.95294 11.8182 4.02192 11.8303 4.08998 11.8303C4.32073 11.8303 4.53828 11.6899 4.62529 11.4616C4.96835 10.5624 5.53956 10.1035 6.46386 9.99324C7.08192 10.3986 7.78607 10.6117 8.51364 10.6117C9.24196 10.6117 9.94556 10.3986 10.5619 9.99324C11.4809 10.1022 12.0504 10.5557 12.3949 11.4439C12.5093 11.739 12.8408 11.8852 13.1363 11.7708C13.4313 11.6563 13.5777 11.3246 13.4633 11.0295Z" fill="black"/>
</g>
<defs>
<clipPath id="clip0">
<rect width="16.7148" height="16.7148" fill="white"/>
</clipPath>
</defs>
</svg>
