<svg width="16" height="18" viewBox="0 0 16 18" fill="none" xmlns="http://www.w3.org/2000/svg">
<path fill-rule="evenodd" clip-rule="evenodd" d="M8 0C4.91565 0 2.39999 2.51566 2.39999 5.60001C2.39999 7.51566 3.375 9.21565 4.85 10.225C1.9875 11.4438 0 14.2875 0 17.6H1.6C1.6 14.0282 4.42815 11.2 8 11.2C11.5719 11.2 14.4 14.0282 14.4 17.6H16C16 14.2875 14.0125 11.4438 11.15 10.225C12.625 9.21565 13.6 7.51566 13.6 5.60001C13.6 2.51566 11.0844 0 8 0ZM8 1.60001C10.2188 1.60001 12 3.38126 12 5.60001C12 7.81876 10.2188 9.60001 8 9.60001C5.78125 9.60001 4 7.81876 4 5.60001C4 3.38126 5.78125 1.60001 8 1.60001Z" fill="black"/>
</svg>
