<svg width="15" height="19" viewBox="0 0 15 19" fill="none" xmlns="http://www.w3.org/2000/svg">
<path fill-rule="evenodd" clip-rule="evenodd" d="M12.4703 1H4.82334C3.98217 1 3.29395 1.68823 3.29395 2.5294V4.8235H4.82334V3.2941H12.4703V15.5293H4.82334V13.9999H3.29395V16.294C3.29395 17.1352 3.98217 17.8234 4.82334 17.8234H12.4703C13.3115 17.8234 13.9997 17.1352 13.9997 16.294V2.5294C13.9997 1.68823 13.3115 1 12.4703 1Z" stroke="black"/>
<path fill-rule="evenodd" clip-rule="evenodd" d="M6.19996 8.647V7.49994C6.19996 6.42937 5.12938 5.5882 4.0588 5.5882C2.98822 5.5882 1.91764 6.42937 1.91764 7.49994V8.647C1.45882 8.647 1 9.10581 1 9.56463V12.2411C1 12.7764 1.45882 13.2352 1.91764 13.2352H6.12349C6.65878 13.2352 7.1176 12.7764 7.1176 12.3176V9.6411C7.1176 9.10581 6.65878 8.647 6.19996 8.647Z" stroke="black"/>
<path fill-rule="evenodd" clip-rule="evenodd" d="M5.20572 8.647H2.91162V7.49995C2.91162 6.88819 3.44691 6.50584 4.05867 6.50584C4.67043 6.50584 5.20572 6.88819 5.20572 7.49995V8.647Z" stroke="black"/>
</svg>
