<svg width="58" height="46" viewBox="0 0 58 46" fill="none" xmlns="http://www.w3.org/2000/svg">
<g clip-path="url(#clip0)">
<path d="M0.973558 2.45439C1.78935 0.488867 4.57067 0.207394 6.04481 1.57659C13.6493 7.47794 21.2633 13.365 28.8678 19.2616C36.105 13.6512 43.3564 8.06473 50.5745 2.43531C51.6193 1.65292 52.6831 0.565197 54.1144 0.741712C55.8557 0.646297 57.2392 2.44008 57.0865 4.0812C56.8098 5.67462 55.3261 6.53334 54.1668 7.44932C47.3924 12.6637 40.6467 17.9162 33.8914 23.1497C41.1094 28.7409 48.318 34.337 55.5456 39.9187C56.4377 40.5818 57.1533 41.598 57.1151 42.7572C56.8766 44.1885 55.7412 45.6435 54.1573 45.5433C52.5925 45.7485 51.4714 44.5081 50.3312 43.6684C43.1847 38.1106 36.0286 32.5766 28.8678 27.0378C21.2538 32.9296 13.6398 38.8214 6.03527 44.7275C4.76149 45.8725 2.39523 45.925 1.35999 44.4413C0.334286 43.1866 0.572819 41.0923 1.91339 40.1524C9.21255 34.4705 16.5451 28.8268 23.8491 23.1497C16.6262 17.5441 9.40338 11.9433 2.16623 6.35682C0.892456 5.53626 0.367681 3.84743 0.973558 2.45439Z" fill="#0ABAB5"/>
<path d="M15.4864 1.04262C15.8967 0.389035 16.7888 0.775461 17.4186 0.651425C25.7148 0.756378 34.0206 0.522614 42.3121 0.775461C42.2739 3.26576 42.2882 5.75607 42.2978 8.24638C41.5822 8.795 40.8665 9.33886 40.1557 9.88272C40.1271 7.50214 40.1366 5.1168 40.1366 2.73145C32.6228 2.73145 25.1089 2.73145 17.5903 2.73145C17.5903 5.12157 17.6094 7.50691 17.5665 9.89227C16.8509 9.15281 15.3815 8.73775 15.4578 7.49261C15.434 5.34579 15.391 3.18943 15.4864 1.04262Z" fill="#0ABAB5"/>
<path d="M20.6716 6.80483C24.1065 6.79528 27.5414 6.80005 30.9763 6.80483C30.9715 7.50134 30.9667 8.19787 30.9572 8.88962C27.4985 8.79897 24.0206 9.09476 20.5762 8.71787C20.6 8.2408 20.6477 7.28667 20.6716 6.80483Z" fill="#0ABAB5"/>
<path d="M32.9609 7.35415C34.1631 6.32845 35.8806 6.81506 37.2402 7.23011C37.3929 9.08114 35.2795 9.0716 34.0009 8.85215C33.1851 8.79013 32.7796 8.13177 32.9609 7.35415Z" fill="#0ABAB5"/>
<path d="M21.5161 12.9503C24.6648 12.9408 27.8182 12.9455 30.9716 12.9455C30.9716 13.6134 30.9716 14.2813 30.9716 14.9492C28.6817 14.9492 26.3918 14.954 24.1018 14.9349C23.2431 14.2718 22.3748 13.6134 21.5161 12.9503Z" fill="#0ABAB5"/>
<path d="M32.9231 13.575C33.7246 12.5731 35.1272 13.0788 36.2244 12.9214C35.3275 13.637 34.4163 14.3383 33.5051 15.0396C33.3572 14.6722 33.0662 13.9423 32.9231 13.575Z" fill="#0ABAB5"/>
<path d="M15.6199 17.3242C16.2735 17.8585 16.9223 18.3976 17.5759 18.9272C17.6045 21.7514 17.5902 24.5805 17.5854 27.4047C16.8841 27.9199 16.1781 28.4304 15.4672 28.9361C15.5102 25.0671 15.2621 21.1837 15.6199 17.3242Z" fill="#0ABAB5"/>
<path d="M40.1408 18.904C40.8468 18.3792 41.5577 17.8545 42.2685 17.3345C42.3019 21.213 42.3019 25.0916 42.2685 28.9654C41.5577 28.4454 40.8468 27.9159 40.1408 27.3911C40.136 24.5621 40.136 21.7331 40.1408 18.904Z" fill="#0ABAB5"/>
<path d="M24.0975 31.3458C26.3875 31.3219 28.6822 31.3315 30.9721 31.3315C30.9721 32.0089 30.9721 32.6816 30.9721 33.359C27.8234 33.3542 24.6748 33.3638 21.5261 33.3495C22.3848 32.6816 23.2436 32.0232 24.0975 31.3458Z" fill="#0ABAB5"/>
<path d="M32.9231 32.7096C33.0662 32.3423 33.3572 31.6076 33.5051 31.2402C34.4116 31.9511 35.318 32.6571 36.2197 33.3775C35.1272 33.2058 33.696 33.7544 32.9231 32.7096Z" fill="#0ABAB5"/>
<path d="M15.5007 38.2733C15.9253 37.4241 16.8937 37.0234 17.5664 36.3984C17.6093 38.7838 17.5902 41.1644 17.5902 43.5497C25.1088 43.5497 32.6227 43.5545 40.1365 43.5497C40.1365 41.1691 40.127 38.7933 40.1556 36.4128C40.8665 36.9566 41.5821 37.5052 42.2929 38.0539C42.2929 40.5394 42.2738 43.0202 42.312 45.5057C34.0157 45.7586 25.71 45.52 17.4137 45.6297C16.7935 45.5105 15.8966 45.873 15.4816 45.2433C15.4148 42.9248 15.3862 40.5919 15.5007 38.2733Z" fill="#0ABAB5"/>
<path d="M20.6382 37.5239C24.0826 37.4809 27.5318 37.4619 30.9763 37.5191C30.9715 38.1775 30.9715 38.8358 30.9667 39.4989C27.5271 39.4989 24.0874 39.5037 20.6477 39.4942C20.643 38.8358 20.643 38.1822 20.6382 37.5239Z" fill="#0ABAB5"/>
<path d="M33.3524 37.7001C34.5213 37.3661 35.962 37.2755 37.064 37.8909C37.6365 39.7276 35.2416 39.6179 34.0823 39.4891C33.1044 39.6036 32.4365 38.1724 33.3524 37.7001Z" fill="#0ABAB5"/>
</g>
<defs>
<clipPath id="clip0">
<rect width="56.3944" height="44.9813" fill="white" transform="translate(0.722168 0.648438)"/>
</clipPath>
</defs>
</svg>
