<svg width="42" height="41" viewBox="0 0 42 41" fill="none" xmlns="http://www.w3.org/2000/svg">
<path d="M21.2795 0C32.5791 0 41.7392 9.16012 41.7392 20.4597C41.7392 31.7593 32.5791 40.9194 21.2795 40.9194C9.97994 40.9194 0.819824 31.7593 0.819824 20.4597C0.819824 9.16012 9.97994 0 21.2795 0Z" fill="#0ABAB5"/>
<path d="M27.472 38.4914C25.5293 39.0985 23.5258 39.3413 21.5223 39.2199C16.9689 38.9771 13.0227 37.2164 9.68362 33.9987C3.18749 27.7455 2.27685 17.4246 7.61941 10.1392C13.6298 1.82176 23.465 1.27536 29.1112 3.76452C21.158 1.88248 14.4798 3.70381 9.38006 10.1392C6.40521 13.9033 5.37312 18.2745 5.91952 23.01C7.01231 33.2702 17.1511 40.7377 27.472 38.4914Z" fill="white" stroke="white" stroke-width="1.5" stroke-linejoin="round"/>
<path d="M13.9937 13.6604C16.6042 12.6891 19.0934 11.7177 21.8254 11.2927C22.8575 11.1106 23.8896 10.9892 24.9217 11.232C26.0145 11.4748 26.5002 12.2034 26.2573 13.2962C25.8931 14.9354 24.9824 16.3925 24.0717 17.7888C23.1611 19.1245 22.0682 20.3387 21.1576 21.6136C21.0968 21.6743 21.0361 21.735 20.9754 21.7958C20.0648 23.0707 20.3076 23.9814 21.704 24.6492C23.0396 25.2563 24.436 25.6206 25.7716 26.167C26.6216 26.5312 27.5322 26.8348 28.2608 27.4419C29.2322 28.2311 29.4143 29.0811 28.6858 30.1739C28.1394 30.9632 27.4108 31.5703 26.6823 32.1774C25.1038 33.3309 23.4039 34.3023 21.704 35.1522C21.5218 35.2737 21.3397 35.3344 21.0968 35.2129C21.8861 34.5451 22.6754 33.9987 23.4039 33.2702C23.8896 32.7238 24.3753 32.1774 24.6788 31.5096C25.0431 30.6596 24.861 30.0525 24.1324 29.5061C23.4646 29.0204 22.6754 28.7168 21.8861 28.4133C20.4291 27.8062 18.9113 27.3205 17.5756 26.5312C16.6042 25.9241 15.8757 25.1956 15.9364 23.9206C15.9971 23.1314 16.4221 22.5243 16.8471 21.9779C18.2434 20.278 19.7612 18.6995 20.9754 16.9389C21.4004 16.3317 21.8254 15.6639 22.0683 14.9354C22.4325 13.9033 22.0683 13.2962 20.9754 13.0533C19.7005 12.8105 18.4256 13.0533 17.1507 13.2962C16.3614 13.4176 15.5722 13.6604 14.7829 13.8426C14.54 13.7212 14.3579 13.8426 13.9937 13.6604Z" fill="white"/>
<path d="M26.4399 9.71387C26.4399 8.31752 27.5934 7.164 29.0505 7.164C30.4469 7.164 31.6004 8.31752 31.6004 9.71387C31.6004 11.1709 30.3862 12.3245 28.9898 12.2637C27.5328 12.3245 26.4399 11.1709 26.4399 9.71387Z" fill="white"/>
<path d="M19.73 15.2006C19.73 14.9971 19.8981 14.829 20.1104 14.829C20.314 14.829 20.4821 14.9971 20.4821 15.2006C20.4821 15.413 20.3051 15.5811 20.1016 15.5723C19.8893 15.5811 19.73 15.413 19.73 15.2006Z" fill="#F1D427"/>
<path d="M17.5337 16.9148C17.5337 16.6362 17.7639 16.406 18.0546 16.406C18.3332 16.406 18.5633 16.6362 18.5633 16.9148C18.5633 17.2055 18.3211 17.4357 18.0424 17.4235C17.7517 17.4357 17.5337 17.2055 17.5337 16.9148Z" fill="#F1D427"/>
<path d="M15.689 18.9721C15.689 18.6232 15.9772 18.335 16.3412 18.335C16.6901 18.335 16.9783 18.6232 16.9783 18.9721C16.9783 19.3362 16.675 19.6244 16.3261 19.6092C15.962 19.6244 15.689 19.3362 15.689 18.9721Z" fill="#F1D427"/>
<path d="M13.5806 21.7151C13.5806 21.3383 13.8918 21.027 14.285 21.027C14.6618 21.027 14.973 21.3383 14.973 21.7151C14.973 22.1082 14.6454 22.4195 14.2686 22.4031C13.8755 22.4195 13.5806 22.1082 13.5806 21.7151Z" fill="#F1D427"/>
<path d="M13.2178 24.8006C13.2178 24.4131 13.5379 24.093 13.9422 24.093C14.3297 24.093 14.6497 24.4131 14.6497 24.8006C14.6497 25.2049 14.3128 25.525 13.9253 25.5081C13.5211 25.525 13.2178 25.2049 13.2178 24.8006Z" fill="#F1D427"/>
<path d="M15.0776 27.201C15.0776 26.8921 15.3328 26.637 15.655 26.637C15.9639 26.637 16.2189 26.8921 16.2189 27.201C16.2189 27.5232 15.9504 27.7783 15.6416 27.7649C15.3194 27.7783 15.0776 27.5232 15.0776 27.201Z" fill="#F1D427"/>
<path d="M17.2129 28.5726C17.2129 28.3061 17.433 28.086 17.7111 28.086C17.9776 28.086 18.1977 28.3061 18.1977 28.5726C18.1977 28.8507 17.966 29.0708 17.6995 29.0592C17.4215 29.0708 17.2129 28.8507 17.2129 28.5726Z" fill="#F1D427"/>
<path d="M19.333 29.9436C19.333 29.7111 19.5251 29.519 19.7677 29.519C20.0002 29.519 20.1923 29.7111 20.1923 29.9436C20.1923 30.1862 19.9901 30.3783 19.7576 30.3682C19.515 30.3783 19.333 30.1862 19.333 29.9436Z" fill="#F1D427"/>
<path d="M21.3696 31.315C21.3696 31.0713 21.571 30.87 21.8252 30.87C22.0689 30.87 22.2702 31.0713 22.2702 31.315C22.2702 31.5693 22.0584 31.7706 21.8147 31.76C21.5604 31.7706 21.3696 31.5693 21.3696 31.315Z" fill="#F1D427"/>
<path d="M20.791 33.0298C20.791 32.8443 20.9443 32.691 21.1379 32.691C21.3234 32.691 21.4766 32.8443 21.4766 33.0298C21.4766 33.2234 21.3154 33.3766 21.1298 33.3686C20.9362 33.3766 20.791 33.2234 20.791 33.0298Z" fill="#F1D427"/>
<path d="M19.876 34.4015C19.876 34.2775 19.9784 34.175 20.1078 34.175C20.2319 34.175 20.3343 34.2775 20.3343 34.4015C20.3343 34.5309 20.2265 34.6334 20.1025 34.628C19.9731 34.6334 19.876 34.5309 19.876 34.4015Z" fill="#F1D427"/>
<path d="M26.0149 17.424C26.0756 17.7883 26.1363 18.0918 26.2577 18.4561C26.5613 19.4882 27.2898 19.8525 28.3826 19.5489C29.2933 19.3061 30.0218 18.7597 30.7504 18.2133C30.9325 18.0918 31.1754 17.9097 31.3575 17.7276C31.3575 17.849 31.4182 17.849 31.4182 17.9097C30.204 19.2453 28.9897 20.5203 27.3505 21.3095C26.3791 21.7952 25.7721 21.431 25.6506 20.3382C25.4685 19.4275 25.7114 18.3954 26.0149 17.424Z" fill="#F1D427"/>
</svg>
