<svg width="29" height="27" viewBox="0 0 29 27" fill="none" xmlns="http://www.w3.org/2000/svg">
<path d="M14.0883 26.6984C12.3014 26.6984 10.5133 26.6649 8.72776 26.7156C8.05069 26.7349 7.84171 26.565 7.85127 25.8684C7.8905 22.9779 7.85381 20.0863 7.88094 17.1956C7.88796 16.4462 7.7262 16.1496 6.87059 15.9595C5.27665 15.606 3.62436 15.2875 2.19666 14.4232C1.37206 13.9238 0.793724 13.1574 0.740853 12.1394C0.709435 11.5375 0.852845 10.9125 1.47529 10.6698C2.08738 10.4311 2.75275 10.1773 3.36523 10.781C3.95606 11.3636 4.59333 11.2969 5.16874 10.7484C5.3826 10.5447 5.54084 10.3578 5.88269 10.3556C7.24641 10.3469 8.61011 10.2702 9.97342 10.2787C10.9572 10.2848 11.5127 10.8926 11.4768 11.798C11.4419 12.6826 10.9203 13.0723 9.86806 13.0107C8.14981 12.91 6.43157 12.8101 4.71275 12.7205C4.47176 12.708 4.09558 12.6046 4.07196 12.9554C4.04933 13.291 4.41304 13.2577 4.66591 13.2698C6.48289 13.3572 8.29966 13.446 10.1166 13.5295C10.44 13.5443 10.8521 13.6177 11.0454 13.364C11.718 12.4825 12.5623 12.7564 13.4216 12.8799C13.7978 12.9342 14.2571 12.958 14.5716 12.7925C15.5683 12.2684 16.3492 12.3997 17.2198 13.1398C18.0417 13.8385 19.1502 14.0064 20.2206 14.0645C21.2831 14.1223 22.1549 14.5135 22.8762 15.2918C24.4212 16.9584 25.988 18.6046 27.5275 20.2762C28.4263 21.252 28.2175 22.4052 27.0239 22.9837C25.1586 23.8879 23.277 24.7593 21.3939 25.6265C20.7168 25.9383 19.8801 25.5652 19.5508 24.851C19.2093 24.1101 19.4959 23.2984 20.3032 22.8996C21.3755 22.3697 22.4633 21.8684 23.5609 21.3929C24.0789 21.1687 24.2339 20.9624 23.782 20.5025C22.895 19.5995 22.0407 18.6643 21.1652 17.7498C21.0161 17.5941 20.8868 17.3232 20.6226 17.4134C20.2998 17.5232 20.3976 17.8434 20.3962 18.0889C20.39 19.2581 20.3952 20.4274 20.3972 21.5966C20.3978 21.9512 20.3884 22.2198 19.9974 22.4795C18.4433 23.5125 18.4735 25.0097 20.0163 26.0524C20.198 26.1753 20.4803 26.2253 20.3471 26.5306C20.228 26.8034 19.9554 26.7022 19.7418 26.7027C17.8573 26.7078 15.9728 26.7057 14.0883 26.7057V26.6984Z" fill="#0ABAB5"/>
<path d="M13.6051 12.3437C12.7778 12.3014 11.9317 12.4003 11.9111 11.1039C11.9005 10.4506 11.2859 9.91346 10.6123 9.82254C9.91282 9.7283 9.81292 9.30001 9.87086 8.8157C10.1111 6.81026 10.5922 4.86059 11.9975 3.32713C13.1152 2.10782 15.0182 1.91524 16.4603 2.72559C17.9555 3.56596 18.7662 5.29005 18.2687 6.90859C17.8385 8.30742 17.4373 9.74956 16.546 10.9501C15.8301 11.9144 14.8301 12.3935 13.6051 12.3437Z" fill="#0ABAB5"/>
<path fill-rule="evenodd" clip-rule="evenodd" d="M7.73207 4.17589C7.75997 4.57549 7.6509 4.94779 7.50748 5.31129C6.83705 7.01062 5.82592 8.51461 4.80075 10.0096C4.47099 10.4906 4.0909 10.5909 3.73032 10.0613C2.69286 8.53821 1.61462 7.03304 0.981056 5.28126C0.294228 3.38193 1.34457 1.34545 3.25149 0.815703C5.19705 0.275207 7.2671 1.4797 7.67509 3.40106C7.72836 3.65198 7.71469 3.91735 7.73207 4.17589ZM4.22534 6.3312C5.44251 6.34369 6.39939 5.40983 6.41109 4.19813C6.4228 3.01901 5.42086 1.99658 4.26086 2.00398C3.0636 2.0116 2.09091 2.96985 2.07159 4.16028C2.05247 5.34798 3.01559 6.3189 4.22534 6.3312Z" fill="#0ABAB5"/>
</svg>
