<svg width="52" height="54" viewBox="0 0 52 54" fill="none" xmlns="http://www.w3.org/2000/svg">
<g clip-path="url(#clip0)">
<path fill-rule="evenodd" clip-rule="evenodd" d="M39.8229 1.3555C39.1911 1.3555 38.556 1.5998 38.0757 2.09501C37.605 2.57371 37.3471 3.21088 37.3471 3.88766C37.3471 4.56445 37.605 5.20161 38.0757 5.68032L39.8229 7.47297L35.1549 12.2534L31.0705 8.07052C30.1034 7.0834 28.5334 7.0834 27.5695 8.07052C26.6024 9.05763 26.6024 10.6654 27.5695 11.6558L28.153 12.2567L9.31018 31.5533C8.10773 32.7814 7.76601 34.607 8.43332 36.2049L8.97491 37.4958C9.12643 37.859 9.29728 38.2089 9.47459 38.5522L7.72732 40.3416C7.25987 40.8203 7.00197 41.4574 7.00197 42.1342C7.00197 42.811 7.25987 43.4482 7.72732 43.9269L8.31082 44.5244L0.241785 52.7878C-0.0805949 53.1179 -0.0805949 53.6528 0.241785 53.9829C0.402972 54.1479 0.61251 54.2304 0.825278 54.2304C1.03804 54.2304 1.24759 54.1479 1.40878 53.9862L9.47781 45.7195L10.0613 46.3171C10.5288 46.7957 11.151 47.0598 11.8118 47.0598C12.4726 47.0598 13.0949 46.7957 13.5623 46.3171L15.3095 44.531C15.6481 44.7126 15.9898 44.8876 16.3411 45.0394L17.6017 45.594C18.1303 45.8284 18.688 45.9408 19.2361 45.9408C20.3064 45.9408 21.3509 45.5115 22.1439 44.6994L40.99 25.3995L41.5734 25.997C42.057 26.4923 42.6921 26.7365 43.324 26.7365C43.959 26.7365 44.5909 26.4923 45.0777 25.997C46.0416 25.01 46.0383 23.4022 45.0745 22.415L40.99 18.2289L45.6579 13.4485L47.4085 15.2411C47.8759 15.7198 48.498 15.9839 49.1589 15.9839C49.8198 15.9839 50.442 15.7198 50.9094 15.2411C51.8765 14.254 51.8765 12.6462 50.9094 11.6558L41.5734 2.09501C41.0931 1.5998 40.4581 1.3522 39.8229 1.3555ZM39.8229 3.04251C40.0357 3.04251 40.2453 3.12505 40.4097 3.29012L49.7457 12.8509C50.0648 13.1811 50.0648 13.7192 49.7457 14.046C49.433 14.3663 48.8881 14.3663 48.5754 14.046L46.8249 12.2567L45.2066 10.5961L39.2394 4.48522C39.0847 4.32675 38.9976 4.11216 38.9976 3.88766C38.9976 3.66317 39.0847 3.44858 39.2394 3.29012C39.4039 3.12505 39.6134 3.04251 39.8229 3.04251ZM40.9932 8.66807L42.7437 10.4607L44.4909 12.2567L39.8229 17.0371L36.322 13.4485L40.9932 8.66807ZM29.32 9.01801C29.5295 9.01801 29.7423 9.10056 29.9035 9.26562L33.988 13.4485L39.8229 19.4273L43.9074 23.6068C44.2298 23.9369 44.2298 24.4751 43.9074 24.8052C43.5882 25.1321 43.0629 25.1354 42.7405 24.8052L28.7365 10.464C28.4141 10.1339 28.4141 9.59576 28.7332 9.26562C28.8945 9.10056 29.1072 9.01801 29.32 9.01801ZM29.32 13.4485L39.8229 24.2077L20.9801 43.5043C20.2612 44.2405 19.1909 44.4518 18.2529 44.0424L16.9924 43.4878C14.0587 42.2002 11.7505 39.8364 10.4933 36.8289L9.95173 35.5381C9.54879 34.5806 9.75511 33.4845 10.4739 32.745L29.32 13.4485ZM29.32 16.1919C29.1105 16.1919 28.8977 16.2712 28.7365 16.4362C28.4141 16.7663 28.4141 17.3045 28.7365 17.6346L29.9035 18.8264C30.0647 18.9915 30.2742 19.074 30.4869 19.074C30.6998 19.074 30.9093 18.9915 31.0705 18.8264C31.3929 18.4996 31.3929 17.9648 31.0705 17.6346L29.9035 16.4362C29.7423 16.2712 29.5295 16.1919 29.32 16.1919ZM26.3992 19.1797C26.1897 19.1797 25.9802 19.2589 25.8158 19.4273C25.4934 19.7574 25.4934 20.2889 25.8158 20.6191L29.32 24.2077C29.4811 24.3727 29.6908 24.4553 29.9035 24.4553C30.1163 24.4553 30.3258 24.3727 30.4869 24.2077C30.8093 23.8776 30.8093 23.3427 30.4869 23.0126L26.986 19.4273C26.8216 19.2589 26.612 19.1797 26.3992 19.1797ZM23.4818 22.1641C23.2722 22.1641 23.0627 22.2466 22.9015 22.415C22.5759 22.7452 22.5759 23.2767 22.9015 23.6068L24.0652 24.8052C24.2265 24.967 24.4392 25.0529 24.652 25.0529C24.8615 25.0529 25.0743 24.967 25.2355 24.8052C25.5579 24.4718 25.5579 23.9403 25.2355 23.6068L24.0652 22.415C23.9041 22.2466 23.6946 22.1641 23.4818 22.1641ZM20.5675 25.1519C20.3548 25.1519 20.1452 25.2345 19.984 25.3995C19.6585 25.7329 19.6585 26.2645 19.984 26.5979L23.4818 30.1832C23.643 30.3483 23.8557 30.4308 24.0652 30.4308C24.2781 30.4308 24.4908 30.3483 24.652 30.1832C24.9744 29.853 24.9744 29.3183 24.652 28.9881L21.1478 25.3995C20.9866 25.2345 20.777 25.1519 20.5675 25.1519ZM17.65 28.143C17.4372 28.143 17.2277 28.2222 17.0633 28.3872C16.7409 28.7174 16.7409 29.2522 17.0633 29.5856L18.2335 30.7808C18.3914 30.9458 18.6043 31.0283 18.8138 31.0283C19.0266 31.0283 19.2393 30.9458 19.3973 30.7808C19.7229 30.4507 19.7229 29.9158 19.3973 29.5856L18.2335 28.3872C18.0691 28.2222 17.8596 28.143 17.65 28.143ZM14.7293 31.1307C14.5197 31.1307 14.3102 31.2132 14.1458 31.3783C13.8234 31.7085 13.8234 32.2432 14.1458 32.5734L17.65 36.1587C17.808 36.3237 18.0208 36.4064 18.2335 36.4064C18.443 36.4064 18.6558 36.3237 18.8138 36.1587C19.1394 35.8286 19.1394 35.2937 18.8138 34.9636L15.316 31.3783C15.1516 31.2132 14.9421 31.1307 14.7293 31.1307ZM11.8118 34.1184C11.6023 34.1184 11.3928 34.201 11.2315 34.366C10.906 34.6962 10.906 35.2311 11.2315 35.5612L12.3953 36.7562C12.5565 36.9214 12.7692 37.0039 12.982 37.0039C13.1916 37.0039 13.4044 36.9214 13.5655 36.7562C13.8879 36.4261 13.8879 35.8913 13.5655 35.5612L12.3953 34.366C12.2341 34.201 12.0246 34.1184 11.8118 34.1184ZM10.3579 40.0411C11.3089 41.4409 12.492 42.6526 13.8589 43.6264L12.3953 45.1253C12.0858 45.4422 11.541 45.4422 11.2315 45.1253L8.89754 42.7351C8.73958 42.5733 8.65253 42.362 8.65253 42.1342C8.65253 41.9097 8.73958 41.6984 8.89754 41.5367L10.3579 40.0411Z" fill="white"/>
</g>
<defs>
<clipPath id="clip0">
<rect width="51.6347" height="52.875" fill="white" transform="translate(0 0.947266)"/>
</clipPath>
</defs>
</svg>
