<svg width="28" height="32" viewBox="0 0 28 32" fill="none" xmlns="http://www.w3.org/2000/svg">
<g clip-path="url(#clip0)">
<g clip-path="url(#clip1)">
<path d="M13.2561 31.2297C11.448 31.2305 9.63931 31.2035 7.83218 31.2454C7.22159 31.2595 7.06668 31.0731 7.08322 30.4836C7.1113 29.4877 7.04752 28.4993 7.50644 27.5589C7.84439 26.8663 7.92777 26.0479 7.59653 25.3934C6.95895 24.1343 7.10257 22.8235 7.1041 21.5197C7.10489 20.9398 6.98239 20.6951 6.36984 20.5387C4.7869 20.1344 3.20651 19.6947 1.69711 19.0517C0.693024 18.6238 0.111664 17.8506 0.00955242 16.7655C-0.0755306 15.8621 0.412446 15.196 1.28604 15.1576C3.96152 15.04 6.63962 14.9611 9.31741 14.9241C10.1878 14.9121 10.7592 15.6305 10.6982 16.4547C10.6372 17.2826 10.1182 17.6862 9.14786 17.6345C7.43973 17.5436 5.73245 17.4382 4.02451 17.3461C3.74954 17.3312 3.3364 17.2273 3.31973 17.6143C3.30734 17.9037 3.70615 17.8711 3.95847 17.8837C5.69913 17.9707 7.43973 18.0577 9.18063 18.1393C9.84341 18.1703 10.4912 18.1174 10.8812 17.476C11.0695 17.1659 11.2968 17.2564 11.537 17.3328C12.6366 17.6826 13.7103 17.568 14.7272 17.074C15.0785 16.9033 15.2741 16.8952 15.5586 17.1725C16.4481 18.0399 17.5851 18.5446 18.7724 18.581C20.6069 18.6372 21.8076 19.5635 22.9192 20.8685C24.0672 22.2162 25.3471 23.4504 26.5381 24.7626C27.604 25.937 27.3381 26.9178 25.8725 27.5941C24.2775 28.3304 22.7091 29.1234 21.1256 29.8842C19.9375 30.4553 19.1593 30.3024 18.7273 29.429C18.2905 28.5455 18.659 27.8195 19.8393 27.2631C20.7699 26.8248 21.6977 26.3792 22.6415 25.9715C23.1898 25.7345 23.3528 25.5194 22.8553 25.0256C21.9861 24.1628 21.1737 23.2429 20.3246 22.3596C20.1637 22.1921 20.0373 21.8666 19.7121 22.0288C19.4602 22.1545 19.549 22.427 19.5476 22.6421C19.541 23.8035 19.5375 24.9649 19.5476 26.1263C19.5513 26.5261 19.4995 26.7994 19.0899 27.0682C17.5973 28.0472 17.6405 29.602 19.1288 30.5638C19.3044 30.6774 19.6057 30.6983 19.5228 31.014C19.4232 31.3929 19.0941 31.2185 18.874 31.2204C17.0014 31.2353 15.1287 31.2289 13.2561 31.2297Z" fill="#0ABAB5"/>
<path d="M12.8955 16.9643C11.9755 16.9341 11.144 17.0184 11.1475 15.7798C11.1488 15.2665 10.6742 14.9027 10.2328 14.6014C9.89789 14.3729 9.3537 14.5655 9.16962 14.0632C8.96246 13.4983 8.92828 12.834 9.12329 12.3538C9.64844 11.0606 9.92035 9.64239 10.7841 8.50347C11.9941 6.90758 13.9001 6.48685 15.5878 7.39768C17.2663 8.30367 17.9855 10.162 17.3344 12.0104C17.015 12.9173 16.6454 13.808 16.2656 14.6917C15.6307 16.1686 14.377 16.9721 12.8955 16.9643Z" fill="#0ABAB5"/>
</g>
<path d="M21.8817 4.57337C22.491 5.0335 22.9992 5.4175 23.5898 5.86378C21.8832 6.69516 20.2677 7.48198 18.6525 8.26907L18.5507 8.0885C19.786 7.29364 21.0214 6.49873 22.3377 5.65148C21.793 5.28801 21.3199 4.97233 20.7488 4.59131C22.1085 3.56191 23.3917 2.59009 24.7405 1.56888C24.9398 1.78744 25.1202 1.98537 25.3698 2.25914C24.2044 3.03227 23.1058 3.76131 21.8817 4.57337Z" fill="#0ABAB5"/>
<path d="M19.2076 9.74082L22.8887 9.67657L22.1567 8.18706C23.5015 8.00637 24.7608 7.81377 26.027 7.694C26.2008 7.67768 26.4089 8.02461 26.773 8.36288C25.3523 8.47207 24.2294 8.55838 23.008 8.65219C23.2359 9.2028 23.427 9.66484 23.6855 10.2897C22.1059 10.1884 20.6504 10.0951 19.1947 10.0015L19.2076 9.74082Z" fill="#0ABAB5"/>
<path d="M19.3596 0.00390995C19.3644 0.275287 19.4674 0.598762 19.3563 0.808897C18.9331 1.60831 18.4411 2.37108 17.92 3.23841C18.4958 3.36735 18.9848 3.47683 19.6441 3.62438C18.7431 4.75963 17.9106 5.80841 17.0782 6.85753L16.8916 6.74365C17.4516 5.82977 18.0118 4.91566 18.6116 3.93715C18.0814 3.83789 17.6438 3.75591 17.0832 3.65079C17.719 2.41509 18.3324 1.22303 18.9459 0.0308675L19.3596 0.00390995Z" fill="#0ABAB5"/>
</g>
<defs>
<clipPath id="clip0">
<rect width="27.1866" height="31.2588" fill="white"/>
</clipPath>
<clipPath id="clip1">
<rect width="27.1866" height="24.3349" fill="white" transform="translate(0 6.92395)"/>
</clipPath>
</defs>
</svg>
