<svg width="30" height="27" viewBox="0 0 30 27" fill="none" xmlns="http://www.w3.org/2000/svg">
<g clip-path="url(#clip0)">
<path d="M14.556 26.6878C12.5706 26.6887 10.5846 26.6591 8.60021 26.7051C7.92974 26.7206 7.7597 26.5159 7.77783 25.8686C7.80865 24.775 7.73864 23.6897 8.24255 22.657C8.61364 21.8965 8.7052 20.9978 8.34149 20.2792C7.64135 18.8967 7.79907 17.4573 7.80078 16.0256C7.80163 15.3889 7.66711 15.1201 6.9945 14.9484C5.25634 14.5045 3.52099 14.0217 1.86352 13.3156C0.760981 12.8458 0.122615 11.9967 0.010493 10.8052C-0.0829518 9.81318 0.452876 9.0818 1.41217 9.03967C4.35003 8.9105 7.29071 8.82389 10.2311 8.78324C11.1868 8.77005 11.8143 9.55889 11.7473 10.4639C11.6803 11.373 11.1104 11.8162 10.0449 11.7594C8.16931 11.6596 6.29461 11.5439 4.41918 11.4428C4.11724 11.4264 3.66357 11.3123 3.64526 11.7373C3.63165 12.055 4.06957 12.0193 4.34667 12.0331C6.25799 12.1286 8.16931 12.2242 10.0809 12.3138C10.8087 12.3478 11.52 12.2897 11.9482 11.5854C12.155 11.2449 12.4047 11.3443 12.6683 11.4281C13.8757 11.8122 15.0548 11.6864 16.1714 11.144C16.5572 10.9565 16.7719 10.9476 17.0843 11.2521C18.061 12.2046 19.3095 12.7587 20.6133 12.7987C22.6277 12.8604 23.9462 13.8776 25.1667 15.3106C26.4274 16.7904 27.8327 18.1457 29.1406 19.5866C30.3109 20.8761 30.019 21.9531 28.4096 22.6957C26.6583 23.5042 24.9361 24.3749 23.1973 25.2104C21.8927 25.8375 21.0381 25.6696 20.5637 24.7105C20.0841 23.7404 20.4888 22.9432 21.7848 22.3323C22.8066 21.8509 23.8255 21.3617 24.8618 20.914C25.4639 20.6537 25.6428 20.4175 25.0966 19.8753C24.1421 18.9279 23.2501 17.9178 22.3176 16.9479C22.141 16.764 22.0023 16.4065 21.6451 16.5846C21.3685 16.7227 21.466 17.0219 21.4645 17.2581C21.4573 18.5334 21.4534 19.8087 21.4645 21.084C21.4686 21.523 21.4117 21.8231 20.9619 22.1182C19.3229 23.1933 19.3704 24.9005 21.0046 25.9567C21.1974 26.0814 21.5284 26.1043 21.4373 26.451C21.3279 26.867 20.9665 26.6755 20.7248 26.6776C18.6686 26.694 16.6123 26.687 14.556 26.6878Z" fill="#0ABAB5"/>
<path d="M14.1599 11.024C13.1497 10.9908 12.2366 11.0833 12.2405 9.72335C12.2419 9.15965 11.7208 8.76022 11.2361 8.42932C10.8683 8.17844 10.2708 8.38996 10.0686 7.83839C9.84116 7.21808 9.80369 6.48861 10.0178 5.9613C10.5945 4.5413 10.893 2.98405 11.8415 1.73344C13.1701 -0.0189514 15.263 -0.480938 17.1162 0.519211C18.9593 1.51404 19.749 3.55456 19.034 5.58422C18.6833 6.58012 18.2775 7.55814 17.8605 8.52849C17.1633 10.1502 15.7867 11.0325 14.1599 11.024Z" fill="#0ABAB5"/>
</g>
<defs>
<clipPath id="clip0">
<rect width="29.8527" height="26.7207" fill="white" transform="translate(0 -0.000976562)"/>
</clipPath>
</defs>
</svg>
