<svg width="49" height="50" viewBox="0 0 49 50" fill="none" xmlns="http://www.w3.org/2000/svg">
<path d="M0.0117709 42.6176C0.176554 41.935 0.282485 41.2405 0.506119 40.5814C1.12994 38.7453 2.3305 37.3329 3.93124 36.2382C4.19019 36.0617 4.35497 36.1558 4.54329 36.3088C5.79093 37.2387 7.20336 37.6741 8.75702 37.6389C10.1341 37.6036 11.4053 37.1916 12.5117 36.3677C12.8177 36.1441 13.0296 36.1205 13.3592 36.3559C15.7721 38.1097 16.9962 40.4637 17.0197 43.4415C17.0315 45.3013 17.0197 47.161 17.0197 49.0324C11.3582 49.0324 5.69677 49.0324 0 49.0324C0.0117709 46.8784 0.0117709 44.7481 0.0117709 42.6176Z" fill="#0ABAB5"/>
<path d="M31.0059 23.7942C31.1824 21.2165 30.7234 18.6506 31.3119 16.1436C31.8416 13.9072 33.1716 12.2241 35.1019 11C38.8566 13.0951 40.1749 13.0951 43.8943 11C46.3072 12.5772 47.8255 14.7429 47.9903 17.6737C48.108 19.6982 48.0138 21.7344 48.0138 23.806C42.3759 23.7942 36.738 23.7942 31.0059 23.7942Z" fill="#0ABAB5"/>
<path d="M19.8452 40.4637C22.6936 38.5687 25.4596 36.7208 28.2844 34.8376C28.2844 35.8027 28.2844 36.6855 28.2844 37.6389C28.4728 37.6389 28.614 37.6389 28.767 37.6389C30.4148 37.6389 32.0509 37.6389 33.6987 37.6389C35.5702 37.6389 36.7472 36.4619 36.759 34.5904C36.759 32.8367 36.759 31.0829 36.759 29.3291C36.759 29.3056 36.7707 29.2703 36.7943 29.2114C38.6422 29.2114 40.4901 29.2114 42.3734 29.2114C42.3851 29.3527 42.3969 29.4939 42.3969 29.6234C42.3969 31.2947 42.3969 32.9779 42.3969 34.6493C42.3851 39.5574 38.6775 43.2651 33.7693 43.2768C31.9685 43.2768 30.1677 43.2768 28.3197 43.2768C28.3197 44.2302 28.3197 45.1601 28.3197 46.2076C25.4714 44.2655 22.6936 42.394 19.8452 40.4637Z" fill="#0ABAB5"/>
<path d="M11.3932 20.7018C9.48638 20.7018 7.63846 20.7018 5.75523 20.7018C5.75523 20.1015 5.74346 19.5366 5.75523 18.9598C5.77877 17.2884 5.69638 15.5935 5.87293 13.9457C6.29666 9.96738 9.76887 6.81297 13.7825 6.65996C15.5951 6.58934 17.4195 6.63642 19.2321 6.63642C19.4204 6.63642 19.6087 6.63642 19.8324 6.63642C19.8324 5.71835 19.8324 4.81204 19.8324 3.7998C22.6925 5.70658 25.4703 7.55449 28.3187 9.44949C25.4821 11.3445 22.7161 13.1924 19.8677 15.0874C19.8677 14.1105 19.8677 13.2277 19.8677 12.3097C19.7029 12.2979 19.5617 12.2861 19.4322 12.2861C17.7726 12.2861 16.113 12.2743 14.4534 12.2861C12.5819 12.2861 11.4049 13.4631 11.4049 15.3346C11.4049 16.8883 11.4049 18.4301 11.4049 19.9838C11.3932 20.1957 11.3932 20.4311 11.3932 20.7018Z" fill="#0ABAB5"/>
<path d="M43.8207 5.21167C43.8207 7.50686 41.914 9.4254 39.607 9.44894C37.3001 9.47248 35.3462 7.51863 35.358 5.21167C35.3697 2.89294 37.2883 0.927321 39.5717 0.903781C41.8433 0.86847 43.809 2.8694 43.8207 5.21167Z" fill="#0ABAB5"/>
<path d="M8.49801 34.8141C6.16752 34.7435 4.28429 32.8132 4.34314 30.5415C4.40199 28.1993 6.36761 26.2807 8.6628 26.3749C11.0051 26.4573 12.8765 28.3994 12.7941 30.671C12.7117 33.0015 10.7814 34.873 8.49801 34.8141Z" fill="#0ABAB5"/>
</svg>
