<svg width="25" height="24" viewBox="0 0 25 24" fill="none" xmlns="http://www.w3.org/2000/svg">
<g clip-path="url(#clip0)">
<path d="M7.84766 0C8.3053 0.0959549 8.62732 0.397522 8.9325 0.721115C10.488 2.3711 11.6492 4.26443 12.4219 6.39593C12.8296 7.52088 13.0907 8.68047 13.2395 9.86687C13.3654 10.8713 13.3779 11.8818 13.3146 12.8871C13.0992 16.2962 11.8999 19.3314 9.76978 21.9998C9.38342 22.4839 8.98877 22.9615 8.50903 23.3585C8.06543 23.7256 7.44653 23.7541 6.97644 23.438C6.51526 23.1281 6.30334 22.5345 6.46948 22.0093C6.56372 21.7115 6.76367 21.4804 6.97107 21.2594C7.72253 20.4583 8.39246 19.5965 8.94153 18.6436C9.79065 17.1699 10.3661 15.5972 10.6042 13.9111C11.024 10.9394 10.589 8.10749 9.17102 5.44534C8.62683 4.42386 7.95447 3.49263 7.17493 2.63751C7.0011 2.44691 6.84253 2.24254 6.67407 2.04707C6.16479 1.45638 6.41797 0.413422 7.26074 0.0988846C7.37866 0.0549698 7.50427 0.0324173 7.62634 0H7.84766Z" fill="#0ABAB5"/>
<path d="M0 7.52718C0.0441895 7.39632 0.0751953 7.25914 0.134644 7.13561C0.565186 6.24068 1.6626 6.30473 2.13232 6.76247C3.02136 7.62862 3.66809 8.6407 3.99219 9.83684C4.49451 11.6896 4.35278 13.4896 3.43689 15.1985C3.10449 15.8187 2.6864 16.381 2.17737 16.8717C1.93494 17.1055 1.65125 17.243 1.30933 17.2487C0.690796 17.2591 0.162842 16.8442 0.0266113 16.2398C0.020752 16.2131 0.00891113 16.1877 0 16.1617C0 16.0387 0 15.9157 0 15.7927C0.00646973 15.7828 0.0170898 15.7735 0.0187988 15.7629C0.0700684 15.4444 0.227417 15.1912 0.448242 14.9549C1.03882 14.3227 1.45251 13.5791 1.59753 12.7272C1.67896 12.2486 1.63391 11.7471 1.63037 11.2561C1.62915 11.0741 1.60327 10.8869 1.55432 10.7116C1.35815 10.0082 1.03015 9.37206 0.540894 8.82491C0.296631 8.55196 0.0700684 8.26998 0 7.89617V7.52718Z" fill="#0ABAB5"/>
<path d="M16.3093 23.7638C15.8093 23.7039 15.4775 23.3842 15.152 23.0386C14.2766 22.1094 13.5412 21.0782 12.8777 19.9915C12.7779 19.8283 12.7706 19.7019 12.8617 19.5248C13.327 18.6203 13.6813 17.67 13.9787 16.6983C14.0071 16.6058 14.0218 16.5092 14.0525 16.3719C14.1028 16.4709 14.1399 16.538 14.1717 16.6074C14.4416 17.1942 14.6927 17.7904 14.9837 18.3665C15.5019 19.3924 16.166 20.3194 16.9524 21.1591C17.1256 21.3441 17.2971 21.534 17.4449 21.7392C18.0099 22.5233 17.5565 23.5903 16.6007 23.743C16.5768 23.7468 16.5539 23.7568 16.5306 23.7638H16.3093Z" fill="#0ABAB5"/>
<path d="M15.3029 11.8924C15.268 9.91506 15.7863 7.96285 16.8257 6.14954C17.2836 5.35088 17.8243 4.60961 18.4631 3.94391C18.5904 3.81133 18.7276 3.68544 18.8738 3.57451C19.3681 3.19969 20.0696 3.25922 20.5256 3.70601C20.9767 4.14842 21.044 4.82329 20.6661 5.32726C20.4403 5.62839 20.1805 5.90386 19.9429 6.19647C19.0168 7.33754 18.3682 8.61423 18.0707 10.0602C17.8859 10.9577 17.8481 11.8622 17.9243 12.775C18.0942 14.8164 18.9193 16.5642 20.2761 18.0781C20.4073 18.2244 20.5357 18.3742 20.654 18.531C20.9562 18.9317 20.9947 19.3698 20.7803 19.8156C20.5624 20.2686 20.1893 20.5116 19.6823 20.547C19.2033 20.5804 18.8546 20.3421 18.5428 20.018C17.351 18.7797 16.4771 17.3461 15.9188 15.7223C15.5053 14.5202 15.2759 13.2851 15.3029 11.8924Z" fill="#0ABAB5"/>
<path d="M8.812 11.8506C8.8153 14.8182 7.78613 17.3846 5.85094 19.606C5.66882 19.8152 5.4696 20.015 5.25353 20.1881C4.81908 20.5359 4.21569 20.5379 3.75219 20.2191C3.29955 19.9078 3.09472 19.3388 3.2495 18.8112C3.32677 18.5474 3.50622 18.3467 3.6842 18.1491C4.30688 17.4582 4.85668 16.7179 5.27538 15.8832C5.98022 14.4787 6.2821 12.9912 6.20898 11.4252C6.10461 9.1897 5.26452 7.26377 3.75976 5.61814C3.65758 5.50634 3.56689 5.38403 3.46642 5.27061C2.94994 4.68815 3.21276 3.68111 3.93713 3.35067C4.42846 3.12659 4.89928 3.18557 5.31615 3.53391C5.73669 3.88541 6.08019 4.31089 6.41186 4.74372C7.63512 6.33993 8.39806 8.13673 8.69421 10.1231C8.77904 10.6921 8.77514 11.2744 8.812 11.8506Z" fill="#0ABAB5"/>
<path d="M19.8208 11.9618C19.8473 10.1991 20.405 8.67084 21.5082 7.34772C21.6901 7.1294 21.9044 6.93048 22.1309 6.75833C22.5747 6.42108 23.0565 6.44937 23.5117 6.72602C23.9717 7.00562 24.1476 7.44538 24.0973 7.97705C24.0691 8.27637 23.9222 8.52204 23.7262 8.73673C23.2675 9.23859 22.9135 9.80167 22.6672 10.4368C22.5222 10.8109 22.4668 11.197 22.4666 11.5917C22.4661 12.0012 22.4395 12.4183 22.5063 12.8184C22.6366 13.5963 22.9966 14.2798 23.5066 14.8832C23.6519 15.0551 23.8024 15.2256 23.9238 15.4139C24.2239 15.8789 24.1543 16.5174 23.7755 16.9283C23.3818 17.3553 22.7596 17.4964 22.2759 17.2147C22.0234 17.0677 21.8005 16.8505 21.6044 16.6295C20.5527 15.4443 19.9718 14.0545 19.8469 12.4749C19.8324 12.2912 19.828 12.1067 19.8208 11.9618Z" fill="#0ABAB5"/>
<path d="M14.0948 7.37233C14.0756 7.31516 14.0594 7.271 14.0456 7.22611C13.7335 6.20389 13.4015 5.18892 12.9096 4.23518C12.8256 4.07278 12.8578 3.92377 12.9476 3.78203C13.1487 3.46352 13.35 3.14487 13.5606 2.83246C14.0815 2.05924 14.6602 1.33199 15.3182 0.670365C15.439 0.548951 15.5734 0.439255 15.7114 0.337342C16.1141 0.0397803 16.5494 0.0503546 16.9783 0.256165C17.4155 0.465882 17.6448 0.837311 17.6873 1.31813C17.714 1.61894 17.644 1.89806 17.4448 2.13258C17.1718 2.45415 16.8929 2.77081 16.6181 3.09094C15.5801 4.30016 14.8124 5.66936 14.22 7.14236C14.1955 7.20303 14.1688 7.26274 14.1409 7.32198C14.1346 7.33557 14.1199 7.3454 14.0948 7.37233Z" fill="#0ABAB5"/>
</g>
<defs>
<clipPath id="clip0">
<rect width="24.111" height="23.7638" fill="white"/>
</clipPath>
</defs>
</svg>
