<svg width="22" height="16" viewBox="0 0 22 16" fill="none" xmlns="http://www.w3.org/2000/svg">
<g clip-path="url(#clip0)">
<g clip-path="url(#clip1)">
<path d="M3.70832 0.828949C3.58847 0.899902 3.49089 1.12613 3.52194 1.26825C3.53979 1.3392 3.61073 1.45026 3.68608 1.51236L3.81915 1.62341H12.2897H20.7601V6.70377C20.7601 12.2281 20.7469 11.9707 21.0043 12.0859C21.1508 12.1525 21.2129 12.1525 21.3592 12.0859C21.6165 11.9705 21.6033 12.2545 21.6033 6.41516V1.03735L21.4746 0.908722L21.3459 0.780029H12.5648C6.6856 0.784637 3.76141 0.797882 3.70832 0.828949Z" fill="black"/>
<path d="M3.10944 2.53278C2.99284 2.62157 2.91799 2.86543 2.96783 3.00314C2.98869 3.06087 3.047 3.14966 3.09681 3.19832C3.18839 3.28711 3.25497 3.28711 11.1576 3.30032L19.1268 3.30916V8.38972C19.1268 12.0903 19.1393 13.497 19.1725 13.5767C19.2184 13.6787 19.4307 13.8252 19.5391 13.8252C19.5599 13.8252 19.6306 13.803 19.6889 13.7719C19.9304 13.6564 19.918 13.9404 19.918 8.10114V2.72334L19.7973 2.59467L19.6766 2.466H11.4367C4.17533 2.46623 3.18861 2.47504 3.10944 2.53278Z" fill="black"/>
<path fill-rule="evenodd" clip-rule="evenodd" d="M0.121248 4.2807L0 4.40936V10.0312V15.6531L0.121248 15.7818L0.242496 15.9104H9.11567H17.9888L18.1101 15.7818L18.2313 15.6531V10.0312V4.40936L18.1101 4.2807L17.9888 4.15204H9.11567H0.242496L0.121248 4.2807ZM17.437 10.0312V15.0673H9.11567H0.794339V10.0312V4.99516H9.11567H17.437V10.0312Z" fill="black"/>
<path fill-rule="evenodd" clip-rule="evenodd" d="M2.41837 6.78767C2.28971 6.84539 2.11213 6.98286 2.01013 7.09831C1.68164 7.47084 1.68605 7.43097 1.68605 10.0311C1.68605 12.6933 1.67724 12.6224 2.05882 13.0084C2.43599 13.3855 2.41814 13.3811 4.65892 13.3811H6.59787L6.86863 13.2436C7.15262 13.1015 7.35662 12.8931 7.48992 12.5957C7.55645 12.4404 7.56526 12.2097 7.56526 10.0311V7.63498L7.441 7.38206C7.37007 7.24018 7.237 7.0582 7.13477 6.97382C6.7977 6.68544 6.77103 6.68103 4.59702 6.68103H2.64022L2.41837 6.78767ZM6.59811 7.63057L6.72236 7.73697L6.73557 9.94669C6.74438 11.5574 6.73116 12.1919 6.6957 12.2851C6.58929 12.5424 6.62476 12.538 4.62346 12.538H2.7865L2.65784 12.4093L2.52918 12.2807V10.0531C2.52918 7.77245 2.53358 7.71032 2.70211 7.58166C2.75543 7.54178 3.23902 7.52834 4.62346 7.52393H6.47385L6.59811 7.63057Z" fill="black"/>
<path d="M8.48819 8.35412C8.33286 8.37638 8.14209 8.60263 8.14209 8.76676C8.14209 8.8377 8.19098 8.95315 8.25754 9.02849L8.37296 9.16596H12.3352H16.3022L16.4264 9.05955C16.524 8.97517 16.5507 8.91304 16.5507 8.77557C16.5507 8.55813 16.4443 8.42946 16.2224 8.36733C16.0669 8.32746 8.76312 8.31425 8.48819 8.35412Z" fill="black"/>
<path d="M8.42609 10.897C8.28418 10.9547 8.14209 11.1587 8.14209 11.3052C8.14209 11.3894 8.18634 11.4828 8.27075 11.5669L8.39941 11.6956H12.3352C14.9488 11.6956 16.2975 11.6824 16.3553 11.6513C16.4795 11.5804 16.5815 11.3541 16.5505 11.212C16.5372 11.1411 16.4751 11.0391 16.413 10.9814L16.2975 10.8747L12.4106 10.8659C10.2719 10.8615 8.47476 10.8747 8.42609 10.897Z" fill="black"/>
</g>
</g>
<defs>
<clipPath id="clip0">
<rect width="21.6033" height="15.1304" fill="white" transform="translate(0 0.780029)"/>
</clipPath>
<clipPath id="clip1">
<rect width="21.6033" height="15.1304" fill="white" transform="translate(0 0.780029)"/>
</clipPath>
</defs>
</svg>
