<svg width="56" height="51" viewBox="0 0 56 51" fill="none" xmlns="http://www.w3.org/2000/svg">
<path d="M5.3886 28.7388C2.41722 28.7388 0 31.156 0 34.1273C0 37.0988 2.41722 39.516 5.3886 39.516C8.35999 39.516 10.7772 37.0988 10.7772 34.1273C10.7772 31.156 8.35999 28.7388 5.3886 28.7388Z" fill="#09B6B1"/>
<path d="M32.3305 0C29.3591 0 26.9419 2.41722 26.9419 5.3886C26.9419 8.35999 29.3591 10.7772 32.3305 10.7772C35.3019 10.7772 37.7191 8.35999 37.7191 5.3886C37.7191 2.41721 35.3019 0 32.3305 0Z" fill="#09B6B1"/>
<path d="M51.4905 43.1089H3.59237C1.61141 43.1089 0 44.7203 0 46.7013C0 48.6822 1.61141 50.2936 3.59237 50.2936H51.4905C53.4721 50.2936 55.0835 48.6822 55.0835 46.7013C55.0835 44.7203 53.4721 43.1089 51.4905 43.1089Z" fill="#09B6B1"/>
<path d="M51.4909 32.3322H39.5168V27.737L40.9211 27.2689C41.6805 29.5535 43.7856 30.3401 45.5344 29.7506C47.2781 29.1682 48.5064 27.3015 47.738 24.9965C49.851 24.2927 50.7066 22.2068 50.1092 20.4171C49.4948 18.5716 47.4939 17.4997 45.5649 18.1467L34.7877 21.739C33.1751 22.2764 32.332 23.8605 32.332 25.1474V32.3323H28.7396V25.1473C28.7396 22.0975 30.7597 19.2945 33.6522 18.3309L42.424 15.4069C41.3318 14.7508 40.0692 14.3701 38.7323 14.3701H26.9465C22.9845 14.3701 19.7616 17.593 19.7616 21.555V25.1473C19.7616 29.1093 22.9844 32.3322 26.9465 32.3322H17.9625C15.9815 32.3322 14.3701 33.9436 14.3701 35.9246C14.3701 37.9055 15.9815 39.5169 17.9625 39.5169H51.491C53.4726 39.5169 55.084 37.9055 55.084 35.9246C55.0839 33.9436 53.4725 32.3322 51.4909 32.3322Z" fill="#09B6B1"/>
</svg>
