<svg width="25" height="22" viewBox="0 0 25 22" fill="none" xmlns="http://www.w3.org/2000/svg">
<g clip-path="url(#clip0)">
<path d="M12.3552 1.09582C13.5065 0.218625 14.7711 -0.194644 16.1861 0.109433C18.9898 0.711789 20.3247 3.52899 19.1323 6.27716C18.3736 8.02588 17.0101 9.29211 15.6649 10.5649C14.8316 11.3532 13.9439 12.0838 13.1001 12.8615C12.6219 13.3022 12.1975 13.3984 11.6819 12.9041C9.97122 11.2638 8.19119 9.69269 6.53665 7.99841C5.54349 6.98132 5.0986 5.63928 5.13706 4.2005C5.22519 0.889157 8.67984 -1.04114 11.57 0.589292C11.8182 0.729306 12.0503 0.898068 12.3552 1.09582Z" fill="#0ABAB5"/>
<path d="M19.6569 21.9071H12.9541C12.9541 20.4634 12.9026 19.0579 12.9837 17.6598C13.0097 17.2096 13.2963 16.6976 13.6149 16.354C15.3183 14.5167 17.071 12.7251 18.8029 10.914C19.1733 10.5267 19.5923 10.351 20.0353 10.7346C20.5094 11.145 20.3823 11.5963 20.0188 12.0379C19.3724 12.8231 18.7171 13.6033 18.121 14.426C17.9125 14.7139 17.8675 15.1204 17.7476 15.4727L17.9885 15.5878C18.123 15.4915 18.2743 15.4119 18.3895 15.2963C19.4966 14.1884 20.6229 13.0976 21.685 11.9476C21.9977 11.6089 22.2693 11.1115 22.311 10.6636C22.5233 8.37844 22.6535 6.08565 22.8148 3.79579C22.8277 3.61391 22.8461 3.43007 22.886 3.25276C23.0114 2.69307 23.4361 2.41616 23.9229 2.57009C24.2302 2.66719 24.4506 3.09096 24.6659 3.39907C24.7396 3.50478 24.6796 3.70424 24.6796 3.86086C24.68 6.52394 24.6664 9.18703 24.6883 11.8497C24.6953 12.6984 24.4585 13.4196 23.9408 14.0929C22.6226 15.807 21.3207 17.5342 20.0507 19.2843C19.8245 19.5959 19.7265 20.0337 19.6718 20.4277C19.608 20.8867 19.6569 21.3613 19.6569 21.9071Z" fill="#0ABAB5"/>
<path d="M6.68284 15.5732C7.08195 15.0252 6.78212 14.6392 6.49058 14.2698C5.87602 13.491 5.25361 12.7182 4.62022 11.9549C4.27037 11.5333 4.16404 11.0994 4.60991 10.7185C5.03877 10.3517 5.4644 10.4726 5.84761 10.8714C7.56764 12.661 9.3177 14.4222 11.004 16.2427C11.3529 16.6194 11.6373 17.1946 11.6713 17.6972C11.7628 19.0469 11.7026 20.4068 11.7026 21.8296H5.11702C5.09477 21.7736 5.0341 21.6987 5.0446 21.6358C5.28639 20.1873 4.62071 19.1074 3.7361 18.0402C2.62193 16.6964 1.59178 15.2778 0.601636 13.8392C0.28111 13.3736 0.0468269 12.7458 0.0357185 12.1871C-0.021563 9.31375 0.00855782 6.4385 0.00336984 3.56405C0.00230172 2.9757 0.150007 2.49316 0.850049 2.50726C1.51683 2.52078 1.78608 2.92331 1.82637 3.57772C1.9694 5.89718 2.12733 8.21618 2.3213 10.5319C2.35411 10.9241 2.49363 11.3943 2.75364 11.6657C4.01509 12.9823 5.33424 14.2434 6.68284 15.5732Z" fill="#0ABAB5"/>
</g>
<defs>
<clipPath id="clip0">
<rect width="24.7026" height="21.9071" fill="white"/>
</clipPath>
</defs>
</svg>
