<svg width="14" height="16" viewBox="0 0 14 16" fill="none" xmlns="http://www.w3.org/2000/svg">
<g clip-path="url(#clip0)">
<path fill-rule="evenodd" clip-rule="evenodd" d="M11.5347 0H4.51356C4.48201 0.000127792 4.45054 0.00324273 4.41958 0.00930285L4.41384 0.0101805C4.37243 0.0192716 4.33235 0.033596 4.29455 0.0528083C4.28435 0.0578237 4.27464 0.0630393 4.26474 0.0687313C4.22618 0.0900438 4.19063 0.116377 4.159 0.147042L0.146942 4.1591C0.116191 4.19082 0.0897975 4.22648 0.0684552 4.26516C0.0629387 4.2748 0.0578241 4.28422 0.0529594 4.29418C0.03336 4.33263 0.0188293 4.37346 0.00972891 4.41564V4.41687C0.00335693 4.44871 9.87053e-05 4.48109 0 4.51356V13.5407C0.000911713 14.3712 0.673975 15.0443 1.50452 15.0452H11.5347C12.3652 15.0443 13.0383 14.3712 13.0392 13.5407V1.50452C13.0383 0.673975 12.3652 0.000911474 11.5347 0H11.5347ZM4.01206 1.7123V3.51055C4.01178 3.78741 3.78741 4.01178 3.51055 4.01206L1.7123 4.01206L4.01206 1.7123ZM12.0362 13.5407C12.0359 13.8175 11.8115 14.0419 11.5347 14.0422H1.50452C1.22766 14.0419 1.00329 13.8175 1.00301 13.5407L1.00301 5.01507H3.51055C4.34109 5.01416 5.01416 4.34109 5.01507 3.51055V1.00301H11.5347C11.8115 1.00329 12.0359 1.22766 12.0362 1.50452V13.5407Z" fill="black"/>
<path d="M9.27772 7.523H5.26567C4.98869 7.523 4.76416 7.74753 4.76416 8.02451C4.76416 8.30148 4.98869 8.52601 5.26567 8.52601H9.27772C9.5547 8.52601 9.77923 8.30148 9.77923 8.02451C9.77923 7.74753 9.5547 7.523 9.27772 7.523Z" fill="black"/>
<path d="M9.27785 10.532H3.76127C3.4843 10.532 3.25977 10.7565 3.25977 11.0335C3.25977 11.3105 3.4843 11.535 3.76127 11.535H9.27785C9.55482 11.535 9.77936 11.3105 9.77936 11.0335C9.77936 10.7565 9.55482 10.532 9.27785 10.532Z" fill="black"/>
</g>
<defs>
<clipPath id="clip0">
<rect width="13.0392" height="15.0452" fill="white"/>
</clipPath>
</defs>
</svg>
