<svg width="67" height="45" viewBox="0 0 67 45" fill="none" xmlns="http://www.w3.org/2000/svg">
<g clip-path="url(#clip0)">
<path d="M48.3707 10.721C46.9087 8.72116 46.8949 7.31437 48.3845 5.96274C48.1638 5.67311 47.9431 5.39727 47.7362 5.10763C46.826 3.89393 46.9777 2.36301 48.081 1.48031C49.2258 0.570037 50.7705 0.763126 51.7359 1.97683C55.9012 7.23161 60.0663 12.5002 64.2316 17.755C64.6729 18.3067 65.1281 18.8583 65.5556 19.4376C66.3142 20.472 66.4797 21.603 65.9142 22.7477C64.0661 26.5129 62.2041 30.2782 60.3146 34.0296C59.5147 35.6157 59.0044 37.257 59.032 39.0362C59.0595 40.5809 59.0182 42.1118 59.0457 43.6565C59.0595 44.222 58.8527 44.4151 58.2872 44.4151C54.7978 44.4013 51.2946 44.4013 47.8052 44.4151C47.2811 44.4151 47.0742 44.2496 47.0742 43.6979C47.1156 40.636 47.1018 37.588 47.1846 34.5261C47.2535 31.7815 48.3293 29.4231 50.274 27.5198C51.8463 25.9888 52.6324 24.1821 52.5773 21.9891C52.5359 20.3617 52.5635 18.7204 52.5773 17.093C52.5911 15.4931 53.6806 14.3345 55.1978 14.307C56.7149 14.2794 57.9148 15.4517 57.9286 17.0792C57.9562 19.5342 57.9286 22.0029 57.9424 24.4579C57.9424 24.6648 57.8872 24.9131 57.97 25.0648C58.0803 25.2717 58.3148 25.5337 58.5079 25.5475C58.701 25.5613 58.9492 25.313 59.1009 25.1337C59.1837 25.0372 59.1561 24.8303 59.1561 24.6648C59.1561 22.1409 59.1699 19.6031 59.1561 17.0792C59.1285 15.0379 57.7493 13.3967 55.8874 13.1484C53.9289 12.8726 52.1083 13.9346 51.5704 15.7689C51.3773 16.4309 51.4325 17.1757 51.3498 17.8791C51.3222 18.1136 51.2119 18.3342 51.1429 18.5549C50.9222 18.417 50.6602 18.3342 50.5085 18.1412C49.6809 17.1205 48.881 16.0861 48.081 15.0517C46.7156 13.3415 46.7846 12.1968 48.3707 10.721Z" fill="#0ABAB5"/>
<path d="M17.862 5.9355C19.1585 7.19058 19.5033 8.84563 17.8482 10.7351C17.9861 10.8593 18.1241 10.9696 18.2482 11.0937C19.2136 11.9902 19.4067 13.4108 18.6206 14.459C17.6689 15.7555 16.6483 16.9968 15.6553 18.2656C15.5449 18.4035 15.3243 18.4587 15.1588 18.5553C15.076 18.3622 14.9381 18.1829 14.9243 17.976C14.8829 17.4243 14.9519 16.8588 14.8553 16.3209C14.4967 14.2935 12.7589 12.9557 10.6901 13.0936C8.71786 13.2315 7.15935 14.79 7.10419 16.8726C7.03523 19.5069 7.09039 22.155 7.09039 24.8031C7.09039 25.203 7.21452 25.5616 7.69725 25.5616C8.22134 25.5754 8.31789 25.203 8.31789 24.7617C8.31789 22.2102 8.3041 19.6586 8.31789 17.1071C8.33168 15.2727 9.73847 14.059 11.4763 14.3349C12.7314 14.5418 13.6554 15.6175 13.6692 16.9554C13.683 18.7759 13.6692 20.5827 13.6692 22.4032C13.6692 24.2652 14.3174 25.8789 15.6553 27.1615C18.0275 29.451 19.1447 32.1956 19.1033 35.4919C19.0619 38.1814 19.1309 40.8709 19.1723 43.5603C19.1861 44.1947 18.993 44.4016 18.3585 44.4016C14.9105 44.374 11.4625 44.374 8.01447 44.4016C7.35245 44.4016 7.18694 44.1672 7.20073 43.5465C7.22832 42.0018 7.20073 40.4709 7.21453 38.9262C7.22832 37.2573 6.78697 35.7126 6.0422 34.2369C4.15268 30.444 2.24937 26.6374 0.373652 22.8308C-0.246992 21.5757 -0.0814872 20.3758 0.773622 19.2862C5.3388 13.5349 9.90398 7.76985 14.4692 2.00476C15.4484 0.777263 16.9655 0.55659 18.1241 1.43928C19.2826 2.33577 19.4205 3.90807 18.4551 5.17694C18.2482 5.4252 18.0551 5.68725 17.862 5.9355Z" fill="#0ABAB5"/>
<path d="M33.0747 10.5148C31.3093 10.5148 29.5439 10.5148 27.7647 10.5148C26.9924 10.5148 26.7441 10.3079 26.7855 9.54937C26.9372 7.25989 26.0269 6.8875 24.165 6.99784C23.6823 7.02542 23.1996 7.01163 22.7168 6.99784C22.5375 6.99784 22.3169 7.02542 22.1789 6.94267C21.2825 6.34961 21.8204 5.43933 21.7376 4.66697C21.6824 4.17046 22.0824 3.94979 22.5513 3.94979C23.3789 3.94979 24.2064 3.96358 25.0339 3.94979C26.1924 3.9222 26.7579 3.34293 26.7717 2.19819C26.7855 1.01207 26.882 0.915527 28.082 0.915527C31.4748 0.915527 34.8815 0.915527 38.2743 0.915527C39.2673 0.915527 39.419 1.06724 39.4328 2.07406C39.4466 3.3981 39.9983 3.93599 41.3361 3.94979C42.0947 3.94979 42.8533 3.94979 43.6118 3.94979C44.2049 3.94979 44.4807 4.22563 44.5083 4.81869C44.6187 6.99784 44.6187 6.99784 42.4395 6.99784C41.9844 6.99784 41.5154 6.98404 41.0603 7.01163C40.0397 7.0668 39.4604 7.65986 39.4328 8.68047C39.4328 8.74943 39.4328 8.81839 39.4328 8.88735C39.419 10.5286 39.419 10.5286 37.7364 10.5286C36.1917 10.5148 34.6332 10.5148 33.0747 10.5148Z" fill="#0ABAB5"/>
<path d="M33.1302 21.81C31.3648 21.81 29.5994 21.81 27.8202 21.81C26.9927 21.81 26.7996 21.6169 26.7858 20.8169C26.7582 18.5688 26.4548 18.2792 24.2343 18.2654C23.6826 18.2654 23.1309 18.2516 22.5792 18.2654C22 18.2792 21.7241 18.0034 21.7241 17.4379C21.7241 16.9827 21.7241 16.5138 21.7241 16.0587C21.7241 15.4932 22.0137 15.2174 22.5792 15.2174C23.4068 15.2174 24.2343 15.2312 25.0618 15.2174C26.179 15.2036 26.772 14.6105 26.7858 13.5209C26.8134 12.2521 26.8824 12.1831 28.1788 12.1831C31.5303 12.1831 34.8818 12.1831 38.247 12.1831C39.2952 12.1831 39.4469 12.3348 39.4607 13.3554C39.4745 14.6381 40.0262 15.2036 41.3089 15.2036C42.0674 15.2036 42.826 15.1898 43.5846 15.2036C44.3018 15.2174 44.5224 15.4242 44.5362 16.1552C44.5638 18.4309 44.6466 18.2516 42.5226 18.2378C42.0399 18.2378 41.5571 18.224 41.0744 18.2516C40.0676 18.3068 39.4469 18.9274 39.4745 19.948C39.5159 22.0582 39.2952 21.7824 37.5574 21.7962C36.0679 21.8238 34.5921 21.81 33.1302 21.81Z" fill="#0ABAB5"/>
<path d="M42.3978 29.5618C41.9564 29.5618 41.5289 29.548 41.0875 29.5618C40.0945 29.6032 39.4325 30.2376 39.4601 31.2307C39.5152 33.4236 39.2256 33.1064 37.4878 33.1064C34.288 33.1202 31.1021 33.1064 27.9023 33.1064C26.9507 33.1064 26.7714 32.9271 26.7714 31.9892C26.7714 31.741 26.7714 31.4789 26.7714 31.2307C26.7438 30.2376 26.1369 29.5894 25.1301 29.5618C24.275 29.5342 23.4337 29.548 22.5786 29.5618C21.9579 29.5756 21.6959 29.286 21.6959 28.6929C21.6959 26.3896 21.5304 26.5 23.7647 26.5137C24.2474 26.5137 24.7301 26.5275 25.2129 26.5137C26.0956 26.4724 26.7024 25.8655 26.7576 24.9828C26.7714 24.7484 26.7576 24.5277 26.7576 24.2932C26.7714 23.7553 27.0472 23.4933 27.5713 23.4795C31.2538 23.4795 34.9225 23.4795 38.605 23.4795C39.1291 23.4795 39.4187 23.7553 39.4187 24.2794C39.4187 24.5139 39.4187 24.7346 39.4187 24.969C39.4739 25.8517 40.0669 26.4724 40.9634 26.5C41.8323 26.5275 42.715 26.5138 43.5839 26.5C44.177 26.4862 44.4804 26.762 44.4804 27.3689C44.5356 29.7963 44.6735 29.5618 42.3978 29.5618Z" fill="#0ABAB5"/>
<path d="M33.089 44.4013C31.3374 44.4013 29.5996 44.4013 27.848 44.4013C26.9791 44.4013 26.786 44.1944 26.786 43.3531C26.786 43.1048 26.786 42.8428 26.786 42.5945C26.7722 41.4912 26.1378 40.8705 25.0206 40.8567C24.2207 40.8429 23.4069 40.8429 22.607 40.8567C22.0001 40.8705 21.7243 40.5809 21.7243 39.9878C21.7105 37.657 21.5726 37.7949 23.7931 37.8087C24.2483 37.8087 24.7172 37.8225 25.1723 37.8087C26.1378 37.7811 26.7584 37.1604 26.786 36.2088C26.786 36.0433 26.786 35.8916 26.786 35.7261C26.7998 35.0089 27.0205 34.7882 27.7376 34.7744C29.6961 34.7744 31.6408 34.7744 33.5993 34.7744C35.2129 34.7744 36.8128 34.7744 38.4265 34.7744C39.2402 34.7744 39.4471 34.9675 39.4609 35.7812C39.4885 37.326 39.9712 37.8087 41.5573 37.8087C42.2745 37.8087 42.9779 37.8087 43.6951 37.8087C44.233 37.8087 44.5088 38.0707 44.5226 38.5948C44.5364 39.0775 44.5364 39.5603 44.5226 40.043C44.5088 40.6085 44.2192 40.8705 43.6537 40.8567C42.8262 40.8429 41.9987 40.8429 41.1711 40.8567C40.0954 40.8705 39.4471 41.505 39.4747 42.5945C39.5161 44.5944 39.323 44.4151 37.5852 44.4151C36.0681 44.4013 34.5785 44.4151 33.089 44.4013Z" fill="#0ABAB5"/>
</g>
<defs>
<clipPath id="clip0">
<rect width="66.2505" height="43.5158" fill="white" transform="translate(0 0.90332)"/>
</clipPath>
</defs>
</svg>
