<svg width="53" height="54" viewBox="0 0 53 54" fill="none" xmlns="http://www.w3.org/2000/svg">
<g clip-path="url(#clip0)">
<rect x="40" y="21" width="13" height="15" rx="4" fill="#09B6B1"/>
<path d="M49.3715 30.1228C49.3715 30.1228 40.7453 33.5508 39.6033 36.2087C38.4611 38.8667 38.2514 40.0324 38.2514 40.0324C38.2514 40.0324 35.0583 51.7833 30.3954 50.9444" stroke="#09B6B1"/>
<rect y="21" width="13" height="15" rx="4" fill="#09B6B1"/>
<path d="M1.82003 30.1227C1.82003 30.1227 10.4462 33.5508 11.5883 36.2088C12.7304 38.8668 12.9403 40.0325 12.9403 40.0325C12.9403 40.0325 16.1333 51.7832 20.7962 50.9444" stroke="#09B6B1"/>
<rect x="32" width="13" height="13" rx="4" fill="#09B6B1"/>
<path d="M37.0609 8.82275C37.0609 8.82275 31.5622 16.301 32.0021 19.1602C32.4421 22.0195 32.8819 23.1191 32.8819 23.1191C32.8819 23.1191 36.401 34.7766 32.0021 36.5361" stroke="#09B6B1"/>
<rect x="8" width="13" height="13" rx="4" fill="#09B6B1"/>
<path d="M15.0229 8.82275C15.0229 8.82275 20.5217 16.301 20.0819 19.1602C19.642 22.0195 19.2021 23.1191 19.2021 23.1191C19.2021 23.1191 15.683 34.7766 20.0819 36.5361" stroke="#09B6B1"/>
</g>
<defs>
<clipPath id="clip0">
<rect width="53" height="53.6251" fill="white"/>
</clipPath>
</defs>
</svg>
