<svg width="35" height="36" viewBox="0 0 35 36" fill="none" xmlns="http://www.w3.org/2000/svg">
<path opacity="0.18" d="M17.5 -6.48499e-05C27.165 -6.48499e-05 35 7.92722 35 17.706C35 27.4848 27.165 35.4121 17.5 35.4121C7.83502 35.4121 0 27.4848 0 17.706C0 7.92722 7.83502 -6.48499e-05 17.5 -6.48499e-05Z" fill="#F00121"/>
<path opacity="0.18" d="M17.4996 5.44884C24.2832 5.44884 29.7824 10.9366 29.7824 17.706C29.7824 24.4754 24.2832 29.9631 17.4996 29.9631C10.716 29.9631 5.2168 24.4754 5.2168 17.706C5.2168 10.9366 10.716 5.44884 17.4996 5.44884Z" fill="#F00121"/>
<path opacity="0.18" d="M17.5003 2.65347C25.7165 2.65347 32.377 9.39274 32.377 17.7061C32.377 26.0194 25.7165 32.7587 17.5003 32.7587C9.28408 32.7587 2.62354 26.0194 2.62354 17.7061C2.62354 9.39274 9.28408 2.65347 17.5003 2.65347Z" fill="#F00121"/>
<path opacity="0.26" d="M17.5 8.18839C22.7564 8.18839 27.0175 12.4495 27.0175 17.7059C27.0175 22.9624 22.7564 27.2235 17.5 27.2235C12.2436 27.2235 7.98242 22.9624 7.98242 17.7059C7.98242 12.4495 12.2436 8.18839 17.5 8.18839Z" fill="#F00121"/>
<path opacity="0.67" d="M17.4996 11.1708C21.1089 11.1708 24.0349 14.0968 24.0349 17.7061C24.0349 21.3154 21.1089 24.2413 17.4996 24.2413C13.8903 24.2413 10.9644 21.3154 10.9644 17.7061C10.9644 14.0968 13.8903 11.1708 17.4996 11.1708Z" fill="#FF2446"/>
<path d="M17.5001 14.0258C19.5326 14.0258 21.1803 15.6735 21.1803 17.7061C21.1803 19.7386 19.5326 21.3864 17.5001 21.3864C15.4675 21.3864 13.8198 19.7386 13.8198 17.7061C13.8198 15.6735 15.4675 14.0258 17.5001 14.0258Z" fill="#F00121"/>
<path d="M17.5001 14.0258C19.5326 14.0258 21.1803 15.6735 21.1803 17.7061C21.1803 19.7386 19.5326 21.3864 17.5001 21.3864C15.4675 21.3864 13.8198 19.7386 13.8198 17.7061C13.8198 15.6735 15.4675 14.0258 17.5001 14.0258Z" stroke="#F00121" stroke-miterlimit="10"/>
</svg>
