<svg width="24" height="26" viewBox="0 0 24 26" fill="none" xmlns="http://www.w3.org/2000/svg">
<g clip-path="url(#clip0)">
<path d="M23.4555 15.6929C23.38 15.5554 23.2357 15.47 23.0788 15.47C21.3225 15.4717 19.6746 16.3197 18.6522 17.748L18.0835 18.5442L14.4148 19.7671H14.2328L17.3666 16.6333C17.4895 16.5104 17.5263 16.3256 17.4598 16.1649C17.3933 16.0044 17.2366 15.8997 17.0628 15.8997H16.108C14.1461 15.8943 12.2621 16.6669 10.869 18.0482H8.54634C7.28124 18.0448 6.06733 18.5476 5.17523 19.4446L0 24.6199L0.6077 25.2276L5.78297 20.0524C6.51425 19.317 7.50931 18.9049 8.54634 18.9077H11.0468C11.1608 18.9077 11.2701 18.8624 11.3507 18.7818L11.4396 18.6928C12.6547 17.471 14.3018 16.7766 16.0248 16.7596L12.0321 20.7524L12.6398 21.3602L13.3733 20.6266H14.4845C14.5306 20.6266 14.5765 20.6191 14.6203 20.6045L18.4878 19.3154C18.574 19.2866 18.6488 19.2314 18.7016 19.1575L19.3516 18.2475C20.0424 17.2823 21.0803 16.6223 22.2473 16.4059L19.7795 20.2839L13.9666 22.7752H8.03874C7.92477 22.7752 7.81548 22.8204 7.73489 22.901L5.58631 25.0496L6.19401 25.6573L8.21675 23.6346H14.0548C14.113 23.6346 14.1706 23.6228 14.2241 23.5999L20.2401 21.0215C20.3195 20.9875 20.3869 20.9302 20.4333 20.8572L23.4414 16.1304C23.5256 15.998 23.531 15.8304 23.4555 15.6929Z" fill="#0ABAB5"/>
<path fill-rule="evenodd" clip-rule="evenodd" d="M5.46048 15.4698H20.9303C21.1676 15.4698 21.36 15.2774 21.36 15.0401V2.16647C21.36 1.92915 21.1676 1.73676 20.9303 1.73675H18.312C18.1138 0.728746 17.2307 0.00139999 16.2034 0H10.1874C9.16006 0.00140953 8.27702 0.728752 8.07881 1.73675H5.46048C5.22316 1.73675 5.03078 1.92914 5.03076 2.16647V15.0401C5.03076 15.2774 5.22316 15.4698 5.46048 15.4698ZM5.8902 14.6104V5.1566H6.74963V6.44575C6.74963 6.68307 6.94202 6.87546 7.17934 6.87546H9.75766C9.99496 6.87546 10.1874 6.68307 10.1874 6.44575V5.1566H16.2034V6.44575C16.2034 6.68307 16.3958 6.87546 16.6331 6.87546H19.2114C19.4487 6.87546 19.6411 6.68308 19.6411 6.44575V5.1566H20.5005V14.6104H5.8902ZM7.60907 6.01603V4.29716H9.32793V6.01603H7.60907ZM17.0628 6.01603V4.29716H18.7817V6.01603H17.0628ZM17.4247 1.73675H15.7737V0.859432H16.2034C16.7564 0.860172 17.2475 1.21296 17.4247 1.73675H17.4247ZM11.4765 1.73675V0.859432H14.9142V1.73675H11.4765ZM10.1874 0.859432H10.6171V1.73675H8.96606C9.14328 1.21296 9.63438 0.860172 10.1874 0.859432ZM20.5005 2.59619V4.29716H19.6411V3.86745C19.6411 3.63013 19.4487 3.43774 19.2114 3.43773H16.6331C16.3958 3.43773 16.2034 3.63012 16.2034 3.86744V4.29716H10.1874V3.86745C10.1874 3.63013 9.99498 3.43774 9.75766 3.43773H7.17935C6.94203 3.43773 6.74963 3.63012 6.74963 3.86744V4.29716H5.8902V2.59619H20.5005Z" fill="#0ABAB5"/>
<path fill-rule="evenodd" clip-rule="evenodd" d="M13.1956 6.01599C11.0596 6.01599 9.32812 7.74753 9.32812 9.88345C9.32812 12.0194 11.0596 13.7509 13.1956 13.7509C15.3315 13.7509 17.063 12.0194 17.063 9.88345C17.0606 7.7485 15.3305 6.0184 13.1956 6.01599ZM13.1956 12.8914C11.5343 12.8914 10.1875 11.5447 10.1875 9.88345C10.1875 8.22217 11.5343 6.87543 13.1956 6.87543C14.8569 6.87543 16.2036 8.22217 16.2036 9.88345C16.2017 11.5439 14.8561 12.8896 13.1956 12.8914Z" fill="#0ABAB5"/>
<path fill-rule="evenodd" clip-rule="evenodd" d="M14.9143 8.59442H14.4846V8.1647C14.4846 7.92737 14.2922 7.73499 14.0549 7.73499H12.336C12.0987 7.73499 11.9063 7.92734 11.9063 8.1647V8.59442H11.4766C11.2393 8.59442 11.0469 8.7868 11.0469 9.02414V10.743C11.0469 10.9803 11.2393 11.1727 11.4766 11.1727H11.9063V11.6024C11.9063 11.8398 12.0987 12.0321 12.336 12.0321H14.0549C14.2922 12.0321 14.4846 11.8398 14.4846 11.6024V11.1727H14.9143C15.1516 11.1727 15.3441 10.9803 15.3441 10.743V9.02414C15.3441 8.7868 15.1516 8.59442 14.9143 8.59442ZM14.4846 10.3133H14.0549C13.8176 10.3133 13.6252 10.5057 13.6252 10.743V11.1727H12.7657V10.743C12.7657 10.5057 12.5734 10.3133 12.3361 10.3133H11.9063V9.45386H12.336C12.5734 9.45386 12.7657 9.26147 12.7657 9.02414V8.59442H13.6252V9.02414C13.6252 9.26144 13.8176 9.45386 14.0549 9.45386H14.4846V10.3133Z" fill="#0ABAB5"/>
</g>
<defs>
<clipPath id="clip0">
<rect width="23.5086" height="25.6573" fill="white"/>
</clipPath>
</defs>
</svg>
