<svg width="184" height="64" viewBox="0 0 184 64" fill="none" xmlns="http://www.w3.org/2000/svg">
<g clip-path="url(#clip0)">
<path fill-rule="evenodd" clip-rule="evenodd" d="M4.00317 47.0597C3.2478 46.3044 2.87012 45.3224 2.87012 44.0383V6.87433C2.87012 5.66575 3.2478 4.68377 3.92763 4.00395C4.68299 3.32412 5.66497 3.02197 6.87355 3.02197H22.5096C27.2684 3.02197 30.9697 4.23056 33.689 6.57219C36.3328 8.98935 37.6924 12.313 37.6924 16.6185C37.6924 20.9241 36.3328 24.3233 33.689 26.7404C31.0452 29.1576 27.2684 30.3662 22.5096 30.3662H11.1791V44.0383C11.1791 45.3224 10.8014 46.3044 10.0461 47.0597C9.29072 47.8151 8.30874 48.1928 7.02462 48.1928C5.7405 48.1928 4.75853 47.8151 4.00317 47.0597ZM21.4521 24.0966C27.1173 24.0966 29.9122 21.6795 29.9122 16.6941C29.9122 11.7087 27.1173 9.2915 21.4521 9.2915H11.1036V24.0211H21.4521V24.0966Z" fill="white"/>
<path fill-rule="evenodd" clip-rule="evenodd" d="M66.3964 19.187C68.5114 21.3021 69.5689 24.5501 69.5689 28.9312V44.4162C69.5689 45.5493 69.2668 46.4557 68.5869 47.1355C67.9071 47.8154 67.0007 48.1175 65.7921 48.1175C64.6591 48.1175 63.8282 47.8154 63.0728 47.1355C62.3929 46.4557 62.0153 45.5493 62.0153 44.4918V43.0566C61.2599 44.7184 60.1269 46.0025 58.6161 46.9089C57.1054 47.8154 55.2925 48.2686 53.253 48.2686C51.2136 48.2686 49.3251 47.8154 47.5878 46.9845C45.926 46.1536 44.5663 44.945 43.5844 43.5098C42.6024 41.9991 42.1492 40.4128 42.1492 38.5244C42.1492 36.2583 42.7535 34.4454 43.8865 33.1613C45.0196 31.8772 46.908 30.8952 49.5517 30.2909C52.1955 29.7621 55.7457 29.46 60.429 29.46H62.0153V27.9493C62.0153 25.9098 61.5621 24.3235 60.6556 23.4171C59.7492 22.4351 58.314 21.9819 56.35 21.9819C55.1415 21.9819 53.8573 22.133 52.5732 22.5106C51.2891 22.8883 49.7784 23.4171 48.041 24.0969C46.908 24.6257 46.1526 24.9278 45.6239 24.9278C44.8685 24.9278 44.2642 24.6257 43.7354 24.0969C43.2822 23.5681 42.9801 22.8128 42.9801 21.9063C42.9801 21.151 43.1311 20.5467 43.5088 20.0179C43.8865 19.4892 44.4908 18.9604 45.3217 18.5072C46.8324 17.6763 48.5698 17.072 50.6093 16.6188C52.6487 16.1656 54.6882 15.939 56.6522 15.939C61.1088 15.939 64.2814 17.072 66.3964 19.187ZM59.9758 40.4128C61.3354 38.9776 61.9397 37.1647 61.9397 34.8986V33.539H60.8067C57.9363 33.539 55.7457 33.69 54.235 33.9166C52.6487 34.1433 51.5157 34.5965 50.8359 35.2763C50.156 35.8806 49.8539 36.787 49.8539 37.8446C49.8539 39.2042 50.3071 40.3372 51.2891 41.1682C52.2711 41.9991 53.4041 42.4523 54.8393 42.4523C56.9543 42.6033 58.6161 41.848 59.9758 40.4128Z" fill="white"/>
<path d="M78.1044 9.29148C77.2735 8.53612 76.8203 7.4786 76.8203 6.19448C76.8203 4.91037 77.2735 3.92839 78.1044 3.17302C78.9353 2.41766 80.0684 2.03998 81.5036 2.03998C82.8632 2.03998 83.9963 2.41766 84.9027 3.17302C85.7336 3.92839 86.1868 4.9859 86.1868 6.19448C86.1868 7.40307 85.7336 8.46058 84.9027 9.29148C84.0718 10.0468 82.9387 10.5001 81.5036 10.5001C80.0684 10.4245 78.9353 10.0468 78.1044 9.29148Z" fill="#F1D427"/>
<path d="M78.7092 47.211C77.9539 46.5312 77.5762 45.6247 77.5762 44.4162V19.8668C77.5762 18.6582 77.9539 17.6762 78.7092 17.0719C79.4646 16.4676 80.371 16.09 81.5041 16.09C82.6371 16.09 83.6191 16.3921 84.3744 17.0719C85.1298 17.6762 85.5075 18.6582 85.5075 19.8668V44.4162C85.5075 45.6247 85.1298 46.6067 84.3744 47.211C83.6191 47.8908 82.6371 48.193 81.5041 48.193C80.371 48.193 79.4646 47.8153 78.7092 47.211Z" fill="white"/>
<path d="M120.102 19.1116C121.915 21.2267 122.822 24.3992 122.822 28.7048V44.3408C122.822 45.5494 122.444 46.4559 121.764 47.1357C121.084 47.8155 120.102 48.1177 118.894 48.1177C117.685 48.1177 116.703 47.8155 115.948 47.1357C115.193 46.4559 114.89 45.5494 114.89 44.3408V29.158C114.89 26.7408 114.437 25.0035 113.531 23.8704C112.624 22.7374 111.189 22.2086 109.225 22.2086C106.959 22.2086 105.071 22.964 103.711 24.3992C102.351 25.8344 101.672 27.7983 101.672 30.14V44.2653C101.672 45.4739 101.294 46.3803 100.614 47.0601C99.8587 47.74 98.9523 48.0421 97.6681 48.0421C96.4595 48.0421 95.4776 47.74 94.7978 47.0601C94.1179 46.3803 93.7402 45.4739 93.7402 44.2653V19.7915C93.7402 18.6584 94.1179 17.8275 94.7978 17.1477C95.5531 16.4679 96.4595 16.1657 97.7437 16.1657C98.8767 16.1657 99.7076 16.4679 100.463 17.1477C101.143 17.8275 101.52 18.6584 101.52 19.7159V21.4533C102.578 19.7159 104.013 18.3563 105.751 17.4498C107.563 16.5434 109.527 16.0902 111.793 16.0902C115.495 15.9391 118.29 16.9966 120.102 19.1116Z" fill="white"/>
<path d="M108.075 55.1415C108.151 55.217 108.151 55.2926 108.151 55.3681V61.26C108.151 61.3355 108.151 61.4111 108.075 61.4866C108 61.5621 107.924 61.5621 107.849 61.5621C107.773 61.5621 107.697 61.4866 107.622 61.4111L103.618 56.048V61.26C103.618 61.3355 103.618 61.4111 103.543 61.4866C103.467 61.5621 103.467 61.5621 103.316 61.5621C103.241 61.5621 103.165 61.5621 103.09 61.4866C103.014 61.4111 103.014 61.3355 103.014 61.26V55.3681C103.014 55.2926 103.014 55.2171 103.09 55.1415C103.165 55.066 103.241 55.066 103.316 55.066C103.392 55.066 103.467 55.1415 103.543 55.217L107.471 60.5802V55.3681C107.471 55.2926 107.471 55.217 107.546 55.1415C107.622 55.066 107.622 55.066 107.773 55.066C107.924 55.066 108 55.066 108.075 55.1415Z" fill="white"/>
<path fill-rule="evenodd" clip-rule="evenodd" d="M113.212 60.6553C113.287 60.7308 113.287 60.7308 113.287 60.8063C113.287 60.9574 113.212 61.0329 112.985 61.184C112.532 61.4106 112.079 61.5617 111.626 61.5617C110.946 61.5617 110.417 61.3351 110.039 60.9574C109.662 60.5797 109.435 59.9754 109.435 59.2956C109.435 58.8424 109.511 58.4647 109.662 58.087C109.813 57.7093 110.039 57.4827 110.417 57.2561C110.795 57.0295 111.097 56.954 111.475 56.954C112.079 56.954 112.457 57.105 112.834 57.4827C113.136 57.8604 113.363 58.3892 113.363 58.9935C113.363 59.069 113.363 59.2201 113.287 59.2201C113.212 59.2956 113.136 59.2956 113.061 59.2956H110.039C110.039 59.8244 110.19 60.2776 110.493 60.5797C110.795 60.8819 111.172 61.0329 111.626 61.0329C111.852 61.0329 112.079 61.0329 112.305 60.9574C112.457 60.8819 112.683 60.8063 112.834 60.6553C112.985 60.5797 113.061 60.5042 113.136 60.5042C113.212 60.5042 113.136 60.5797 113.212 60.6553ZM110.417 57.8604C110.19 58.1626 110.039 58.4647 109.964 58.9935H112.759C112.759 58.5402 112.608 58.1626 112.381 57.8604C112.154 57.6338 111.852 57.4827 111.399 57.4827C111.021 57.4827 110.719 57.5583 110.417 57.8604Z" fill="white"/>
<path d="M117.819 57.03C117.895 57.03 117.97 57.03 117.97 57.1055C118.046 57.181 118.046 57.181 118.046 57.2566C118.046 57.3321 118.046 57.3321 118.046 57.4076L116.233 61.3355C116.233 61.4111 116.158 61.4866 116.082 61.4866C116.006 61.4866 115.931 61.5621 115.931 61.5621C115.855 61.5621 115.78 61.5621 115.704 61.4866C115.629 61.4111 115.629 61.4111 115.553 61.3355L113.816 57.4077V57.3321C113.816 57.2566 113.816 57.181 113.891 57.181C113.967 57.1055 114.043 57.1055 114.118 57.1055C114.269 57.1055 114.345 57.181 114.345 57.2566L116.006 60.8823L117.668 57.2566C117.668 57.1055 117.744 57.03 117.819 57.03Z" fill="white"/>
<path fill-rule="evenodd" clip-rule="evenodd" d="M122.503 60.6553C122.578 60.7308 122.578 60.7308 122.578 60.8063C122.578 60.9574 122.503 61.0329 122.276 61.184C121.823 61.4106 121.37 61.5617 120.917 61.5617C120.237 61.5617 119.708 61.3351 119.33 60.9574C118.953 60.5797 118.726 59.9754 118.726 59.2956C118.726 58.8424 118.802 58.4647 118.953 58.087C119.104 57.7093 119.33 57.4827 119.708 57.2561C120.086 57.0295 120.388 56.954 120.766 56.954C121.37 56.954 121.748 57.105 122.125 57.4827C122.427 57.8604 122.654 58.3892 122.654 58.9935C122.654 59.069 122.654 59.2201 122.578 59.2201C122.503 59.2956 122.427 59.2956 122.352 59.2956H119.33C119.33 59.8244 119.481 60.2776 119.784 60.5797C120.086 60.8819 120.463 61.0329 120.917 61.0329C121.143 61.0329 121.37 61.0329 121.596 60.9574C121.748 60.8819 121.974 60.8063 122.125 60.6553C122.276 60.5797 122.352 60.5042 122.427 60.5042C122.503 60.5042 122.427 60.5797 122.503 60.6553ZM119.708 57.8604C119.481 58.1626 119.33 58.4647 119.255 58.9935H122.05C122.05 58.5402 121.899 58.1626 121.672 57.8604C121.445 57.6338 121.143 57.4827 120.69 57.4827C120.312 57.4827 120.01 57.5583 119.708 57.8604Z" fill="white"/>
<path d="M126.052 57.1056C126.128 57.1056 126.128 57.1811 126.128 57.2567C126.128 57.4077 126.052 57.4833 125.826 57.4833H125.524C125.07 57.5588 124.768 57.7099 124.542 57.9365C124.315 58.2386 124.24 58.5408 124.24 58.8429V61.1845C124.24 61.2601 124.24 61.3356 124.164 61.4112C124.088 61.4867 124.013 61.4867 123.937 61.4867C123.862 61.4867 123.786 61.4867 123.711 61.4112C123.635 61.3356 123.635 61.2601 123.635 61.1845V57.1811C123.635 57.1056 123.635 57.03 123.711 56.9545C123.786 56.879 123.862 56.879 123.937 56.879C124.013 56.879 124.088 56.879 124.164 56.9545C124.24 57.03 124.24 57.1056 124.24 57.1811V57.7854C124.466 57.2567 124.919 56.9545 125.599 56.9545H125.75C125.901 57.0301 125.977 57.0301 126.052 57.1056Z" fill="white"/>
<path d="M129.15 61.4866C129.074 61.411 129.074 61.3355 129.074 61.26V55.3681C129.074 55.2926 129.074 55.217 129.15 55.1415C129.225 55.066 129.301 55.066 129.376 55.066C129.452 55.066 129.527 55.066 129.603 55.1415C129.679 55.217 129.679 55.2926 129.679 55.3681V61.26C129.679 61.3355 129.679 61.411 129.603 61.4866C129.527 61.5621 129.452 61.5621 129.376 61.5621C129.301 61.5621 129.225 61.5621 129.15 61.4866Z" fill="white"/>
<path fill-rule="evenodd" clip-rule="evenodd" d="M134.588 60.6553C134.663 60.7308 134.663 60.7308 134.663 60.8063C134.663 60.9574 134.588 61.0329 134.361 61.184C133.908 61.4106 133.455 61.5617 133.002 61.5617C132.322 61.5617 131.793 61.3351 131.415 60.9574C131.038 60.5797 130.811 59.9754 130.811 59.2956C130.811 58.8424 130.887 58.4647 131.038 58.087C131.189 57.7093 131.415 57.4827 131.793 57.2561C132.171 57.0295 132.473 56.954 132.851 56.954C133.455 56.954 133.832 57.105 134.21 57.4827C134.512 57.8604 134.739 58.3892 134.739 58.9935C134.739 59.069 134.739 59.2201 134.663 59.2201C134.588 59.2956 134.512 59.2956 134.437 59.2956H131.415C131.415 59.8244 131.566 60.2776 131.869 60.5797C132.171 60.8819 132.548 61.0329 133.002 61.0329C133.228 61.0329 133.455 61.0329 133.681 60.9574C133.832 60.8819 134.059 60.8063 134.21 60.6553C134.361 60.5797 134.437 60.5042 134.512 60.5042C134.588 60.5042 134.588 60.5797 134.588 60.6553ZM131.869 57.8604C131.642 58.1626 131.491 58.4647 131.415 58.9935H134.21C134.21 58.5402 134.059 58.1626 133.832 57.8604C133.606 57.6338 133.304 57.4827 132.851 57.4827C132.473 57.4827 132.095 57.5583 131.869 57.8604Z" fill="white"/>
<path d="M137.988 61.3352C137.988 61.4107 137.988 61.4863 137.913 61.4863C137.837 61.5618 137.762 61.5618 137.686 61.5618H137.459C137.006 61.5618 136.629 61.4107 136.402 61.1086C136.175 60.882 136.1 60.5043 136.1 59.9755V57.5584H135.42C135.344 57.5584 135.269 57.5584 135.269 57.4828C135.193 57.4073 135.193 57.4073 135.193 57.3318C135.193 57.2562 135.193 57.1807 135.269 57.1807C135.344 57.1052 135.344 57.1052 135.42 57.1052H136.1V55.9721C136.1 55.8966 136.1 55.8211 136.175 55.7455C136.251 55.67 136.326 55.67 136.402 55.67C136.478 55.67 136.553 55.67 136.629 55.7455C136.704 55.8211 136.704 55.8966 136.704 55.9721V57.1052H137.837C137.913 57.1052 137.988 57.1052 137.988 57.1807C138.064 57.2562 138.064 57.2562 138.064 57.3318C138.064 57.4073 138.064 57.4828 137.988 57.4828C137.913 57.5584 137.913 57.5584 137.837 57.5584H136.704V59.9755C136.704 60.3532 136.78 60.5798 136.931 60.8064C137.082 60.9575 137.308 61.0331 137.611 61.1086H137.837C137.913 61.1086 137.988 61.1841 137.988 61.3352Z" fill="white"/>
<path fill-rule="evenodd" clip-rule="evenodd" d="M144.182 57.2566C144.484 57.4832 144.711 57.7098 144.862 58.0875C145.013 58.4652 145.088 58.8428 145.088 59.2961C145.088 59.7493 145.013 60.127 144.862 60.5047C144.711 60.8823 144.484 61.1089 144.182 61.26C143.88 61.4111 143.578 61.5622 143.124 61.5622C142.747 61.5622 142.445 61.4866 142.218 61.3356C141.991 61.1845 141.765 60.9579 141.614 60.6557V62.9218C141.614 62.9974 141.614 63.0729 141.538 63.1484C141.463 63.224 141.387 63.224 141.311 63.224C141.236 63.224 141.16 63.224 141.085 63.1484C141.009 63.0729 141.009 62.9974 141.009 62.9218V57.3321C141.009 57.2566 141.009 57.1811 141.085 57.1055C141.16 57.03 141.236 57.03 141.311 57.03C141.387 57.03 141.463 57.03 141.538 57.1055C141.614 57.181 141.614 57.2566 141.614 57.3321V57.9364C141.765 57.6343 141.916 57.4077 142.218 57.2566C142.52 57.1055 142.822 57.03 143.124 57.03C143.578 57.03 143.88 57.1055 144.182 57.2566ZM144.182 60.6557C144.408 60.3536 144.56 59.9004 144.56 59.3716C144.56 58.7673 144.408 58.3141 144.182 58.012C143.955 57.7098 143.578 57.5587 143.124 57.5587C142.671 57.5587 142.293 57.7098 142.067 58.012C141.84 58.3141 141.689 58.7673 141.689 59.3716C141.689 59.9759 141.84 60.3536 142.067 60.7313C142.293 61.1089 142.671 61.1845 143.124 61.1845C143.578 61.1089 143.88 60.9579 144.182 60.6557Z" fill="white"/>
<path fill-rule="evenodd" clip-rule="evenodd" d="M149.242 57.4076C149.469 57.7098 149.62 58.0875 149.62 58.6917V61.26C149.62 61.3355 149.62 61.4111 149.544 61.4866C149.469 61.5621 149.393 61.5621 149.318 61.5621C149.242 61.5621 149.166 61.5621 149.091 61.4866C149.015 61.4111 149.015 61.3355 149.015 61.26V60.7312C148.864 61.0334 148.713 61.1845 148.487 61.3355C148.26 61.4866 147.958 61.5621 147.656 61.5621C147.354 61.5621 147.127 61.4866 146.9 61.4111C146.674 61.26 146.447 61.1089 146.372 60.9578C146.221 60.7313 146.145 60.5046 146.145 60.278C146.145 59.9759 146.221 59.6737 146.372 59.5227C146.523 59.3716 146.825 59.2205 147.203 59.145C147.58 59.0694 148.109 58.9939 148.864 58.9939H149.091V58.6918C149.091 58.3141 149.015 58.0119 148.864 57.7853C148.713 57.6343 148.411 57.4832 148.109 57.4832C147.656 57.4832 147.203 57.6342 146.825 57.8609C146.825 57.8609 146.749 57.9364 146.674 57.9364C146.598 58.0119 146.523 58.0119 146.447 58.0119C146.372 58.0119 146.372 58.0119 146.296 57.9364C146.221 57.8609 146.221 57.8609 146.221 57.7853C146.221 57.6343 146.296 57.5587 146.523 57.4076C146.749 57.2566 146.976 57.181 147.202 57.1055C147.429 57.03 147.731 57.03 147.958 57.03C148.562 57.0299 148.94 57.181 149.242 57.4076ZM148.713 60.7312C148.94 60.4291 149.091 60.1269 149.091 59.7493V59.4471H148.94C148.336 59.4471 147.882 59.4471 147.58 59.5227C147.278 59.5982 147.051 59.6737 146.9 59.7493C146.749 59.9003 146.674 60.0514 146.674 60.278C146.674 60.5046 146.749 60.7312 146.976 60.8823C147.203 61.0334 147.429 61.1089 147.656 61.1089C148.109 61.1089 148.487 60.9578 148.713 60.7312Z" fill="white"/>
<path fill-rule="evenodd" clip-rule="evenodd" d="M151.055 55.8968C150.98 55.8213 150.904 55.7458 150.904 55.5947C150.904 55.4436 150.904 55.368 151.055 55.2925C151.131 55.217 151.206 55.217 151.358 55.217C151.509 55.217 151.584 55.217 151.66 55.2925C151.735 55.368 151.811 55.4436 151.811 55.5947C151.811 55.7457 151.811 55.8213 151.66 55.8968C151.584 55.9724 151.509 55.9724 151.358 55.9724C151.206 55.9724 151.131 55.9724 151.055 55.8968ZM151.131 61.4865C151.055 61.411 151.055 61.3354 151.055 61.2599V57.2565C151.055 57.1809 151.055 57.1054 151.131 57.0298C151.206 56.9543 151.282 56.9543 151.358 56.9543C151.433 56.9543 151.509 56.9543 151.584 57.0298C151.66 57.1054 151.66 57.1809 151.66 57.2565V61.2599C151.66 61.3354 151.66 61.411 151.584 61.4865C151.509 61.562 151.433 61.562 151.358 61.562C151.282 61.562 151.206 61.562 151.131 61.4865Z" fill="white"/>
<path d="M156.72 58.6913V61.2596C156.72 61.3351 156.72 61.4107 156.645 61.4862C156.569 61.5617 156.494 61.5617 156.418 61.5617C156.343 61.5617 156.267 61.5617 156.192 61.4862C156.116 61.4107 156.116 61.3351 156.116 61.2596V58.7669C156.116 58.3136 156.04 58.0115 155.889 57.7849C155.738 57.5583 155.436 57.4827 155.059 57.4827C154.605 57.4827 154.303 57.6338 154.001 57.8604C153.774 58.1626 153.623 58.4647 153.623 58.918V61.2596C153.623 61.3351 153.623 61.4106 153.548 61.4862C153.472 61.5617 153.397 61.5617 153.321 61.5617C153.246 61.5617 153.17 61.5617 153.095 61.4862C153.019 61.4107 153.019 61.3351 153.019 61.2596V57.2561C153.019 57.1806 153.019 57.1051 153.095 57.0295C153.17 56.954 153.246 56.954 153.321 56.954C153.397 56.954 153.472 56.954 153.548 57.0295C153.623 57.1051 153.623 57.1806 153.623 57.2561V57.8604C153.774 57.5583 154.001 57.4072 154.228 57.2561C154.454 57.1051 154.832 57.0295 155.134 57.0295C156.192 57.0295 156.72 57.5583 156.72 58.6913Z" fill="white"/>
<path fill-rule="evenodd" clip-rule="evenodd" d="M162.696 55.32C162.771 55.32 162.831 55.3427 162.876 55.388C162.921 55.4333 162.944 55.4933 162.944 55.568V60.784C162.944 60.8587 162.921 60.9187 162.876 60.964C162.831 61.0093 162.771 61.032 162.696 61.032C162.621 61.032 162.563 61.0093 162.52 60.964C162.477 60.9187 162.456 60.8587 162.456 60.784V60.256C162.339 60.5173 162.165 60.716 161.936 60.852C161.707 60.988 161.435 61.056 161.12 61.056C160.779 61.056 160.477 60.972 160.216 60.804C159.955 60.636 159.752 60.3987 159.608 60.092C159.464 59.7853 159.392 59.4293 159.392 59.024C159.392 58.624 159.464 58.2733 159.608 57.972C159.752 57.6707 159.955 57.4373 160.216 57.272C160.477 57.1067 160.779 57.024 161.12 57.024C161.435 57.024 161.707 57.092 161.936 57.228C162.165 57.364 162.339 57.5627 162.456 57.824V55.568C162.456 55.4933 162.477 55.4333 162.52 55.388C162.563 55.3427 162.621 55.32 162.696 55.32ZM161.184 60.624C161.589 60.624 161.903 60.4867 162.124 60.212C162.345 59.9373 162.456 59.5467 162.456 59.04C162.456 58.5333 162.347 58.1413 162.128 57.864C161.909 57.5867 161.597 57.448 161.192 57.448C160.781 57.448 160.464 57.5853 160.24 57.86C160.016 58.1347 159.904 58.5227 159.904 59.024C159.904 59.5307 160.016 59.924 160.24 60.204C160.464 60.484 160.779 60.624 161.184 60.624ZM164.672 61.04C164.597 61.04 164.537 61.0187 164.492 60.976C164.447 60.9333 164.424 60.872 164.424 60.792V57.288C164.424 57.208 164.447 57.1467 164.492 57.104C164.537 57.0613 164.597 57.04 164.672 57.04C164.747 57.04 164.805 57.0613 164.848 57.104C164.891 57.1467 164.912 57.208 164.912 57.288V60.792C164.912 60.872 164.891 60.9333 164.848 60.976C164.805 61.0187 164.747 61.04 164.672 61.04ZM164.672 56.136C164.565 56.136 164.479 56.104 164.412 56.04C164.345 55.976 164.312 55.8933 164.312 55.792C164.312 55.6853 164.345 55.6 164.412 55.536C164.479 55.472 164.565 55.44 164.672 55.44C164.779 55.44 164.865 55.472 164.932 55.536C164.999 55.6 165.032 55.6853 165.032 55.792C165.032 55.8933 164.999 55.976 164.932 56.04C164.865 56.104 164.779 56.136 164.672 56.136ZM167.952 61.056C167.595 61.056 167.28 60.9733 167.008 60.808C166.736 60.6427 166.525 60.408 166.376 60.104C166.227 59.8 166.152 59.4507 166.152 59.056C166.152 58.656 166.228 58.3027 166.38 57.996C166.532 57.6893 166.745 57.4507 167.02 57.28C167.295 57.1093 167.611 57.024 167.968 57.024C168.171 57.024 168.368 57.0507 168.56 57.104C168.752 57.1573 168.923 57.2373 169.072 57.344C169.168 57.4133 169.236 57.476 169.276 57.532C169.316 57.588 169.336 57.648 169.336 57.712C169.336 57.7707 169.32 57.8187 169.288 57.856C169.256 57.8933 169.216 57.912 169.168 57.912C169.115 57.912 169.029 57.8667 168.912 57.776C168.773 57.6747 168.635 57.5947 168.496 57.536C168.357 57.4773 168.189 57.448 167.992 57.448C167.576 57.448 167.251 57.5907 167.016 57.876C166.781 58.1613 166.664 58.5547 166.664 59.056C166.664 59.552 166.78 59.9373 167.012 60.212C167.244 60.4867 167.568 60.624 167.984 60.624C168.187 60.624 168.356 60.5947 168.492 60.536C168.628 60.4773 168.776 60.3973 168.936 60.296C168.984 60.264 169.031 60.2347 169.076 60.208C169.121 60.1813 169.157 60.168 169.184 60.168C169.237 60.168 169.28 60.1867 169.312 60.224C169.344 60.2613 169.36 60.3067 169.36 60.36C169.36 60.424 169.341 60.48 169.304 60.528C169.267 60.576 169.195 60.6373 169.088 60.712C168.944 60.8187 168.769 60.9027 168.564 60.964C168.359 61.0253 168.155 61.056 167.952 61.056ZM172.088 60.632C172.237 60.648 172.312 60.7173 172.312 60.84C172.312 60.904 172.288 60.9547 172.24 60.992C172.192 61.0293 172.115 61.0453 172.008 61.04L171.784 61.024C171.379 60.9973 171.079 60.8733 170.884 60.652C170.689 60.4307 170.592 60.0933 170.592 59.64V57.512H169.984C169.92 57.512 169.869 57.4947 169.832 57.46C169.795 57.4253 169.776 57.3787 169.776 57.32C169.776 57.2613 169.795 57.2133 169.832 57.176C169.869 57.1387 169.92 57.12 169.984 57.12H170.592V56.128C170.592 56.048 170.613 55.9867 170.656 55.944C170.699 55.9013 170.757 55.88 170.832 55.88C170.907 55.88 170.967 55.9013 171.012 55.944C171.057 55.9867 171.08 56.048 171.08 56.128V57.12H172.048C172.117 57.12 172.171 57.1387 172.208 57.176C172.245 57.2133 172.264 57.2613 172.264 57.32C172.264 57.3787 172.245 57.4253 172.208 57.46C172.171 57.4947 172.117 57.512 172.048 57.512H171.08V59.664C171.08 59.9947 171.144 60.2307 171.272 60.372C171.4 60.5133 171.6 60.5947 171.872 60.616L172.088 60.632ZM174.752 57.024C175.221 57.024 175.572 57.1467 175.804 57.392C176.036 57.6373 176.152 58.008 176.152 58.504V60.784C176.152 60.8587 176.131 60.9187 176.088 60.964C176.045 61.0093 175.987 61.032 175.912 61.032C175.837 61.032 175.779 61.0093 175.736 60.964C175.693 60.9187 175.672 60.8587 175.672 60.784V60.304C175.56 60.544 175.397 60.7293 175.184 60.86C174.971 60.9907 174.725 61.056 174.448 61.056C174.197 61.056 173.968 61.0053 173.76 60.904C173.552 60.8027 173.388 60.6613 173.268 60.48C173.148 60.2987 173.088 60.0987 173.088 59.88C173.088 59.592 173.163 59.368 173.312 59.208C173.461 59.048 173.709 58.9333 174.056 58.864C174.403 58.7947 174.885 58.76 175.504 58.76H175.672V58.464C175.672 58.112 175.6 57.8547 175.456 57.692C175.312 57.5293 175.085 57.448 174.776 57.448C174.381 57.448 174.005 57.552 173.648 57.76C173.632 57.7707 173.591 57.7987 173.524 57.844C173.457 57.8893 173.4 57.912 173.352 57.912C173.299 57.912 173.255 57.892 173.22 57.852C173.185 57.812 173.168 57.7627 173.168 57.704C173.168 57.5867 173.261 57.472 173.448 57.36C173.635 57.2533 173.843 57.1707 174.072 57.112C174.301 57.0533 174.528 57.024 174.752 57.024ZM174.488 60.632C174.835 60.632 175.119 60.5147 175.34 60.28C175.561 60.0453 175.672 59.7467 175.672 59.384V59.12H175.52C175.008 59.12 174.616 59.1413 174.344 59.184C174.072 59.2267 173.88 59.3 173.768 59.404C173.656 59.508 173.6 59.6587 173.6 59.856C173.6 60.08 173.685 60.2653 173.856 60.412C174.027 60.5587 174.237 60.632 174.488 60.632ZM179.312 60.632C179.461 60.648 179.536 60.7173 179.536 60.84C179.536 60.904 179.512 60.9547 179.464 60.992C179.416 61.0293 179.339 61.0453 179.232 61.04L179.008 61.024C178.603 60.9973 178.303 60.8733 178.108 60.652C177.913 60.4307 177.816 60.0933 177.816 59.64V57.512H177.208C177.144 57.512 177.093 57.4947 177.056 57.46C177.019 57.4253 177 57.3787 177 57.32C177 57.2613 177.019 57.2133 177.056 57.176C177.093 57.1387 177.144 57.12 177.208 57.12H177.816V56.128C177.816 56.048 177.837 55.9867 177.88 55.944C177.923 55.9013 177.981 55.88 178.056 55.88C178.131 55.88 178.191 55.9013 178.236 55.944C178.281 55.9867 178.304 56.048 178.304 56.128V57.12H179.272C179.341 57.12 179.395 57.1387 179.432 57.176C179.469 57.2133 179.488 57.2613 179.488 57.32C179.488 57.3787 179.469 57.4253 179.432 57.46C179.395 57.4947 179.341 57.512 179.272 57.512H178.304V59.664C178.304 59.9947 178.368 60.2307 178.496 60.372C178.624 60.5133 178.824 60.5947 179.096 60.616L179.312 60.632ZM183.416 60.168C183.464 60.168 183.505 60.188 183.54 60.228C183.575 60.268 183.592 60.3147 183.592 60.368C183.592 60.4853 183.501 60.6 183.32 60.712C182.936 60.9413 182.531 61.056 182.104 61.056C181.512 61.056 181.045 60.8773 180.704 60.52C180.363 60.1627 180.192 59.672 180.192 59.048C180.192 58.648 180.268 58.2947 180.42 57.988C180.572 57.6813 180.785 57.444 181.06 57.276C181.335 57.108 181.651 57.024 182.008 57.024C182.509 57.024 182.905 57.1853 183.196 57.508C183.487 57.8307 183.632 58.2747 183.632 58.84C183.632 58.936 183.611 59.0067 183.568 59.052C183.525 59.0973 183.456 59.12 183.36 59.12H180.696C180.712 59.6107 180.84 59.984 181.08 60.24C181.32 60.496 181.659 60.624 182.096 60.624C182.325 60.624 182.517 60.5933 182.672 60.532C182.827 60.4707 182.992 60.3893 183.168 60.288C183.285 60.208 183.368 60.168 183.416 60.168ZM182.008 57.424C181.635 57.424 181.336 57.5413 181.112 57.776C180.888 58.0107 180.755 58.3387 180.712 58.76H183.184C183.173 58.3333 183.067 58.004 182.864 57.772C182.661 57.54 182.376 57.424 182.008 57.424Z" fill="white"/>
<path d="M93.4386 61.4872H0L4.00343 55.973H96.6867L93.4386 61.4872Z" fill="white"/>
<path d="M141.48 30.6679C142.537 30.2903 142.764 31.1212 142.764 31.7254C142.764 32.4053 142.386 33.0851 141.404 32.783C142.084 32.0276 142.084 31.1212 141.48 30.6679Z" fill="#223342"/>
<path fill-rule="evenodd" clip-rule="evenodd" d="M140.497 32.7073C139.969 32.1785 139.213 31.6498 139.893 30.8189C140.044 30.6678 140.724 30.5923 140.724 30.7434C141.102 31.4232 140.648 32.0275 140.497 32.7073ZM140.271 30.97L140.346 30.8944L140.271 30.8189C140.271 30.8944 140.195 30.8944 140.195 30.97C140.195 30.97 140.195 30.97 140.271 30.97Z" fill="#223342"/>
<path d="M142.839 31.8764C143.141 31.4232 143.141 30.5923 143.746 30.6678C144.199 30.7434 144.048 31.4987 143.897 31.8764C143.67 32.6318 143.217 31.6498 142.839 31.8764Z" fill="#223342"/>
<path d="M157.116 50.9116C171.175 50.9116 182.572 39.5146 182.572 25.4558C182.572 11.3969 171.175 0 157.116 0C143.057 0 131.66 11.3969 131.66 25.4558C131.66 39.5146 143.057 50.9116 157.116 50.9116Z" fill="white"/>
<path d="M164.821 47.8904C162.404 48.6458 159.911 48.9479 157.418 48.7969C151.753 48.4947 146.843 46.3042 142.689 42.3007C134.606 34.5205 133.473 21.6793 140.12 12.6149C147.599 2.26641 159.835 1.58658 166.86 4.68357C156.965 2.34194 148.656 4.60804 142.311 12.6149C138.61 17.2982 137.326 22.7368 138.005 28.6286C139.365 41.3943 151.98 50.6853 164.821 47.8904Z" fill="#88BC77" stroke="#88BC77" stroke-width="2" stroke-linejoin="round"/>
<path d="M140.272 30.97H140.196C140.196 30.8945 140.272 30.8945 140.272 30.819L140.347 30.8945C140.272 30.8945 140.272 30.97 140.272 30.97Z" fill="#FEFEFE"/>
<path d="M148.051 16.9957C151.299 15.7871 154.396 14.5785 157.795 14.0498C159.079 13.8232 160.363 13.6721 161.647 13.9743C163.007 14.2764 163.611 15.1828 163.309 16.5425C162.856 18.582 161.723 20.3949 160.59 22.1322C159.457 23.794 158.097 25.3047 156.964 26.891C156.889 26.9665 156.813 27.0421 156.737 27.1176C155.604 28.7039 155.907 29.8369 157.644 30.6678C159.306 31.4232 161.043 31.8764 162.705 32.5562C163.762 33.0094 164.895 33.3871 165.802 34.1425C167.01 35.1245 167.237 36.182 166.331 37.5416C165.651 38.5236 164.744 39.279 163.838 40.0343C161.874 41.4695 159.759 42.6781 157.644 43.7356C157.417 43.8867 157.191 43.9622 156.889 43.8112C157.87 42.9803 158.853 42.3004 159.759 41.394C160.363 40.7142 160.968 40.0343 161.345 39.2034C161.798 38.1459 161.572 37.3906 160.665 36.7107C159.834 36.1064 158.853 35.7288 157.871 35.3511C156.058 34.5957 154.169 33.9914 152.507 33.0094C151.299 32.2541 150.392 31.3476 150.468 29.7614C150.543 28.7794 151.072 28.024 151.601 27.3442C153.338 25.2292 155.227 23.2652 156.737 21.0747C157.266 20.3193 157.795 19.4884 158.097 18.582C158.55 17.2979 158.097 16.5425 156.737 16.2403C155.151 15.9382 153.565 16.2403 151.979 16.5425C150.997 16.6936 150.015 16.9957 149.033 17.2223C148.731 17.0713 148.504 17.2223 148.051 16.9957Z" fill="#87BC78"/>
<path d="M163.536 12.0856C163.536 10.3482 164.971 8.91302 166.784 8.91302C168.522 8.91302 169.957 10.3482 169.957 12.0856C169.957 13.8984 168.446 15.3336 166.709 15.2581C164.896 15.3336 163.536 13.8984 163.536 12.0856Z" fill="#87BC78"/>
<path d="M155.188 18.9124C155.188 18.6592 155.397 18.45 155.661 18.45C155.915 18.45 156.124 18.6592 156.124 18.9124C156.124 19.1766 155.904 19.3858 155.65 19.3747C155.386 19.3858 155.188 19.1766 155.188 18.9124Z" fill="#F1D427"/>
<path d="M152.455 21.0451C152.455 20.6984 152.741 20.412 153.103 20.412C153.45 20.412 153.736 20.6984 153.736 21.0451C153.736 21.4068 153.435 21.6931 153.088 21.6781C152.726 21.6931 152.455 21.4068 152.455 21.0451Z" fill="#F1D427"/>
<path d="M150.161 23.6047C150.161 23.1706 150.52 22.812 150.973 22.812C151.407 22.812 151.765 23.1706 151.765 23.6047C151.765 24.0577 151.388 24.4162 150.954 24.3974C150.501 24.4162 150.161 24.0577 150.161 23.6047Z" fill="#F1D427"/>
<path d="M147.537 27.0171C147.537 26.5483 147.924 26.161 148.414 26.161C148.882 26.161 149.27 26.5483 149.27 27.0171C149.27 27.5062 148.862 27.8935 148.393 27.8731C147.904 27.8935 147.537 27.5062 147.537 27.0171Z" fill="#F1D427"/>
<path d="M147.086 30.8564C147.086 30.3743 147.484 29.976 147.987 29.976C148.469 29.976 148.868 30.3743 148.868 30.8564C148.868 31.3594 148.448 31.7577 147.966 31.7367C147.463 31.7577 147.086 31.3594 147.086 30.8564Z" fill="#F1D427"/>
<path d="M149.4 33.8427C149.4 33.4585 149.717 33.1411 150.118 33.1411C150.503 33.1411 150.82 33.4585 150.82 33.8427C150.82 34.2437 150.486 34.5611 150.102 34.5444C149.701 34.5611 149.4 34.2437 149.4 33.8427Z" fill="#F1D427"/>
<path d="M152.057 35.5495C152.057 35.2179 152.331 34.944 152.677 34.944C153.009 34.944 153.282 35.2179 153.282 35.5495C153.282 35.8955 152.994 36.1694 152.663 36.1549C152.317 36.1694 152.057 35.8955 152.057 35.5495Z" fill="#F1D427"/>
<path d="M154.694 37.2553C154.694 36.966 154.933 36.7271 155.235 36.7271C155.524 36.7271 155.763 36.966 155.763 37.2553C155.763 37.5572 155.511 37.7962 155.222 37.7836C154.92 37.7962 154.694 37.5572 154.694 37.2553Z" fill="#F1D427"/>
<path d="M157.228 38.9617C157.228 38.6585 157.478 38.408 157.795 38.408C158.098 38.408 158.349 38.6585 158.349 38.9617C158.349 39.2781 158.085 39.5286 157.782 39.5154C157.465 39.5286 157.228 39.2781 157.228 38.9617Z" fill="#F1D427"/>
<path d="M156.509 41.0945C156.509 40.8637 156.699 40.673 156.94 40.673C157.171 40.673 157.362 40.8637 157.362 41.0945C157.362 41.3354 157.161 41.5261 156.93 41.516C156.689 41.5261 156.509 41.3354 156.509 41.0945Z" fill="#F1D427"/>
<path d="M155.37 42.8008C155.37 42.6465 155.498 42.519 155.659 42.519C155.813 42.519 155.94 42.6465 155.94 42.8008C155.94 42.9618 155.806 43.0893 155.652 43.0826C155.491 43.0893 155.37 42.9618 155.37 42.8008Z" fill="#F1D427"/>
<path d="M163.007 21.679C163.083 22.1322 163.158 22.5099 163.309 22.9631C163.687 24.2473 164.594 24.7005 165.953 24.3228C167.086 24.0206 167.993 23.3408 168.899 22.661C169.126 22.5099 169.428 22.2833 169.655 22.0567C169.655 22.2078 169.73 22.2078 169.73 22.2833C168.219 23.9451 166.709 25.5314 164.669 26.5134C163.461 27.1176 162.705 26.6644 162.554 25.3048C162.328 24.1717 162.63 22.8876 163.007 21.679Z" fill="#F1D427"/>
</g>
<defs>
<clipPath id="clip0">
<rect width="183.632" height="63.224" fill="white"/>
</clipPath>
</defs>
</svg>
