<svg width="147" height="52" viewBox="0 0 147 52" fill="none" xmlns="http://www.w3.org/2000/svg">
<g clip-path="url(#clip0)">
<g clip-path="url(#clip1)">
<g clip-path="url(#clip2)">
<path fill-rule="evenodd" clip-rule="evenodd" d="M3.2178 38.3077C2.61069 37.7006 2.30713 36.9113 2.30713 35.8792V6.00928C2.30713 5.0379 2.61069 4.24866 3.15709 3.70226C3.7642 3.15585 4.55344 2.91301 5.52482 2.91301H18.0921C21.9169 2.91301 24.8917 3.88439 27.0773 5.76644C29.2022 7.7092 30.295 10.3805 30.295 13.841C30.295 17.3016 29.2022 20.0336 27.0773 21.9763C24.9524 23.9191 21.9169 24.8905 18.092 24.8905H8.98537V35.8792C8.98537 36.9113 8.68181 37.7006 8.0747 38.3077C7.46758 38.9148 6.67834 39.2183 5.64625 39.2183C4.61416 39.2183 3.82491 38.9148 3.2178 38.3077ZM17.2421 19.8514C21.7954 19.8514 24.0418 17.9087 24.0418 13.9017C24.0418 9.8948 21.7954 7.95204 17.2421 7.95204H8.92465V19.7907H17.2421V19.8514Z" fill="black"/>
<path fill-rule="evenodd" clip-rule="evenodd" d="M53.3653 15.9056C55.0652 17.6055 55.9151 20.2161 55.9151 23.7373V36.1832C55.9151 37.0938 55.6723 37.8224 55.1259 38.3688C54.5795 38.9152 53.8509 39.158 52.8796 39.158C51.9689 39.158 51.3011 38.9152 50.694 38.3688C50.1476 37.8224 49.844 37.0938 49.844 36.2439V35.0904C49.2369 36.426 48.3262 37.4581 47.112 38.1866C45.8978 38.9152 44.4407 39.2794 42.8015 39.2794C41.1623 39.2794 39.6445 38.9152 38.2482 38.2473C36.9125 37.5795 35.8197 36.6081 35.0305 35.4546C34.2412 34.2404 33.877 32.9655 33.877 31.4477C33.877 29.6263 34.3626 28.1693 35.2733 27.1372C36.184 26.1051 37.7018 25.3158 39.8267 24.8302C41.9516 24.4052 44.805 24.1623 48.5691 24.1623H49.844V22.9481C49.844 21.3089 49.4797 20.034 48.7512 19.3054C48.0227 18.5162 46.8692 18.1519 45.2907 18.1519C44.3193 18.1519 43.2872 18.2733 42.2551 18.5769C41.223 18.8805 40.0088 19.3054 38.6124 19.8518C37.7018 20.2768 37.0947 20.5197 36.6697 20.5197C36.0626 20.5197 35.5769 20.2768 35.1519 19.8518C34.7876 19.4268 34.5448 18.8197 34.5448 18.0912C34.5448 17.4841 34.6662 16.9984 34.9698 16.5734C35.2733 16.1484 35.759 15.7235 36.4268 15.3592C37.6411 14.6914 39.0374 14.2057 40.6766 13.8414C42.3158 13.4771 43.955 13.295 45.5335 13.295C49.1155 13.295 51.6653 14.2057 53.3653 15.9056ZM48.2048 32.9655C49.2976 31.8119 49.7833 30.3549 49.7833 28.5335V27.4407H48.8726C46.5656 27.4407 44.805 27.5622 43.5908 27.7443C42.3158 27.9264 41.4052 28.2907 40.8588 28.8371C40.3124 29.3228 40.0695 30.0513 40.0695 30.9013C40.0695 31.9941 40.4338 32.9047 41.223 33.5726C42.0123 34.2404 42.9229 34.6047 44.0764 34.6047C45.7764 34.7261 47.112 34.119 48.2048 32.9655Z" fill="black"/>
<path d="M62.7752 7.95229C62.1074 7.34517 61.7432 6.49522 61.7432 5.46313C61.7432 4.43104 62.1074 3.64179 62.7752 3.03468C63.4431 2.42756 64.3537 2.12401 65.5072 2.12401C66.6001 2.12401 67.5107 2.42756 68.2392 3.03468C68.9071 3.64179 69.2714 4.49175 69.2714 5.46313C69.2714 6.43451 68.9071 7.28446 68.2392 7.95229C67.5714 8.5594 66.6608 8.92367 65.5072 8.92367C64.3537 8.86296 63.4431 8.5594 62.7752 7.95229Z" fill="#F1D427"/>
<path d="M63.2608 38.4291C62.6537 37.8826 62.3501 37.1541 62.3501 36.1827V16.4516C62.3501 15.4802 62.6537 14.691 63.2608 14.2053C63.8679 13.7196 64.5964 13.416 65.5071 13.416C66.4177 13.416 67.207 13.6589 67.8141 14.2053C68.4212 14.691 68.7248 15.4802 68.7248 16.4516V36.1827C68.7248 37.1541 68.4212 37.9434 67.8141 38.4291C67.207 38.9754 66.4177 39.2183 65.5071 39.2183C64.5964 39.2183 63.8679 38.9147 63.2608 38.4291Z" fill="black"/>
<path d="M96.5315 15.8449C97.9886 17.5448 98.7171 20.0947 98.7171 23.5552V36.1224C98.7171 37.0938 98.4135 37.8224 97.8671 38.3688C97.3207 38.9152 96.5315 39.158 95.5601 39.158C94.5887 39.158 93.7995 38.9152 93.1924 38.3688C92.5852 37.8224 92.3424 37.0938 92.3424 36.1224V23.9195C92.3424 21.9767 91.9781 20.5804 91.2496 19.6697C90.5211 18.759 89.3675 18.334 87.789 18.334C85.9677 18.334 84.45 18.9412 83.3571 20.0947C82.2643 21.2482 81.718 22.8267 81.718 24.7087V36.0617C81.718 37.0331 81.4144 37.7616 80.868 38.308C80.2608 38.8544 79.5323 39.0973 78.5003 39.0973C77.5289 39.0973 76.7396 38.8544 76.1932 38.308C75.6468 37.7616 75.3433 37.0331 75.3433 36.0617V16.3913C75.3433 15.4806 75.6468 14.8128 76.1932 14.2664C76.8003 13.72 77.5289 13.4771 78.561 13.4771C79.4716 13.4771 80.1395 13.72 80.7466 14.2664C81.293 14.8128 81.5965 15.4806 81.5965 16.3306V17.7269C82.4465 16.3306 83.6 15.2378 84.9964 14.5092C86.4534 13.7807 88.0319 13.4164 89.8532 13.4164C92.8281 13.295 95.0744 14.145 96.5315 15.8449Z" fill="black"/>
<path d="M75.0998 49.9039H0L3.2177 45.472H77.7104L75.0998 49.9039Z" fill="#0ABAB5"/>
<path d="M126.28 0.485001C137.579 0.485001 146.739 9.64512 146.739 20.9447C146.739 32.2443 137.579 41.4044 126.28 41.4044C114.98 41.4044 105.82 32.2443 105.82 20.9447C105.82 9.64512 114.98 0.485001 126.28 0.485001Z" fill="#0ABAB5"/>
<path d="M132.472 38.9764C130.529 39.5835 128.526 39.8263 126.522 39.7049C121.969 39.4621 118.023 37.7014 114.684 34.4837C108.187 28.2305 107.277 17.9096 112.619 10.6242C118.63 2.30677 128.465 1.76036 134.111 4.24953C126.158 2.36748 119.48 4.18881 114.38 10.6242C111.405 14.3883 110.373 18.7595 110.92 23.495C112.012 33.7552 122.151 41.2227 132.472 38.9764Z" fill="white" stroke="white" stroke-width="1.5" stroke-linejoin="round"/>
<path d="M118.994 14.1454C121.604 13.1741 124.093 12.2027 126.825 11.7777C127.857 11.5956 128.89 11.4742 129.922 11.717C131.015 11.9598 131.5 12.6884 131.257 13.7812C130.893 15.4204 129.982 16.8775 129.072 18.2738C128.161 19.6095 127.068 20.8237 126.158 22.0986C126.097 22.1593 126.036 22.22 125.975 22.2808C125.065 23.5557 125.308 24.4664 126.704 25.1342C128.04 25.7413 129.436 26.1056 130.772 26.652C131.622 27.0162 132.532 27.3198 133.261 27.9269C134.232 28.7161 134.414 29.5661 133.686 30.6589C133.139 31.4482 132.411 32.0553 131.682 32.6624C130.104 33.8159 128.404 34.7873 126.704 35.6372C126.522 35.7587 126.34 35.8194 126.097 35.6979C126.886 35.0301 127.675 34.4837 128.404 33.7552C128.89 33.2088 129.375 32.6624 129.679 31.9946C130.043 31.1446 129.861 30.5375 129.132 29.9911C128.465 29.5054 127.675 29.2018 126.886 28.8983C125.429 28.2912 123.911 27.8055 122.576 27.0162C121.604 26.4091 120.876 25.6806 120.936 24.4056C120.997 23.6164 121.422 23.0093 121.847 22.4629C123.243 20.763 124.761 19.1845 125.975 17.4239C126.4 16.8167 126.825 16.1489 127.068 15.4204C127.433 14.3883 127.068 13.7812 125.975 13.5383C124.701 13.2955 123.426 13.5383 122.151 13.7812C121.361 13.9026 120.572 14.1454 119.783 14.3276C119.54 14.2062 119.358 14.3276 118.994 14.1454Z" fill="white"/>
<path d="M131.44 10.1989C131.44 8.80252 132.593 7.649 134.051 7.649C135.447 7.649 136.6 8.80252 136.6 10.1989C136.6 11.6559 135.386 12.8095 133.99 12.7487C132.533 12.8095 131.44 11.6559 131.44 10.1989Z" fill="white"/>
<path d="M124.73 15.6856C124.73 15.4821 124.898 15.314 125.11 15.314C125.314 15.314 125.482 15.4821 125.482 15.6856C125.482 15.898 125.305 16.0661 125.102 16.0572C124.889 16.0661 124.73 15.898 124.73 15.6856Z" fill="#F1D427"/>
<path d="M122.534 17.3998C122.534 17.1211 122.764 16.891 123.055 16.891C123.333 16.891 123.563 17.1211 123.563 17.3998C123.563 17.6905 123.321 17.9206 123.042 17.9085C122.752 17.9206 122.534 17.6905 122.534 17.3998Z" fill="#F1D427"/>
<path d="M120.689 19.4571C120.689 19.1082 120.977 18.82 121.341 18.82C121.69 18.82 121.978 19.1082 121.978 19.4571C121.978 19.8212 121.675 20.1094 121.326 20.0942C120.962 20.1094 120.689 19.8212 120.689 19.4571Z" fill="#F1D427"/>
<path d="M118.581 22.2C118.581 21.8233 118.892 21.512 119.285 21.512C119.662 21.512 119.973 21.8233 119.973 22.2C119.973 22.5932 119.645 22.9045 119.269 22.8881C118.875 22.9045 118.581 22.5932 118.581 22.2Z" fill="#F1D427"/>
<path d="M118.218 25.2856C118.218 24.8981 118.538 24.578 118.942 24.578C119.33 24.578 119.65 24.8981 119.65 25.2856C119.65 25.6899 119.313 26.01 118.925 25.9931C118.521 26.01 118.218 25.6899 118.218 25.2856Z" fill="#F1D427"/>
<path d="M120.078 27.6859C120.078 27.3771 120.333 27.122 120.655 27.122C120.964 27.122 121.219 27.3771 121.219 27.6859C121.219 28.0082 120.95 28.2633 120.642 28.2499C120.319 28.2633 120.078 28.0082 120.078 27.6859Z" fill="#F1D427"/>
<path d="M122.213 29.0576C122.213 28.7911 122.433 28.571 122.711 28.571C122.978 28.571 123.198 28.7911 123.198 29.0576C123.198 29.3357 122.966 29.5558 122.7 29.5442C122.421 29.5558 122.213 29.3357 122.213 29.0576Z" fill="#F1D427"/>
<path d="M124.333 30.4286C124.333 30.1961 124.525 30.004 124.768 30.004C125 30.004 125.192 30.1961 125.192 30.4286C125.192 30.6712 124.99 30.8633 124.758 30.8532C124.515 30.8633 124.333 30.6712 124.333 30.4286Z" fill="#F1D427"/>
<path d="M126.37 31.8C126.37 31.5563 126.571 31.355 126.825 31.355C127.069 31.355 127.27 31.5563 127.27 31.8C127.27 32.0543 127.058 32.2556 126.815 32.245C126.56 32.2556 126.37 32.0543 126.37 31.8Z" fill="#F1D427"/>
<path d="M125.791 33.5148C125.791 33.3293 125.944 33.176 126.138 33.176C126.323 33.176 126.477 33.3293 126.477 33.5148C126.477 33.7084 126.315 33.8616 126.13 33.8535C125.936 33.8616 125.791 33.7084 125.791 33.5148Z" fill="#F1D427"/>
<path d="M124.876 34.8865C124.876 34.7625 124.978 34.66 125.108 34.66C125.232 34.66 125.334 34.7625 125.334 34.8865C125.334 35.0159 125.226 35.1183 125.102 35.1129C124.973 35.1183 124.876 35.0159 124.876 34.8865Z" fill="#F1D427"/>
<path d="M131.015 17.909C131.076 18.2733 131.136 18.5768 131.258 18.9411C131.561 19.9732 132.29 20.3375 133.383 20.0339C134.293 19.791 135.022 19.2446 135.75 18.6982C135.933 18.5768 136.175 18.3947 136.357 18.2126C136.357 18.334 136.418 18.334 136.418 18.3947C135.204 19.7303 133.99 21.0053 132.351 21.7945C131.379 22.2802 130.772 21.9159 130.651 20.8231C130.468 19.9125 130.711 18.8804 131.015 17.909Z" fill="#F1D427"/>
</g>
</g>
<g clip-path="url(#clip3)">
<path d="M85.3376 44.6903C85.3988 44.7515 85.3988 44.8128 85.3988 44.8741V49.6526C85.3988 49.7139 85.3988 49.7751 85.3376 49.8364C85.2763 49.8977 85.2151 49.8977 85.1538 49.8977C85.0925 49.8977 85.0313 49.8364 84.97 49.7751L81.7231 45.4254V49.6526C81.7231 49.7139 81.7231 49.7751 81.6618 49.8364C81.6005 49.8977 81.6005 49.8977 81.478 49.8977C81.4167 49.8977 81.3555 49.8977 81.2942 49.8364C81.2329 49.7752 81.2329 49.7139 81.2329 49.6526V44.8741C81.2329 44.8128 81.2329 44.7515 81.2942 44.6903C81.3555 44.629 81.4167 44.629 81.478 44.629C81.5392 44.629 81.6005 44.6903 81.6618 44.7515L84.8475 49.1012V44.8741C84.8475 44.8128 84.8475 44.7515 84.9087 44.6903C84.97 44.629 84.97 44.629 85.0925 44.629C85.2151 44.629 85.2763 44.629 85.3376 44.6903Z" fill="#A8A8A8"/>
<path fill-rule="evenodd" clip-rule="evenodd" d="M89.5031 49.1629C89.5644 49.2242 89.5644 49.2242 89.5644 49.2854C89.5644 49.4079 89.5031 49.4692 89.3194 49.5917C88.9518 49.7755 88.5842 49.898 88.2166 49.898C87.6652 49.898 87.2364 49.7143 86.9301 49.4079C86.6237 49.1016 86.4399 48.6115 86.4399 48.0601C86.4399 47.6926 86.5012 47.3862 86.6237 47.0799C86.7462 46.7736 86.9301 46.5898 87.2364 46.406C87.5427 46.2222 87.7878 46.161 88.094 46.161C88.5842 46.161 88.8905 46.2835 89.1968 46.5898C89.4419 46.8961 89.6257 47.325 89.6257 47.8151C89.6257 47.8764 89.6257 47.9989 89.5644 47.9989C89.5031 48.0601 89.4419 48.0601 89.3806 48.0601H86.9301C86.9301 48.489 87.0526 48.8566 87.2977 49.1016C87.5427 49.3467 87.849 49.4692 88.2166 49.4692C88.4004 49.4692 88.5842 49.4692 88.7679 49.4079C88.8905 49.3467 89.0742 49.2854 89.1968 49.1629C89.3193 49.1016 89.3806 49.0404 89.4418 49.0404C89.5031 49.0404 89.4419 49.1016 89.5031 49.1629ZM87.2364 46.8961C87.0526 47.1412 86.9301 47.3862 86.8688 47.8151H89.1356C89.1356 47.4475 89.013 47.1412 88.8292 46.8961C88.6454 46.7124 88.4004 46.5898 88.0328 46.5898C87.7265 46.5898 87.4814 46.6511 87.2364 46.8961Z" fill="#A8A8A8"/>
<path d="M93.2411 46.222C93.3024 46.222 93.3636 46.222 93.3636 46.2833C93.4249 46.3445 93.4249 46.3445 93.4249 46.4058C93.4249 46.467 93.4249 46.467 93.4249 46.5283L91.9546 49.714C91.9546 49.7753 91.8933 49.8365 91.832 49.8365C91.7708 49.8365 91.7095 49.8978 91.7095 49.8978C91.6483 49.8978 91.587 49.8978 91.5257 49.8365C91.4645 49.7753 91.4645 49.7753 91.4032 49.714L89.9941 46.5283V46.467C89.9941 46.4058 89.9941 46.3445 90.0554 46.3445C90.1167 46.2833 90.1779 46.2833 90.2392 46.2833C90.3617 46.2833 90.423 46.3445 90.423 46.4058L91.7708 49.3464L93.1186 46.4058C93.1186 46.2833 93.1798 46.222 93.2411 46.222Z" fill="#A8A8A8"/>
<path fill-rule="evenodd" clip-rule="evenodd" d="M97.0392 49.1629C97.1005 49.2242 97.1005 49.2242 97.1005 49.2854C97.1005 49.4079 97.0392 49.4692 96.8555 49.5917C96.4879 49.7755 96.1203 49.898 95.7527 49.898C95.2014 49.898 94.7725 49.7143 94.4662 49.4079C94.1599 49.1016 93.9761 48.6115 93.9761 48.0601C93.9761 47.6926 94.0373 47.3862 94.1599 47.0799C94.2824 46.7736 94.4662 46.5898 94.7725 46.406C95.0788 46.2222 95.3239 46.161 95.6302 46.161C96.1203 46.161 96.4266 46.2835 96.7329 46.5898C96.978 46.8961 97.1618 47.325 97.1618 47.8151C97.1618 47.8764 97.1618 47.9989 97.1005 47.9989C97.0392 48.0601 96.978 48.0601 96.9167 48.0601H94.4662C94.4662 48.489 94.5887 48.8566 94.8337 49.1016C95.0788 49.3467 95.3851 49.4692 95.7527 49.4692C95.9365 49.4692 96.1203 49.4692 96.3041 49.4079C96.4266 49.3467 96.6104 49.2854 96.7329 49.1629C96.8555 49.1016 96.9167 49.0404 96.978 49.0404C97.0392 49.0404 96.978 49.1016 97.0392 49.1629ZM94.7725 46.8961C94.5887 47.1412 94.4662 47.3862 94.4049 47.8151H96.6716C96.6716 47.4475 96.5491 47.1412 96.3653 46.8961C96.1815 46.7124 95.9365 46.5898 95.5689 46.5898C95.2626 46.5898 95.0175 46.6511 94.7725 46.8961Z" fill="#A8A8A8"/>
<path d="M99.9184 46.2828C99.9797 46.2828 99.9797 46.3441 99.9797 46.4053C99.9797 46.5279 99.9184 46.5891 99.7346 46.5891H99.4896C99.1221 46.6504 98.877 46.7729 98.6932 46.9567C98.5094 47.2017 98.4481 47.4468 98.4481 47.6919V49.591C98.4481 49.6523 98.4481 49.7135 98.3869 49.7748C98.3256 49.8361 98.2644 49.8361 98.2031 49.8361C98.1418 49.8361 98.0806 49.8361 98.0193 49.7748C97.958 49.7135 97.958 49.6523 97.958 49.591V46.3441C97.958 46.2828 97.958 46.2215 98.0193 46.1603C98.0806 46.099 98.1418 46.099 98.2031 46.099C98.2644 46.099 98.3256 46.099 98.3869 46.1603C98.4481 46.2215 98.4481 46.2828 98.4481 46.3441V46.8342C98.6319 46.4053 98.9995 46.1603 99.5509 46.1603H99.6734C99.7959 46.2215 99.8572 46.2215 99.9184 46.2828Z" fill="#A8A8A8"/>
<path d="M102.43 49.8364C102.369 49.7751 102.369 49.7139 102.369 49.6526V44.8741C102.369 44.8128 102.369 44.7515 102.43 44.6903C102.492 44.629 102.553 44.629 102.614 44.629C102.675 44.629 102.737 44.629 102.798 44.6903C102.859 44.7515 102.859 44.8128 102.859 44.8741V49.6526C102.859 49.7139 102.859 49.7751 102.798 49.8364C102.737 49.8977 102.675 49.8977 102.614 49.8977C102.553 49.8977 102.492 49.8977 102.43 49.8364Z" fill="#A8A8A8"/>
<path fill-rule="evenodd" clip-rule="evenodd" d="M106.841 49.1629C106.902 49.2242 106.902 49.2242 106.902 49.2854C106.902 49.4079 106.841 49.4692 106.657 49.5917C106.29 49.7755 105.922 49.898 105.554 49.898C105.003 49.898 104.574 49.7143 104.268 49.4079C103.962 49.1016 103.778 48.6115 103.778 48.0601C103.778 47.6926 103.839 47.3862 103.962 47.0799C104.084 46.7736 104.268 46.5898 104.574 46.406C104.881 46.2222 105.126 46.161 105.432 46.161C105.922 46.161 106.228 46.2835 106.535 46.5898C106.78 46.8961 106.964 47.325 106.964 47.8151C106.964 47.8764 106.964 47.9989 106.902 47.9989C106.841 48.0601 106.78 48.0601 106.718 48.0601H104.268C104.268 48.489 104.39 48.8566 104.635 49.1016C104.881 49.3467 105.187 49.4692 105.554 49.4692C105.738 49.4692 105.922 49.4692 106.106 49.4079C106.228 49.3467 106.412 49.2854 106.535 49.1629C106.657 49.1016 106.718 49.0404 106.78 49.0404C106.841 49.0404 106.841 49.1016 106.841 49.1629ZM104.635 46.8961C104.452 47.1412 104.329 47.3862 104.268 47.8151H106.535C106.535 47.4475 106.412 47.1412 106.228 46.8961C106.045 46.7124 105.799 46.5898 105.432 46.5898C105.126 46.5898 104.819 46.6511 104.635 46.8961Z" fill="#A8A8A8"/>
<path d="M109.598 49.7137C109.598 49.775 109.598 49.8363 109.537 49.8363C109.475 49.8975 109.414 49.8975 109.353 49.8975H109.169C108.801 49.8975 108.495 49.775 108.311 49.5299C108.127 49.3462 108.066 49.0398 108.066 48.611V46.6506H107.515C107.454 46.6506 107.392 46.6506 107.392 46.5893C107.331 46.528 107.331 46.528 107.331 46.4668C107.331 46.4055 107.331 46.3443 107.392 46.3443C107.454 46.283 107.454 46.283 107.515 46.283H108.066V45.3641C108.066 45.3028 108.066 45.2415 108.127 45.1803C108.189 45.119 108.25 45.119 108.311 45.119C108.373 45.119 108.434 45.119 108.495 45.1803C108.556 45.2415 108.556 45.3028 108.556 45.3641V46.283H109.475C109.537 46.283 109.598 46.283 109.598 46.3443C109.659 46.4055 109.659 46.4055 109.659 46.4668C109.659 46.528 109.659 46.5893 109.598 46.5893C109.537 46.6506 109.537 46.6506 109.475 46.6506H108.556V48.611C108.556 48.9173 108.618 49.1011 108.74 49.2849C108.863 49.4074 109.046 49.4687 109.292 49.5299H109.475C109.537 49.53 109.598 49.5912 109.598 49.7137Z" fill="#A8A8A8"/>
<path fill-rule="evenodd" clip-rule="evenodd" d="M114.622 46.4058C114.867 46.5896 115.051 46.7734 115.173 47.0797C115.296 47.386 115.357 47.6923 115.357 48.0599C115.357 48.4275 115.296 48.7338 115.173 49.0401C115.051 49.3465 114.867 49.5302 114.622 49.6528C114.377 49.7753 114.132 49.8978 113.764 49.8978C113.458 49.8978 113.213 49.8366 113.029 49.714C112.845 49.5915 112.661 49.4077 112.539 49.1627V51.0006C112.539 51.0618 112.539 51.1231 112.478 51.1844C112.416 51.2456 112.355 51.2456 112.294 51.2456C112.233 51.2456 112.171 51.2456 112.11 51.1844C112.049 51.1231 112.049 51.0618 112.049 51.0006V46.4671C112.049 46.4058 112.049 46.3445 112.11 46.2833C112.171 46.222 112.233 46.222 112.294 46.222C112.355 46.222 112.416 46.222 112.478 46.2833C112.539 46.3445 112.539 46.4058 112.539 46.4671V46.9572C112.661 46.7121 112.784 46.5283 113.029 46.4058C113.274 46.2833 113.519 46.222 113.764 46.222C114.132 46.222 114.377 46.2833 114.622 46.4058ZM114.622 49.1627C114.806 48.9176 114.928 48.55 114.928 48.1212C114.928 47.6311 114.806 47.2635 114.622 47.0184C114.438 46.7734 114.132 46.6509 113.764 46.6509C113.397 46.6509 113.09 46.7734 112.907 47.0184C112.723 47.2635 112.6 47.6311 112.6 48.1212C112.6 48.6113 112.723 48.9176 112.907 49.2239C113.09 49.5302 113.397 49.5915 113.764 49.5915C114.132 49.5302 114.377 49.4077 114.622 49.1627Z" fill="#A8A8A8"/>
<path fill-rule="evenodd" clip-rule="evenodd" d="M118.726 46.5283C118.909 46.7734 119.032 47.0797 119.032 47.5698V49.6527C119.032 49.714 119.032 49.7753 118.971 49.8365C118.909 49.8978 118.848 49.8978 118.787 49.8978C118.726 49.8978 118.664 49.8978 118.603 49.8365C118.542 49.7753 118.542 49.714 118.542 49.6527V49.2239C118.419 49.469 118.297 49.5915 118.113 49.714C117.929 49.8365 117.684 49.8978 117.439 49.8978C117.194 49.8978 117.01 49.8365 116.827 49.7753C116.643 49.6527 116.459 49.5302 116.398 49.4077C116.275 49.2239 116.214 49.0401 116.214 48.8563C116.214 48.6113 116.275 48.3662 116.398 48.2437C116.52 48.1212 116.765 47.9986 117.072 47.9374C117.378 47.8761 117.807 47.8148 118.419 47.8148H118.603V47.5698C118.603 47.2635 118.542 47.0184 118.419 46.8346C118.297 46.7121 118.052 46.5896 117.807 46.5896C117.439 46.5896 117.072 46.7121 116.765 46.8959C116.765 46.8959 116.704 46.9572 116.643 46.9572C116.581 47.0184 116.52 47.0184 116.459 47.0184C116.398 47.0184 116.398 47.0184 116.336 46.9572C116.275 46.8959 116.275 46.8959 116.275 46.8346C116.275 46.7121 116.336 46.6508 116.52 46.5283C116.704 46.4058 116.888 46.3445 117.072 46.2833C117.255 46.222 117.5 46.222 117.684 46.222C118.174 46.222 118.481 46.3445 118.726 46.5283ZM118.297 49.2239C118.481 48.9789 118.603 48.7338 118.603 48.4275V48.1824H118.481C117.991 48.1824 117.623 48.1824 117.378 48.2437C117.133 48.305 116.949 48.3662 116.827 48.4275C116.704 48.55 116.643 48.6725 116.643 48.8563C116.643 49.0401 116.704 49.2239 116.888 49.3464C117.072 49.469 117.255 49.5302 117.439 49.5302C117.807 49.5302 118.113 49.4077 118.297 49.2239Z" fill="#A8A8A8"/>
<path fill-rule="evenodd" clip-rule="evenodd" d="M120.196 45.3034C120.135 45.2421 120.074 45.1809 120.074 45.0583C120.074 44.9358 120.074 44.8745 120.196 44.8133C120.258 44.752 120.319 44.752 120.441 44.752C120.564 44.752 120.625 44.752 120.686 44.8133C120.748 44.8745 120.809 44.9358 120.809 45.0583C120.809 45.1809 120.809 45.2421 120.686 45.3034C120.625 45.3646 120.564 45.3646 120.441 45.3646C120.319 45.3646 120.258 45.3646 120.196 45.3034ZM120.258 49.8369C120.196 49.7756 120.196 49.7143 120.196 49.6531V46.4061C120.196 46.3449 120.196 46.2836 120.258 46.2223C120.319 46.161 120.38 46.161 120.441 46.161C120.503 46.161 120.564 46.161 120.625 46.2223C120.686 46.2836 120.686 46.3448 120.686 46.4061V49.6531C120.686 49.7143 120.686 49.7756 120.625 49.8369C120.564 49.8981 120.503 49.8981 120.441 49.8981C120.38 49.8981 120.319 49.8981 120.258 49.8369Z" fill="#A8A8A8"/>
<path d="M124.791 47.5701V49.653C124.791 49.7143 124.791 49.7756 124.73 49.8368C124.668 49.8981 124.607 49.8981 124.546 49.8981C124.485 49.8981 124.423 49.8981 124.362 49.8368C124.301 49.7756 124.301 49.7143 124.301 49.653V47.6313C124.301 47.2637 124.24 47.0187 124.117 46.8349C123.995 46.6511 123.75 46.5899 123.443 46.5899C123.076 46.5899 122.831 46.7124 122.585 46.8962C122.402 47.1412 122.279 47.3863 122.279 47.7539V49.653C122.279 49.7143 122.279 49.7756 122.218 49.8368C122.157 49.8981 122.095 49.8981 122.034 49.8981C121.973 49.8981 121.912 49.8981 121.85 49.8368C121.789 49.7756 121.789 49.7143 121.789 49.653V46.4061C121.789 46.3448 121.789 46.2836 121.85 46.2223C121.912 46.161 121.973 46.161 122.034 46.161C122.095 46.161 122.157 46.161 122.218 46.2223C122.279 46.2835 122.279 46.3448 122.279 46.4061V46.8962C122.402 46.6511 122.585 46.5286 122.769 46.4061C122.953 46.2836 123.259 46.2223 123.504 46.2223C124.362 46.2223 124.791 46.6511 124.791 47.5701Z" fill="#A8A8A8"/>
<path fill-rule="evenodd" clip-rule="evenodd" d="M129.638 44.835C129.698 44.835 129.747 44.8534 129.784 44.8902C129.82 44.9269 129.839 44.9756 129.839 45.0361V49.2665C129.839 49.3271 129.82 49.3758 129.784 49.4125C129.747 49.4493 129.698 49.4677 129.638 49.4677C129.577 49.4677 129.53 49.4493 129.495 49.4125C129.46 49.3758 129.443 49.3271 129.443 49.2665V48.8383C129.348 49.0503 129.207 49.2114 129.021 49.3217C128.835 49.432 128.615 49.4872 128.359 49.4872C128.083 49.4872 127.838 49.419 127.626 49.2828C127.414 49.1465 127.25 48.954 127.133 48.7053C127.016 48.4566 126.958 48.1679 126.958 47.8391C126.958 47.5147 127.016 47.2303 127.133 46.9859C127.25 46.7415 127.414 46.5523 127.626 46.4182C127.838 46.2841 128.083 46.217 128.359 46.217C128.615 46.217 128.835 46.2722 129.021 46.3825C129.207 46.4928 129.348 46.6539 129.443 46.8659V45.0361C129.443 44.9756 129.46 44.9269 129.495 44.8902C129.53 44.8534 129.577 44.835 129.638 44.835ZM128.411 49.1368C128.74 49.1368 128.994 49.0254 129.174 48.8026C129.353 48.5799 129.443 48.263 129.443 47.8521C129.443 47.4412 129.354 47.1232 129.177 46.8983C129 46.6734 128.747 46.5609 128.418 46.5609C128.085 46.5609 127.827 46.6723 127.646 46.8951C127.464 47.1178 127.373 47.4325 127.373 47.8391C127.373 48.25 127.464 48.569 127.646 48.7961C127.827 49.0232 128.083 49.1368 128.411 49.1368ZM131.24 49.4742C131.18 49.4742 131.131 49.4569 131.094 49.4223C131.058 49.3877 131.039 49.3379 131.039 49.273V46.4311C131.039 46.3663 131.058 46.3165 131.094 46.2819C131.131 46.2473 131.18 46.23 131.24 46.23C131.301 46.23 131.348 46.2473 131.383 46.2819C131.418 46.3165 131.435 46.3663 131.435 46.4311V49.273C131.435 49.3379 131.418 49.3877 131.383 49.4223C131.348 49.4569 131.301 49.4742 131.24 49.4742ZM131.24 45.4968C131.154 45.4968 131.084 45.4709 131.029 45.419C130.975 45.367 130.948 45.3 130.948 45.2178C130.948 45.1313 130.975 45.0621 131.029 45.0102C131.084 44.9583 131.154 44.9323 131.24 44.9323C131.327 44.9323 131.397 44.9583 131.451 45.0102C131.505 45.0621 131.532 45.1313 131.532 45.2178C131.532 45.3 131.505 45.367 131.451 45.419C131.397 45.4709 131.327 45.4968 131.24 45.4968ZM133.901 49.4872C133.611 49.4872 133.356 49.4201 133.135 49.286C132.914 49.1519 132.743 48.9616 132.622 48.715C132.501 48.4685 132.441 48.1852 132.441 47.8651C132.441 47.5406 132.502 47.2541 132.626 47.0054C132.749 46.7566 132.922 46.5631 133.145 46.4246C133.367 46.2862 133.624 46.217 133.914 46.217C134.078 46.217 134.238 46.2386 134.394 46.2819C134.549 46.3252 134.688 46.39 134.809 46.4766C134.887 46.5328 134.942 46.5836 134.974 46.629C135.007 46.6744 135.023 46.7231 135.023 46.775C135.023 46.8226 135.01 46.8615 134.984 46.8918C134.958 46.9221 134.926 46.9372 134.887 46.9372C134.844 46.9372 134.774 46.9005 134.679 46.8269C134.567 46.7447 134.454 46.6799 134.342 46.6323C134.229 46.5847 134.093 46.5609 133.933 46.5609C133.596 46.5609 133.332 46.6766 133.141 46.908C132.951 47.1394 132.856 47.4585 132.856 47.8651C132.856 48.2673 132.95 48.5799 133.138 48.8026C133.326 49.0254 133.589 49.1368 133.927 49.1368C134.091 49.1368 134.228 49.113 134.339 49.0654C134.449 49.0178 134.569 48.9529 134.699 48.8708C134.738 48.8448 134.775 48.821 134.812 48.7994C134.849 48.7778 134.878 48.7669 134.9 48.7669C134.943 48.7669 134.978 48.7821 135.004 48.8124C135.03 48.8426 135.043 48.8794 135.043 48.9227C135.043 48.9746 135.027 49.02 134.997 49.0589C134.967 49.0979 134.908 49.1476 134.822 49.2082C134.705 49.2947 134.563 49.3628 134.397 49.4125C134.23 49.4623 134.065 49.4872 133.901 49.4872ZM137.255 49.1433C137.376 49.1562 137.437 49.2125 137.437 49.312C137.437 49.3639 137.417 49.405 137.378 49.4352C137.339 49.4655 137.277 49.4785 137.19 49.4742L137.008 49.4612C136.68 49.4396 136.436 49.339 136.279 49.1595C136.121 48.98 136.042 48.7064 136.042 48.3387V46.6128H135.549C135.497 46.6128 135.456 46.5988 135.425 46.5706C135.395 46.5425 135.38 46.5047 135.38 46.4571C135.38 46.4095 135.395 46.3706 135.425 46.3403C135.456 46.31 135.497 46.2949 135.549 46.2949H136.042V45.4903C136.042 45.4254 136.059 45.3757 136.094 45.3411C136.128 45.3065 136.176 45.2892 136.236 45.2892C136.297 45.2892 136.346 45.3065 136.382 45.3411C136.419 45.3757 136.438 45.4254 136.438 45.4903V46.2949H137.223C137.279 46.2949 137.322 46.31 137.352 46.3403C137.383 46.3706 137.398 46.4095 137.398 46.4571C137.398 46.5047 137.383 46.5425 137.352 46.5706C137.322 46.5988 137.279 46.6128 137.223 46.6128H136.438V48.3582C136.438 48.6264 136.489 48.8178 136.593 48.9324C136.697 49.047 136.859 49.113 137.08 49.1303L137.255 49.1433ZM139.416 46.217C139.796 46.217 140.081 46.3165 140.269 46.5155C140.457 46.7145 140.551 47.0151 140.551 47.4174V49.2665C140.551 49.3271 140.534 49.3758 140.499 49.4125C140.465 49.4493 140.417 49.4677 140.356 49.4677C140.296 49.4677 140.248 49.4493 140.214 49.4125C140.179 49.3758 140.162 49.3271 140.162 49.2665V48.8772C140.071 49.0719 139.939 49.2222 139.766 49.3282C139.593 49.4342 139.394 49.4872 139.169 49.4872C138.966 49.4872 138.78 49.4461 138.611 49.3639C138.442 49.2817 138.309 49.1671 138.212 49.02C138.115 48.8729 138.066 48.7107 138.066 48.5334C138.066 48.2998 138.127 48.1181 138.248 47.9883C138.369 47.8586 138.57 47.7656 138.851 47.7093C139.132 47.6531 139.524 47.625 140.026 47.625H140.162V47.3849C140.162 47.0994 140.103 46.8907 139.987 46.7588C139.87 46.6269 139.686 46.5609 139.435 46.5609C139.115 46.5609 138.81 46.6453 138.52 46.8139C138.507 46.8226 138.474 46.8453 138.42 46.8821C138.366 46.9188 138.319 46.9372 138.28 46.9372C138.237 46.9372 138.201 46.921 138.173 46.8886C138.145 46.8561 138.131 46.8161 138.131 46.7685C138.131 46.6734 138.207 46.5804 138.358 46.4895C138.509 46.403 138.678 46.336 138.864 46.2884C139.05 46.2408 139.234 46.217 139.416 46.217ZM139.202 49.1433C139.483 49.1433 139.713 49.0481 139.893 48.8578C140.072 48.6675 140.162 48.4252 140.162 48.1311V47.917H140.039C139.623 47.917 139.305 47.9343 139.085 47.9689C138.864 48.0035 138.708 48.063 138.618 48.1473C138.527 48.2317 138.481 48.3539 138.481 48.5139C138.481 48.6956 138.551 48.8459 138.689 48.9648C138.827 49.0838 138.998 49.1433 139.202 49.1433ZM143.114 49.1433C143.235 49.1562 143.296 49.2125 143.296 49.312C143.296 49.3639 143.276 49.405 143.237 49.4352C143.198 49.4655 143.136 49.4785 143.049 49.4742L142.867 49.4612C142.539 49.4396 142.295 49.339 142.138 49.1595C141.98 48.98 141.901 48.7064 141.901 48.3387V46.6128H141.408C141.356 46.6128 141.315 46.5988 141.284 46.5706C141.254 46.5425 141.239 46.5047 141.239 46.4571C141.239 46.4095 141.254 46.3706 141.284 46.3403C141.315 46.31 141.356 46.2949 141.408 46.2949H141.901V45.4903C141.901 45.4254 141.918 45.3757 141.953 45.3411C141.987 45.3065 142.035 45.2892 142.095 45.2892C142.156 45.2892 142.205 45.3065 142.241 45.3411C142.278 45.3757 142.296 45.4254 142.296 45.4903V46.2949H143.082C143.138 46.2949 143.181 46.31 143.211 46.3403C143.242 46.3706 143.257 46.4095 143.257 46.4571C143.257 46.5047 143.242 46.5425 143.211 46.5706C143.181 46.5988 143.138 46.6128 143.082 46.6128H142.296V48.3582C142.296 48.6264 142.348 48.8178 142.452 48.9324C142.556 49.047 142.718 49.113 142.939 49.1303L143.114 49.1433ZM146.443 48.7669C146.481 48.7669 146.515 48.7832 146.543 48.8156C146.571 48.848 146.585 48.8859 146.585 48.9292C146.585 49.0243 146.512 49.1173 146.365 49.2082C146.053 49.3942 145.725 49.4872 145.378 49.4872C144.898 49.4872 144.52 49.3422 144.243 49.0524C143.966 48.7626 143.828 48.3647 143.828 47.8586C143.828 47.5342 143.889 47.2476 144.013 46.9989C144.136 46.7501 144.309 46.5577 144.532 46.4214C144.754 46.2851 145.011 46.217 145.301 46.217C145.707 46.217 146.028 46.3479 146.264 46.6096C146.5 46.8713 146.618 47.2314 146.618 47.6899C146.618 47.7677 146.6 47.8251 146.566 47.8618C146.531 47.8986 146.475 47.917 146.397 47.917H144.237C144.249 48.3149 144.353 48.6177 144.548 48.8253C144.743 49.033 145.017 49.1368 145.372 49.1368C145.558 49.1368 145.714 49.1119 145.839 49.0622C145.965 49.0124 146.099 48.9465 146.241 48.8643C146.337 48.7994 146.404 48.7669 146.443 48.7669ZM145.301 46.5414C144.998 46.5414 144.756 46.6366 144.574 46.8269C144.392 47.0173 144.284 47.2833 144.249 47.625H146.254C146.246 47.2789 146.159 47.0118 145.995 46.8237C145.83 46.6355 145.599 46.5414 145.301 46.5414Z" fill="#A8A8A8"/>
</g>
</g>
<defs>
<clipPath id="clip0">
<rect width="146.739" height="50.7606" fill="white" transform="translate(0 0.485001)"/>
</clipPath>
<clipPath id="clip1">
<rect width="146.739" height="49.4189" fill="white" transform="translate(0 0.485001)"/>
</clipPath>
<clipPath id="clip2">
<rect width="146.739" height="49.4189" fill="white" transform="translate(0 0.485001)"/>
</clipPath>
<clipPath id="clip3">
<rect width="65.3847" height="6.61661" fill="white" transform="translate(81.2329 44.629)"/>
</clipPath>
</defs>
</svg>
