<svg width="366" height="314" viewBox="0 0 366 314" fill="none" xmlns="http://www.w3.org/2000/svg">
<path opacity="0.5" fill-rule="evenodd" clip-rule="evenodd" d="M0.203125 114.512V161.29H82.3292V114.512H0.203125ZM0.203125 162.737V202.911C0.672928 202.995 1.13519 203.08 1.60123 203.151C2.22635 203.259 2.85529 203.357 3.49557 203.441L3.87445 203.489C4.12454 203.526 4.37839 203.556 4.63226 203.583C5.26498 203.665 5.89771 203.725 6.52664 203.78C6.82217 203.807 7.12906 203.827 7.42834 203.851L8.15961 203.898V203.898C8.55743 203.925 8.95148 203.945 9.34549 203.959C9.58798 203.959 9.83047 203.976 10.0767 203.982C10.323 203.989 10.4556 203.982 10.6526 203.982H11.3687C11.6945 203.982 12.0204 203.982 12.3424 203.982H12.7592C13.0851 203.982 13.4109 203.982 13.733 203.955H13.7519C13.9792 203.955 14.2028 203.955 14.4301 203.932C14.4944 203.935 14.559 203.935 14.6233 203.932C14.8128 203.932 15.0022 203.932 15.1841 203.911C15.2269 203.908 15.27 203.908 15.3129 203.911C15.7334 203.888 16.1578 203.857 16.5859 203.824C17.014 203.79 17.4194 203.749 17.8476 203.709L18.7076 203.614C22.2221 203.175 25.6975 202.515 29.1079 201.639C36.7726 199.732 44.2631 197.064 51.9241 195.113C61.8204 192.593 72.7625 191.352 82.3254 194.419V162.737H0.203125ZM82.3292 62.4284V0.152672C73.3388 0.0643944 64.3726 1.00192 55.6485 2.94249C34.8517 7.60574 16.1767 17.7201 0.203125 30.6379V62.425H4.3367V63.8689H0.203125V113.065H82.3292V63.8689H21.2462V62.4216L82.3292 62.4284ZM187.84 41.3914C182.695 41.2291 177.58 39.7784 172.95 37.5296C164.107 33.2383 157.037 26.6036 149.141 21.0104C132.735 9.35403 112.39 2.3169 91.5171 0.571993V62.4284H208.746L209.038 62.1544L187.84 41.3914ZM198.52 39.7006L209.845 50.7956V36.7823C206.034 37.2117 202.715 38.2093 198.52 39.6871V39.7006ZM209.845 212.886V162.737H185.695C185.635 162.524 185.566 162.308 185.491 162.091C185.563 162.308 185.627 162.524 185.691 162.737H91.5171V199.001C92.4112 199.593 93.294 200.219 94.1692 200.848V200.848C95.1139 201.538 96.0522 202.235 96.9843 202.941L97.9239 203.634C98.3748 203.972 98.8333 204.311 99.2879 204.632C100.2 205.288 101.118 205.937 102.042 206.58C102.505 206.904 102.969 207.223 103.437 207.537C110.837 212.584 118.643 217.14 126.791 221.168C128.617 222.077 130.462 222.953 132.319 223.809C133.554 224.377 134.798 224.934 136.051 225.479C137.93 226.298 139.824 227.087 141.734 227.847V227.847C159.339 234.9 177.955 239.739 197.05 242.225C201.289 242.782 205.546 243.222 209.822 243.544V212.88H210.201L209.845 212.886ZM91.5171 63.8689V113.065H209.845V63.8689H91.5171ZM91.5171 114.505V161.29H209.845V114.512L91.5171 114.505ZM219.029 36.7146V52.3715L233.48 38.2127C228.691 37.507 223.874 37.0077 219.029 36.7146ZM219.029 114.512V161.29H334.114V114.512H219.029ZM333.709 216.596L334.114 162.737H219.029V244.088C226.442 244.363 233.866 244.283 241.269 243.848V243.848H241.398C244.934 243.645 248.454 243.357 251.958 242.983H252.037C270.733 241.04 289.013 236.682 306.304 230.045M356.316 122.195C355.879 121.293 355.431 120.391 354.971 119.49C354.115 117.799 353.213 116.155 352.281 114.515H343.302V161.29H366.001C365.982 148.041 362.223 134.514 356.316 122.195ZM343.302 162.737V209.065C349.694 203.597 355.1 197.338 358.988 190.182C363.667 181.562 365.807 172.236 365.986 162.734L343.302 162.737ZM343.302 100.881V113.054H351.44C348.973 108.87 346.257 104.806 343.302 100.881H343.302ZM265.253 45.8957C264.654 45.6894 264.052 45.4831 263.449 45.287C257.097 43.1918 250.606 41.4503 244.013 40.0726L221.894 61.7351V61.7351L221.462 62.1511L221.746 62.425H300.47C289.505 55.6909 277.683 50.1423 265.253 45.8957V45.8957ZM302.781 63.8689H220.643L219.029 65.1844V113.065H233.18V113.065H334.114V89.8667C324.987 80.0159 314.453 71.2755 302.781 63.8689H302.781Z" fill="white"/>
<g clip-path="url(#clip0)">
<g clip-path="url(#clip1)">
<g clip-path="url(#clip2)">
<g clip-path="url(#clip3)">
<path d="M342.039 156.005C342.039 156.005 335.839 151.731 327.893 166.605C319.946 181.479 316.877 190.086 316.877 190.086C316.877 190.086 314.793 193.195 312.67 191.095C310.548 188.996 307.7 183.103 304.005 184.083C300.173 185.098 298.835 189.328 299.441 195.592C300.046 201.857 300.87 215.63 300.939 216.876C301.008 218.098 300.274 219.884 298.599 218.686C296.924 217.487 287.37 206.423 282.392 211.271C277.413 216.119 281.968 233.294 282.43 235.181C282.892 237.067 282.509 237.862 281.608 238.31C280.707 238.757 277.847 234.736 275 231.701C272.154 228.665 268.322 225.644 265.684 228.682C263.046 231.72 261.973 244.519 273.766 265.571L279.869 274.968L291.117 274.563C315.134 272.227 325.03 264.039 326.018 260.139C327.006 256.239 322.338 254.817 318.221 254.212C314.104 253.609 309.169 253.556 309.022 252.561C308.875 251.565 309.309 250.797 311.122 250.1C312.935 249.402 329.636 243.337 330.774 236.482C331.913 229.627 317.375 228.099 315.435 227.408C313.495 226.717 314.542 225.094 315.585 224.453C316.647 223.799 328.426 216.612 333.915 213.533C339.404 210.454 342.113 206.942 340.759 203.215C339.454 199.622 332.989 200.648 330.054 200.104C327.119 199.56 328.481 196.074 328.481 196.074C328.481 196.074 333.796 188.641 341.472 173.625C349.147 158.61 341.908 155.927 341.908 155.927" fill="#5A5A5A"/>
</g>
<g clip-path="url(#clip4)">
<g clip-path="url(#clip5)">
<path d="M280.488 272.697C286.169 261.691 294.144 246.553 303.007 229.858C311.867 213.169 319.875 198.052 325.611 187.076C328.468 181.595 330.783 177.154 332.39 174.07C333.186 172.546 333.807 171.357 334.235 170.536C334.445 170.143 334.607 169.839 334.723 169.62C334.835 169.415 334.9 169.314 334.9 169.314C334.9 169.314 334.857 169.426 334.755 169.636C334.646 169.859 334.494 170.168 334.298 170.567C333.883 171.396 333.282 172.595 332.51 174.132C330.954 177.227 328.671 181.688 325.829 187.189C320.149 198.195 312.175 213.332 303.314 230.022C294.451 246.717 286.443 261.835 280.707 272.811" fill="#E0E0E0"/>
</g>
</g>
<path d="M307.658 192.487C307.681 192.481 307.775 192.754 307.926 193.253C308.079 193.751 308.278 194.477 308.516 195.377C308.989 197.178 309.578 199.683 310.179 202.457C310.761 205.196 311.288 207.672 311.69 209.566C311.877 210.419 312.035 211.138 312.162 211.717C312.276 212.224 312.327 212.508 312.305 212.514C312.281 212.521 312.185 212.249 312.031 211.751C311.879 211.252 311.679 210.525 311.451 209.623C310.996 207.816 310.439 205.305 309.839 202.531C309.237 199.798 308.693 197.327 308.277 195.436C308.086 194.583 307.924 193.865 307.794 193.286C307.685 192.778 307.635 192.493 307.658 192.487Z" fill="#E0E0E0"/>
<path d="M313.328 212.734C313.304 212.641 318.412 211.198 324.738 209.512C331.066 207.825 336.214 206.533 336.239 206.626C336.263 206.719 331.155 208.161 324.827 209.848C318.502 211.535 313.353 212.827 313.328 212.734Z" fill="#E0E0E0"/>
<path d="M298.564 237.753C298.566 237.729 298.861 237.722 299.392 237.73C299.995 237.745 300.747 237.762 301.641 237.782C303.538 237.822 306.159 237.868 309.052 237.812C311.947 237.761 314.565 237.625 316.46 237.511C317.352 237.458 318.103 237.414 318.705 237.379C319.235 237.35 319.53 237.345 319.532 237.37C319.535 237.393 319.244 237.443 318.717 237.513C318.19 237.583 317.426 237.67 316.479 237.757C314.586 237.933 311.962 238.109 309.059 238.16C306.157 238.216 303.529 238.131 301.631 238.028C300.682 237.972 299.914 237.919 299.385 237.866C298.855 237.815 298.563 237.776 298.564 237.753Z" fill="#E0E0E0"/>
<path d="M289.404 220.57C289.424 220.557 289.576 220.784 289.83 221.205C290.116 221.693 290.466 222.292 290.88 223C291.753 224.522 292.938 226.637 294.227 228.984C295.518 231.331 296.668 233.466 297.486 235.019C297.862 235.747 298.18 236.364 298.439 236.867C298.657 237.307 298.767 237.556 298.746 237.567C298.725 237.579 298.575 237.352 298.32 236.933C298.035 236.444 297.684 235.845 297.27 235.138C296.398 233.614 295.213 231.499 293.922 229.152C292.633 226.805 291.482 224.671 290.664 223.118C290.289 222.39 289.97 221.772 289.712 221.27C289.493 220.829 289.383 220.581 289.404 220.57Z" fill="#E0E0E0"/>
<path d="M273.563 241.001C273.583 240.99 273.774 241.282 274.101 241.82C274.453 242.418 274.908 243.189 275.454 244.115C276.584 246.06 278.123 248.759 279.805 251.751C281.487 254.744 282.994 257.463 284.069 259.439C284.576 260.387 284.998 261.176 285.326 261.788C285.616 262.347 285.766 262.661 285.745 262.672C285.724 262.685 285.534 262.392 285.208 261.855C284.855 261.256 284.4 260.485 283.854 259.559C282.724 257.614 281.184 254.915 279.502 251.921C277.82 248.93 276.315 246.212 275.24 244.235C274.733 243.288 274.31 242.498 273.982 241.886C273.693 241.328 273.542 241.013 273.563 241.001Z" fill="#E0E0E0"/>
<path d="M285.6 262.072C285.601 262.048 285.974 262.03 286.647 262.018C287.383 262.008 288.343 261.995 289.5 261.98C291.908 261.946 295.234 261.885 298.904 261.715C302.575 261.55 305.893 261.313 308.295 261.125C309.448 261.036 310.405 260.961 311.138 260.904C311.811 260.855 312.183 260.839 312.186 260.863C312.189 260.886 311.821 260.948 311.152 261.039C310.485 261.13 309.516 261.247 308.316 261.37C305.919 261.621 302.597 261.897 298.92 262.062C295.244 262.233 291.911 262.255 289.5 262.226C288.295 262.209 287.319 262.185 286.646 262.153C285.972 262.124 285.599 262.096 285.6 262.072Z" fill="#E0E0E0"/>
</g>
<g clip-path="url(#clip6)">
<g clip-path="url(#clip7)">
<g clip-path="url(#clip8)">
<g clip-path="url(#clip9)">
<path d="M71.7831 266.94C86.1694 259.648 91.5439 243.093 93.1873 227.759C93.4619 225.2 94.122 222.554 93.2269 220.147C92.3312 217.741 89.7205 215.814 87.288 216.564C85.2698 217.186 84.134 219.27 82.8175 220.94C81.0669 223.162 78.6855 224.868 76.0359 225.8C74.2942 226.411 72.2147 226.642 70.7386 225.532C68.7128 224.008 68.8839 220.937 69.2587 218.405C69.9571 213.687 70.6549 208.969 71.3534 204.252C71.7282 201.721 72.1017 199.135 71.6548 196.619C71.2072 194.104 69.7822 191.623 67.4684 190.607C65.1534 189.59 61.9764 190.558 61.1164 192.965C60.7583 193.967 60.817 195.068 60.5974 196.11C60.3784 197.152 59.7233 198.246 58.6833 198.397C57.6298 198.551 56.7181 197.689 56.0656 196.84C53.8131 193.912 52.5056 190.365 51.311 186.853C50.1171 183.341 48.9826 179.759 47.0053 176.632C45.0273 173.506 42.0585 170.831 38.4602 170.111C34.8599 169.392 30.6774 171.084 29.2562 174.516C27.8305 177.957 29.4011 181.876 31.259 185.089C34.0159 189.855 37.4578 194.211 41.4437 197.98C42.1626 198.66 42.9409 199.394 43.1139 200.376C43.4248 202.143 41.5867 203.594 39.8405 203.913C37.8632 204.275 35.8419 203.788 33.8333 203.741C31.8254 203.694 29.5614 204.262 28.5501 206.023C27.1455 208.466 28.9268 211.487 30.8057 213.566C34.5682 217.73 39.0425 221.233 43.9707 223.873C45.7379 224.819 47.6144 225.695 48.9321 227.217C50.2493 228.74 50.8335 231.145 49.6734 232.8C48.5114 234.458 46.0999 234.699 44.1993 234.061C42.2992 233.422 40.7018 232.115 38.9409 231.149C35.6452 229.342 31.1154 228.945 28.4588 231.638C26.7132 233.409 26.1942 236.145 26.6015 238.607C27.0082 241.07 28.2245 243.314 29.555 245.412C34.2081 252.75 40.6048 259.032 48.2854 262.976C55.9647 266.921 63.3408 268.738 71.7831 266.94" fill="#5A5A5A"/>
</g>
</g>
</g>
<g clip-path="url(#clip10)">
<g clip-path="url(#clip11)">
<g clip-path="url(#clip12)">
<g clip-path="url(#clip13)">
<path d="M70.5732 274.814C70.8764 268.69 70.3695 264.831 69.1986 256.816C68.0436 248.796 66.0478 240.112 63.6491 231.099C63.0413 228.849 62.4399 226.624 61.848 224.432C61.2524 222.246 60.6611 220.077 59.9518 217.992C58.5517 213.815 56.8866 209.905 55.1902 206.243C53.4951 202.58 51.7528 199.165 50.1005 195.984C48.4405 192.805 46.8379 189.871 45.2629 187.26C42.1281 182.022 39.1056 178.105 36.9208 175.5C35.831 174.194 34.9525 173.208 34.3478 172.549C34.0567 172.235 33.8281 171.988 33.6564 171.803C33.4981 171.637 33.4144 171.554 33.4087 171.559C33.4016 171.565 33.4738 171.658 33.62 171.835C33.7834 172.029 34.0012 172.285 34.2776 172.613C34.858 173.293 35.7135 174.297 36.781 175.619C38.9185 178.257 41.8893 182.191 44.9781 187.434C46.5302 190.05 48.1129 192.985 49.7544 196.168C51.3908 199.355 53.1178 202.771 54.7982 206.43C56.4793 210.088 58.1284 213.987 59.5151 218.144C60.2174 220.218 60.801 222.368 61.3973 224.561C61.9885 226.751 62.5874 228.974 63.1952 231.224C65.5919 240.229 67.5948 248.89 68.7708 256.882C69.9609 264.869 70.501 268.696 70.2405 274.799" fill="#E0E0E0"/>
</g>
</g>
</g>
</g>
<path d="M59.8222 217.955C59.8528 217.965 59.9933 217.592 60.2225 216.91C60.4549 216.228 60.7582 215.232 61.1144 213.996C61.8301 211.524 62.7016 208.077 63.6485 204.273C64.5953 200.466 65.5134 197.042 66.2642 194.588C66.6364 193.36 66.9473 192.369 67.1714 191.687C67.3917 191.003 67.499 190.619 67.469 190.607C67.4383 190.596 67.273 190.957 66.9997 191.624C66.7226 192.288 66.3619 193.266 65.9488 194.485C65.1131 196.922 64.1401 200.347 63.1926 204.157C62.2681 207.913 61.4324 211.312 60.7933 213.908C60.4977 215.079 60.2474 216.066 60.0463 216.858C59.8726 217.555 59.7903 217.946 59.8222 217.955Z" fill="#E0E0E0"/>
<path d="M28.1114 207.254C28.1056 207.286 28.5615 207.405 29.3883 207.593C30.2138 207.787 31.4096 208.059 32.8755 208.443C35.8131 209.187 39.8347 210.358 44.2158 211.843C48.5956 213.337 52.501 214.858 55.2943 216.04C56.6963 216.621 57.8168 217.121 58.5944 217.463C59.3702 217.807 59.8062 217.984 59.8216 217.955C59.8356 217.925 59.4264 217.692 58.673 217.295C57.9183 216.902 56.8151 216.353 55.4271 215.73C52.66 214.466 48.759 212.89 44.3671 211.391C39.9733 209.902 35.921 208.778 32.9534 208.115C31.4729 207.772 30.263 207.548 29.4234 207.412C28.5838 207.28 28.1178 207.221 28.1114 207.254Z" fill="#E0E0E0"/>
<path d="M68.8831 256.159C68.8965 256.168 68.9923 256.042 69.1628 255.794C69.3581 255.496 69.5969 255.134 69.8861 254.694C70.5106 253.737 71.3782 252.328 72.4272 250.573C74.5271 247.064 77.275 242.126 80.2342 236.636C83.1947 231.144 85.8935 226.186 87.9168 222.639C88.9064 220.915 89.7211 219.498 90.3263 218.444C90.5862 217.986 90.8 217.609 90.9756 217.298C91.1193 217.034 91.1882 216.891 91.1748 216.881C91.1608 216.874 91.065 216.999 90.8945 217.248C90.6992 217.545 90.4604 217.907 90.1712 218.347C89.5467 219.304 88.6791 220.713 87.6307 222.468C85.5302 225.977 82.7823 230.915 79.8224 236.408C76.8625 241.899 74.1638 246.855 72.1405 250.403C71.1503 252.125 70.3363 253.544 69.7316 254.597C69.4718 255.055 69.2573 255.433 69.0823 255.743C68.938 256.008 68.8691 256.151 68.8831 256.159Z" fill="#E0E0E0"/>
<path d="M27.5754 236.08C27.569 236.095 27.7088 236.176 27.9795 236.318C28.302 236.479 28.6978 236.677 29.1773 236.917C30.285 237.458 31.7803 238.188 33.5992 239.075C37.3329 240.899 42.461 243.477 48.1235 246.333C53.7872 249.19 58.944 251.723 62.7166 253.469C64.6026 254.343 66.1356 255.035 67.2043 255.491C67.6992 255.699 68.1071 255.869 68.4391 256.01C68.7232 256.123 68.8765 256.175 68.8828 256.16C68.8892 256.145 68.7494 256.063 68.4781 255.922C68.1563 255.761 67.7611 255.563 67.281 255.323C66.1732 254.782 64.6786 254.053 62.859 253.165C59.1253 251.341 53.9972 248.763 48.3329 245.906C42.6711 243.05 37.5149 240.517 33.7422 238.771C31.8563 237.896 30.3233 237.205 29.2533 236.749C28.7585 236.541 28.3511 236.369 28.0191 236.23C27.735 236.117 27.5824 236.064 27.5754 236.08Z" fill="#E0E0E0"/>
</g>
</g>
<path d="M70.1713 237.226C68.4066 239.747 64.9762 238.913 63.3858 237.374C61.7954 235.835 61.1237 233.606 60.5114 231.479C59.1132 226.621 57.7042 221.524 58.7436 216.577C59.0545 215.098 59.6074 213.622 60.6468 212.525C61.6862 211.428 63.2843 210.775 64.7457 211.161C66.4753 211.618 67.5504 213.312 68.3268 214.923C70.6105 219.659 71.8198 224.91 71.8376 230.168C71.846 232.624 71.5561 235.199 70.1713 237.226" fill="#F1D427"/>
<path d="M63.5583 249.991C60.6725 248.501 57.2739 248.308 54.0695 248.838C52.3483 249.122 50.5542 249.637 49.3826 250.93C48.2111 252.223 47.9895 254.498 49.3341 255.609C50.1347 256.271 51.2514 256.371 52.2895 256.36C54.798 256.33 57.581 255.888 59.5852 257.398C60.728 258.259 61.489 259.69 62.856 260.114C64.1935 260.528 65.7022 259.739 66.4115 258.532C67.1208 257.325 67.1445 255.816 66.8137 254.456C66.8137 254.456 66.4658 251.491 63.5583 249.991Z" fill="#B8A846"/>
<path d="M75.0169 240.843C73.1009 238.569 72.7376 235.252 73.5899 232.403C74.4429 229.554 76.3691 227.13 78.589 225.152C81.1914 222.832 84.2509 221.027 87.5402 219.87C88.835 219.415 90.2 219.056 91.5663 219.186C92.9319 219.316 94.3072 220.015 94.9444 221.23C95.8867 223.027 94.9833 225.206 94.0065 226.984C92.2852 230.116 90.3175 233.113 88.1269 235.937C86.3648 238.209 84.346 240.45 81.6606 241.477C78.9747 242.504 76.1846 242.383 74.7615 240.521" fill="#F1D427"/>
<path d="M70.2901 275.248C70.2569 275.25 70.2033 274.841 70.1305 274.103C70.0494 273.269 69.9473 272.222 69.826 270.977C69.6804 269.662 69.4882 268.097 69.123 266.392C68.7591 264.692 68.189 262.849 67.4567 260.981C66.6988 259.123 65.7743 257.435 64.6934 256.085C63.6208 254.729 62.3733 253.747 61.2004 253.181C60.0314 252.603 58.9831 252.368 58.2584 252.264C57.5274 252.19 57.1182 252.132 57.1182 252.1C57.1175 252.067 57.5274 252.062 58.2782 252.082C59.022 252.132 60.1138 252.32 61.346 252.88C62.5821 253.428 63.9056 254.425 65.0312 255.81C66.1657 257.188 67.124 258.913 67.8953 260.804C68.6404 262.706 69.2016 264.567 69.5495 266.304C69.8969 268.038 70.0552 269.62 70.1593 270.946C70.2582 272.274 70.2959 273.349 70.3144 274.092C70.331 274.834 70.3221 275.246 70.2901 275.248Z" fill="#263238"/>
<path d="M70.0746 272.844C70.058 272.843 70.0478 272.66 70.0434 272.312C70.0446 271.913 70.0459 271.41 70.0478 270.792C70.051 269.473 70.0504 267.565 69.9802 265.208C69.8633 260.495 69.4573 253.987 68.6732 246.835C67.8841 239.682 66.8377 233.246 65.8832 228.629C65.6578 227.472 65.4312 226.43 65.2173 225.518C65.013 224.604 64.8393 223.816 64.6714 223.179C64.5271 222.579 64.4096 222.09 64.3158 221.701C64.2398 221.362 64.2072 221.182 64.2232 221.177C64.2385 221.173 64.3017 221.344 64.4077 221.675C64.5239 222.058 64.6695 222.54 64.8489 223.132C65.0449 223.763 65.2454 224.546 65.4739 225.456C65.7127 226.365 65.9636 227.403 66.2101 228.559C67.2508 233.17 68.3521 239.614 69.1438 246.784C69.9291 253.95 70.2828 260.476 70.3141 265.202C70.3422 267.564 70.2917 269.477 70.2317 270.797C70.194 271.414 70.1634 271.917 70.1385 272.316C70.1123 272.663 70.0906 272.844 70.0746 272.844Z" fill="#263238"/>
<path d="M70.0432 260.257C70.0106 260.255 70.0164 259.692 70.0547 258.669C70.1128 257.649 70.2532 256.174 70.5405 254.368C70.8451 252.567 71.2709 250.426 71.9394 248.102C72.5753 245.768 73.4494 243.249 74.5596 240.687C76.7336 235.531 79.6864 231.315 82.2556 228.704C82.8576 228.011 83.5293 227.511 84.0656 227.021C84.3433 226.786 84.5891 226.552 84.8394 226.366C85.0903 226.193 85.3246 226.032 85.5417 225.882C86.387 225.304 86.8607 224.999 86.878 225.027C86.954 225.13 84.9843 226.289 82.4969 228.935C80.0203 231.575 77.1498 235.762 74.9938 240.874C73.8924 243.415 73.0126 245.911 72.3582 248.221C71.6713 250.523 71.2148 252.642 70.87 254.426C70.5425 256.213 70.3522 257.674 70.2379 258.684C70.1434 259.697 70.0758 260.258 70.0432 260.257Z" fill="#263238"/>
</g>
<g clip-path="url(#clip14)">
<g opacity="0.4" clip-path="url(#clip15)">
<path d="M189.095 311.861C189.095 312.856 228.163 313.851 276.687 313.851C325.211 313.851 364.03 313.105 364.03 311.861C364.03 310.865 324.962 309.87 276.438 309.87C227.914 309.87 189.095 310.865 189.095 311.861Z" fill="black"/>
</g>
<path d="M206.514 288.47C206.514 288.47 206.763 293.198 205.519 295.188C205.767 295.437 214.726 299.668 214.726 299.668C214.726 299.668 217.214 299.916 217.214 297.428C217.214 294.442 215.223 292.7 216.219 288.47C216.468 287.723 206.514 288.47 206.514 288.47Z" fill="#233519"/>
<g opacity="0.2">
<path d="M214.975 288.967C214.975 288.967 215.473 295.188 216.966 297.179C216.717 297.428 207.759 299.419 207.759 299.419C207.759 299.419 212.487 293.944 212.238 291.704C212.238 290.46 207.012 291.704 206.266 288.469C206.017 287.723 214.975 288.967 214.975 288.967Z" fill="black"/>
</g>
<path d="M218.957 309.123C220.45 304.644 189.344 309.123 189.593 311.612C189.593 311.86 189.593 312.358 189.593 312.607C196.561 315.095 211.491 311.363 212.487 312.109C216.219 312.358 217.961 311.612 218.21 310.865C218.459 310.616 218.708 309.87 218.957 309.123Z" fill="#848484"/>
<path d="M216.717 293.695C216.717 293.695 216.468 296.93 214.229 296.93C209.998 296.93 212.238 292.202 205.519 292.202C203.777 292.202 204.026 293.695 203.777 294.441C200.542 301.16 197.556 303.4 192.828 304.644C188.1 305.888 189.344 308.625 189.593 311.363C196.561 313.851 211.491 310.118 212.487 310.865C216.219 311.114 217.961 310.367 218.21 309.621C220.698 304.146 218.957 300.165 216.717 293.695Z" fill="#2B2B2B"/>
<path d="M211.741 296.183C210.248 294.939 210.248 292.202 205.52 292.451C203.778 292.451 204.026 293.944 203.778 294.69C200.543 301.409 197.557 303.649 192.829 304.893C195.068 304.644 196.561 305.639 197.805 307.381C204.773 309.372 212.238 296.432 211.741 296.183Z" fill="#606060"/>
<path d="M198.801 311.861C200.791 309.622 197.059 303.401 193.077 304.396C188.349 305.64 189.593 308.377 189.842 311.115C192.082 312.11 195.815 312.11 198.801 311.861Z" fill="#919191"/>
<path d="M213.731 310.865C213.731 310.865 213.731 310.865 213.731 310.616V310.616C213.731 309.87 213.731 308.128 214.478 306.386V306.386C215.224 304.644 216.469 303.151 219.206 302.654V302.654V301.907C216.22 302.405 214.727 304.147 213.98 305.888V305.888C213.234 307.63 212.985 309.621 212.985 310.368V310.368C212.985 310.616 212.985 310.616 212.985 310.616V310.616V310.616L213.731 310.865V310.865Z" fill="#D6D6D6"/>
<g opacity="0.2">
<path d="M216.469 294.94C216.469 294.94 218.21 303.152 215.722 303.152C212.736 311.363 205.519 309.124 200.792 310.368C196.064 311.612 189.345 308.377 189.594 311.115C196.561 313.603 211.492 309.87 212.487 310.617C215.722 310.866 216.717 310.368 217.215 309.622C219.703 304.147 218.708 301.41 216.469 294.94Z" fill="black"/>
</g>
<path d="M269.969 288.47C269.969 288.47 269.72 293.198 270.964 295.189C270.715 295.437 261.757 299.668 261.757 299.668C261.757 299.668 259.269 299.917 259.269 297.428C259.269 294.442 261.259 292.7 260.264 288.47C260.015 287.723 269.969 288.47 269.969 288.47Z" fill="#233519"/>
<g opacity="0.2">
<path d="M268.973 288.967C268.973 288.967 268.724 293.446 269.969 295.437C269.72 295.686 261.757 299.418 261.757 299.418C261.757 299.418 265.738 293.695 265.738 291.455C265.738 290.211 260.264 293.695 260.264 288.221C260.015 287.723 268.973 288.967 268.973 288.967Z" fill="black"/>
</g>
<path d="M257.776 309.123C256.283 304.644 287.388 309.123 287.139 311.612C287.139 311.86 287.139 312.358 287.139 312.607C280.171 315.095 265.241 311.363 264.246 312.109C260.513 312.358 258.771 311.612 258.522 310.865C258.025 310.616 257.776 309.87 257.776 309.123Z" fill="#848484"/>
<path d="M259.766 293.695C259.766 293.695 260.015 296.93 262.254 296.93C266.485 296.93 264.245 292.202 270.964 292.202C272.706 292.202 272.457 293.695 272.706 294.442C275.941 301.16 278.927 303.4 283.655 304.644C288.383 305.888 287.139 308.626 286.89 311.363C279.922 313.851 264.992 310.119 263.996 310.865C260.264 311.114 258.522 310.367 258.273 309.621C255.785 304.146 257.526 300.165 259.766 293.695Z" fill="#2B2B2B"/>
<path d="M264.743 296.184C266.236 294.939 266.236 292.202 270.964 292.451C272.706 292.451 272.457 293.944 272.706 294.691C275.941 301.409 278.927 303.649 283.655 304.893C281.416 304.644 279.923 305.64 278.678 307.381C271.711 309.372 264.246 296.432 264.743 296.184Z" fill="#606060"/>
<path d="M277.931 311.86C275.941 309.621 279.673 303.4 283.655 304.395C288.383 305.639 287.138 308.377 286.89 311.114C284.65 312.109 280.669 312.109 277.931 311.86Z" fill="#919191"/>
<path d="M263.499 310.368C263.499 309.621 263.499 307.63 262.504 305.888V305.888C261.757 304.147 260.015 302.156 257.278 301.907V301.907V302.654C259.766 302.902 261.259 304.644 262.006 306.386V306.386C262.752 308.128 262.752 309.87 262.752 310.616V310.616C262.752 310.865 262.752 310.865 262.752 310.865V310.865V310.865H263.499C263.499 310.865 263.499 310.616 263.499 310.368V310.368Z" fill="#D6D6D6"/>
<g opacity="0.2">
<path d="M281.415 310.865C292.862 304.644 264.743 304.644 270.964 292.202C272.706 292.202 272.457 293.695 272.706 294.442C275.94 301.16 278.927 303.4 283.655 304.644C288.383 305.888 287.138 308.626 286.89 311.363C279.922 313.851 264.991 310.119 263.996 310.865C260.263 311.114 258.522 310.367 258.273 309.621C256.78 306.386 277.185 312.358 281.415 310.865Z" fill="black"/>
</g>
<path d="M263.997 116.769C266.734 118.76 268.227 123.985 268.227 123.985C268.227 123.985 259.766 131.451 253.545 132.197C251.803 132.197 253.545 138.418 253.545 138.418C253.545 138.418 277.185 135.183 279.425 130.206C279.922 126.474 273.701 110.299 273.701 110.299C273.701 110.299 263.001 115.774 263.997 116.769Z" fill="#C4855B"/>
<g opacity="0.2">
<path d="M269.471 113.783C271.213 116.023 275.195 127.718 275.195 128.465C274.946 129.211 260.264 134.934 254.292 135.681C252.55 135.681 253.048 137.423 253.048 137.423C253.048 137.423 276.19 134.934 278.43 129.958C278.927 126.225 272.457 110.797 272.457 110.797C272.457 110.797 268.725 112.788 269.471 113.783Z" fill="black"/>
</g>
<path d="M254.541 135.183C254.79 129.211 260.015 127.469 259.518 126.971C259.02 126.473 255.785 125.976 254.541 127.22C253.048 128.464 253.545 131.948 253.545 131.948C253.545 131.948 253.794 135.432 254.541 135.183Z" fill="#C4855B"/>
<g opacity="0.2">
<path d="M254.54 135.183C254.789 129.211 259.019 127.469 258.771 126.971C258.273 126.474 257.278 126.722 255.784 127.967C254.291 129.211 253.545 131.948 253.545 131.948C253.545 131.948 253.794 135.432 254.54 135.183Z" fill="black"/>
</g>
<path d="M262.254 87.4054C266.485 87.9031 266.734 92.6311 267.231 93.8753C268.724 96.8614 274.199 106.566 274.696 109.552C275.692 114.778 269.72 118.759 264.743 117.764C259.268 117.018 260.264 111.045 256.282 106.566C255.287 105.82 256.282 92.88 256.282 92.88C256.282 92.88 257.526 86.9078 262.254 87.4054Z" fill="#3F3D56"/>
<g opacity="0.4">
<path d="M261.508 88.6495C265.241 89.6449 264.743 93.6263 265.489 94.8705C266.982 97.8566 271.959 106.815 272.955 109.552C274.696 114.529 270.715 116.52 270.217 116.769C264.743 116.022 265.489 107.064 256.282 106.317C255.287 105.571 256.282 92.631 256.282 92.631C256.282 92.631 257.029 87.4053 261.508 88.6495Z" fill="black"/>
</g>
<path d="M223.187 127.22C223.187 127.22 222.938 125.478 222.44 123.737C222.191 122.99 220.201 121.746 218.708 123.239C220.449 124.732 221.942 129.46 221.942 129.46L223.187 127.22Z" fill="#C4855B"/>
<g opacity="0.2">
<path d="M223.186 127.221C223.186 127.221 222.938 126.474 222.44 124.733C222.191 123.986 221.445 122.244 219.703 123.239C221.445 124.733 221.693 129.212 221.693 129.212L223.186 127.221Z" fill="black"/>
</g>
<path d="M213.233 112.539C213.233 112.539 209.252 116.769 209.003 118.76C209.003 118.76 217.215 127.469 221.943 128.465C222.44 129.46 220.698 134.686 220.698 134.686C220.698 134.686 200.294 129.958 197.307 123.737C196.561 120.751 205.021 104.576 205.021 104.576L213.233 112.539Z" fill="#C4855B"/>
<g opacity="0.2">
<path d="M211.989 111.793C211.989 111.793 207.759 116.272 207.759 118.262C207.759 118.262 206.515 117.765 204.524 118.262C203.777 115.276 208.008 109.553 208.008 109.553L211.989 111.793Z" fill="black"/>
</g>
<g opacity="0.2">
<path d="M221.445 131.202C221.942 132.197 220.698 133.69 220.698 133.69C220.698 133.69 202.284 129.709 199.049 123.488C198.303 120.75 210.993 128.464 221.445 131.202Z" fill="black"/>
</g>
<path d="M219.454 83.9221C215.224 84.4198 214.975 86.4105 213.98 88.4013C211.989 93.3781 204.773 101.092 204.773 102.834C202.782 109.553 210.994 114.53 213.731 113.783C216.717 113.037 216.219 110.548 220.699 106.816C223.933 103.581 224.68 94.6223 224.68 94.6223C224.68 94.6223 221.694 83.4244 219.454 83.9221Z" fill="#3F3D56"/>
<g opacity="0.4">
<path d="M215.224 97.8568C213.234 102.834 207.013 108.557 206.764 110.299C208.506 111.543 210.247 113.534 211.989 113.534C213.98 112.787 214.975 110.05 219.455 106.069C222.69 102.834 224.68 94.373 224.68 94.373C224.68 94.373 215.971 95.8661 215.224 97.8568Z" fill="black"/>
</g>
<g clip-path="url(#clip16)">
<path d="M236.534 146.252C244.716 146.252 251.349 139.619 251.349 131.437C251.349 123.255 244.716 116.622 236.534 116.622C228.352 116.622 221.719 123.255 221.719 131.437C221.719 139.619 228.352 146.252 236.534 146.252Z" fill="#E33627"/>
<g clip-path="url(#clip17)">
<path fill-rule="evenodd" clip-rule="evenodd" d="M256.698 131.848C256.698 120.325 247.645 110.86 236.122 110.86V110.86C224.599 110.86 215.546 120.325 215.546 131.848V131.848C215.546 143.37 224.599 152.835 236.122 152.835V152.835C247.645 152.835 256.698 143.37 256.698 131.848V131.848ZM252.995 131.848C252.995 141.313 245.176 149.132 236.122 149.132V149.132C226.657 149.132 219.25 141.313 219.25 131.848V131.848C219.25 122.383 227.069 114.564 236.122 114.564V114.564C245.587 114.564 252.995 121.971 252.995 131.848V131.848Z" fill="#E33627"/>
</g>
<g clip-path="url(#clip18)">
<path fill-rule="evenodd" clip-rule="evenodd" d="M259.99 131.848C259.99 118.679 249.291 107.568 236.534 107.568V107.568C223.365 107.568 213.077 118.268 213.077 131.848V131.848C213.077 145.017 223.776 156.128 236.534 156.128V156.128C249.291 156.128 259.99 145.017 259.99 131.848V131.848ZM258.756 131.848C258.756 144.605 248.879 154.893 236.122 154.893V154.893C223.776 154.893 213.488 144.605 213.488 131.848V131.848C213.488 119.091 223.365 108.802 236.122 108.802V108.802C248.468 108.802 258.756 119.091 258.756 131.848V131.848Z" fill="#E33627"/>
</g>
</g>
<path d="M254.292 136.677C254.043 141.405 257.278 144.142 257.527 147.377C257.776 150.114 235.38 153.1 235.38 153.1C235.38 153.1 216.717 146.63 216.717 145.884C216.966 143.644 220.201 143.146 220.947 136.179C221.694 135.93 254.541 135.93 254.292 136.677Z" fill="#C4855B"/>
<g opacity="0.2">
<path d="M254.291 136.676C254.291 137.174 254.291 137.921 254.291 138.418C234.882 141.902 220.698 136.925 220.698 136.925C220.698 136.676 220.698 136.428 220.698 135.93C221.693 135.93 254.54 135.93 254.291 136.676Z" fill="black"/>
</g>
<g opacity="0.2">
<path d="M253.048 136.926C252.799 141.654 256.034 144.391 256.283 147.626C256.283 148.372 254.79 149.119 253.048 149.617C252.302 149.865 251.555 149.368 251.555 148.621C251.804 144.142 248.32 140.409 249.564 137.175C249.564 136.677 250.062 136.428 250.56 136.428C252.55 136.677 253.048 136.926 253.048 136.926Z" fill="black"/>
</g>
<path d="M235.131 146.381C235.131 146.63 235.38 146.63 235.38 146.879C235.629 147.128 235.38 147.625 235.629 147.625C235.877 147.625 236.126 147.128 236.126 146.381C236.126 145.635 235.877 145.137 235.629 145.137C235.38 145.137 235.131 145.635 235.131 146.381Z" fill="#63391C"/>
<path d="M216.966 277.52C216.966 277.52 219.952 279.511 220.201 280.755C220.45 281.502 218.708 284.239 218.21 284.986C217.961 285.732 219.205 288.718 218.956 289.465C218.708 289.962 211.242 290.46 209.252 289.962C206.266 289.216 203.777 287.723 203.528 286.976C203.28 286.23 204.524 283.741 204.773 283.244C205.27 282 203.031 279.262 204.524 277.023C205.27 275.779 208.007 276.525 208.007 276.525L216.966 277.52Z" fill="#90A09F"/>
<g opacity="0.2">
<path d="M216.717 278.018C216.717 278.018 219.454 279.76 219.703 280.755C219.952 281.502 218.21 284.239 217.961 284.985C217.712 285.732 218.956 288.22 218.707 289.216C218.459 289.713 211.242 289.962 209.5 289.465C208.754 289.216 203.777 287.225 204.275 286.976C206.017 286.479 217.214 287.972 217.214 287.474C217.214 284.985 211.242 286.23 209.251 284.488C208.256 283.492 216.717 283.99 218.459 281.253C216.468 280.506 208.007 276.276 208.007 276.276L216.717 278.018Z" fill="black"/>
</g>
<path d="M259.269 279.76C259.269 279.76 257.03 280.009 257.03 281.751C257.03 282.498 257.776 284.986 258.025 285.981C258.274 287.226 256.781 287.972 257.527 289.714C258.025 290.958 263.5 291.207 266.735 290.958C269.721 290.958 272.707 290.461 272.956 289.714C273.204 288.968 272.707 286.479 272.458 286.23C272.209 285.981 273.453 282 272.956 281.502C271.96 280.756 268.476 279.014 268.476 279.014L259.269 279.76Z" fill="#90A09F"/>
<g opacity="0.2">
<path d="M259.268 279.76C259.268 279.76 271.959 281.751 271.213 283.244C270.466 285.484 262.254 285.981 262.503 286.728C262.503 287.723 266.485 287.474 268.227 287.972C270.715 288.968 271.213 290.212 257.526 289.216C258.024 290.461 263.25 290.709 266.236 290.461C269.222 290.461 271.461 289.963 271.71 289.216C271.959 288.47 271.213 286.728 270.964 286.23C270.715 285.981 272.706 282.249 271.959 281.751C270.964 281.005 267.978 278.765 267.978 278.765L259.268 279.76Z" fill="black"/>
</g>
<path d="M257.527 146.63C257.527 146.63 259.766 152.105 260.513 153.598C262.753 157.33 265.987 165.293 266.983 171.514C269.222 198.887 267.232 235.217 267.48 236.462C272.208 248.406 269.471 271.548 270.218 282C267.978 283.244 260.264 282 259.02 282C256.283 267.318 253.545 260.351 252.55 256.867C251.057 251.143 252.55 240.194 252.55 240.194C252.55 240.194 249.813 223.024 236.126 182.712C224.929 207.596 222.191 239.448 222.191 239.448C222.191 239.448 224.182 250.646 223.684 256.618C223.436 259.853 219.205 271.797 216.966 281.004C215.97 281.004 210.496 281.502 207.261 279.511C207.51 261.097 204.772 234.222 204.772 234.222C204.772 234.222 204.772 182.463 206.017 171.763C206.763 164.547 211.74 154.842 213.731 150.611C214.228 149.616 216.717 145.137 216.717 145.137C216.717 145.137 223.684 150.114 235.878 150.363C248.32 150.86 257.527 146.63 257.527 146.63Z" fill="#3F3D56"/>
<g opacity="0.2">
<path d="M251.804 149.367L256.283 147.625C256.283 147.625 257.776 153.1 258.523 154.593C260.762 158.325 263.499 165.79 264.246 172.011C268.227 198.637 264.744 235.466 264.744 236.71C269.472 248.655 267.232 272.295 267.978 282.497C266.983 282.497 265.49 282.746 263.997 282.497C264.246 280.506 264.495 263.585 263.748 256.12C263.251 251.89 263.251 253.134 262.255 248.903C261.757 247.162 263.499 240.941 263.002 237.954C262.753 236.461 260.016 227.005 259.767 225.015C259.767 212.075 259.269 185.449 255.288 166.786L253.297 157.33C253.297 157.33 245.085 159.072 235.878 159.072C226.92 159.072 216.966 157.33 213.233 151.109C215.722 152.602 218.708 153.846 220.947 155.09L220.45 156.583C220.45 156.583 222.441 157.33 223.187 157.579L223.436 156.086C233.39 159.569 243.094 158.076 248.569 157.33C248.569 157.33 248.569 158.076 248.818 158.325L251.555 157.828C251.555 157.828 251.057 156.334 251.306 156.334C252.55 155.837 253.297 155.588 253.297 155.588L251.804 149.367Z" fill="black"/>
</g>
<g opacity="0.2">
<path d="M245.583 172.011C244.339 175.246 239.86 179.228 237.371 181.218C237.122 181.467 253.795 182.463 253.546 182.711C253.297 182.96 236.874 181.467 236.625 181.716C235.878 182.214 235.629 182.463 235.629 182.463C221.694 207.844 218.708 238.95 218.708 238.95C218.708 238.95 220.948 249.65 220.45 255.373C220.201 258.608 216.717 271.299 214.229 280.506C213.234 280.506 214.229 280.506 211.492 280.506C217.215 254.875 212.985 235.466 212.985 235.466C212.985 235.466 222.441 184.702 229.906 178.73C230.155 178.481 226.671 173.753 225.676 171.016C229.906 178.73 235.878 181.218 235.878 181.218C235.878 181.218 244.836 175.495 245.583 172.011Z" fill="black"/>
</g>
<path d="M251.306 157.081C257.029 155.837 261.011 154.344 261.011 154.344C261.26 153.847 259.269 148.372 258.771 147.874C258.522 147.626 255.038 149.119 249.564 150.363L251.306 157.081Z" fill="#56412E"/>
<g opacity="0.4">
<path d="M251.305 157.082C257.029 155.838 261.01 154.345 261.01 154.345C261.01 154.345 261.01 154.096 261.01 153.847C258.771 155.34 251.057 156.833 251.057 156.833L251.305 157.082Z" fill="black"/>
</g>
<g opacity="0.2">
<path d="M253.545 156.335C255.785 155.838 257.775 155.34 259.02 154.842C259.517 154.593 257.029 148.372 256.78 148.621C255.536 148.87 254.292 149.368 252.301 149.865C252.798 150.363 253.296 152.852 253.545 156.335Z" fill="black"/>
</g>
<path d="M223.436 156.833C231.897 159.321 241.353 158.824 248.569 157.579L247.325 150.861C240.606 152.105 232.145 152.851 224.431 150.363L223.436 156.833Z" fill="#56412E"/>
<g opacity="0.4">
<path d="M223.436 156.833C231.897 159.322 241.353 158.824 248.569 157.58V157.082L242.348 158.077C242.348 157.58 242.597 151.608 241.85 151.856C241.601 151.856 240.855 151.856 240.855 152.105C240.606 153.598 242.846 157.829 241.353 158.326C235.878 159.571 226.173 157.58 224.183 157.082C223.934 157.082 225.178 150.861 224.929 150.861L223.436 156.833Z" fill="black"/>
</g>
<path d="M222.191 149.616C219.952 148.621 217.712 147.377 215.473 145.635C215.224 145.635 212.984 151.11 213.233 151.358C215.473 153.349 217.961 154.842 220.947 155.837L222.191 149.616Z" fill="#56412E"/>
<g opacity="0.4">
<path d="M213.482 150.861C213.482 151.11 213.482 151.359 213.482 151.359C215.722 153.349 218.21 154.843 221.196 155.838V155.589C220.947 155.838 216.219 153.598 213.482 150.861Z" fill="black"/>
</g>
<path d="M241.352 152.105C241.103 151.358 231.398 151.358 230.403 152.105C229.656 152.851 229.158 157.828 229.905 158.575C230.651 159.321 240.605 159.072 241.352 158.824C242.098 158.326 241.849 152.603 241.352 152.105Z" fill="#AF8D00"/>
<g opacity="0.5">
<path d="M241.352 152.105C241.103 151.358 231.398 151.358 230.403 152.105C229.656 152.851 229.158 157.828 229.905 158.575C229.656 156.584 230.154 152.602 230.9 152.354C231.896 151.856 236.624 151.607 241.352 152.105Z" fill="white"/>
</g>
<g opacity="0.2">
<path d="M241.103 152.354C240.855 151.607 241.352 156.833 240.357 157.579C239.61 158.326 229.906 157.579 230.403 158.077C231.15 158.824 240.108 158.326 240.855 158.077C241.85 157.828 241.601 153.1 241.103 152.354Z" fill="black"/>
</g>
<path d="M263.498 55.5544L257.775 87.4061L226.421 82.1804L226.919 49.8311L263.498 55.5544Z" fill="black"/>
<path d="M248.568 76.955C251.057 80.4388 262.254 87.1575 262.254 87.6552C259.268 92.632 258.771 98.3554 258.771 98.3554C258.771 98.3554 261.757 109.802 261.01 111.793C259.766 114.53 253.545 116.521 253.545 116.521C251.803 118.76 255.038 131.451 254.54 137.424C253.545 137.672 233.389 141.405 220.2 136.428C219.454 131.7 222.937 117.765 220.947 114.779C220.2 114.032 214.228 107.811 214.228 105.572C214.228 103.083 219.951 96.1158 219.951 96.1158C219.951 96.1158 220.2 88.8994 219.205 83.9226C219.454 83.1761 229.159 79.9411 234.882 75.2131C236.375 75.2131 247.573 76.7062 248.568 76.955Z" fill="#F1D427"/>
<g opacity="0.2">
<path d="M248.568 76.955C251.056 80.4388 261.508 88.4017 261.508 88.8994C258.522 93.8762 258.77 98.3553 258.77 98.3553C258.77 98.3553 261.01 109.553 260.263 111.295C259.019 114.032 252.052 116.272 252.052 116.272C250.31 118.511 253.794 131.949 253.296 137.921C247.324 139.165 249.563 137.921 248.568 133.442C247.821 130.456 247.075 125.977 246.577 117.765C246.328 115.525 223.435 116.023 222.937 115.277C222.191 114.53 215.223 108.309 215.223 105.821C215.223 103.332 254.042 115.277 257.526 110.051C259.517 89.1482 241.351 94.8716 229.905 93.3785C240.107 93.1297 249.563 91.3878 249.812 91.1389C252.3 86.6598 251.554 82.9272 246.826 80.6876C246.826 80.6876 242.596 81.4341 241.103 81.1853C236.126 80.1899 235.628 78.6969 235.628 78.6969C231.896 78.9457 228.661 80.6876 226.67 84.4202C225.923 84.4202 230.651 78.6969 230.402 78.6969L235.13 75.462C236.375 75.2131 247.573 76.7061 248.568 76.955Z" fill="black"/>
</g>
<path d="M248.07 66.2548V71.4804L241.849 72.7246L235.628 70.9827V65.7571L248.07 66.2548Z" fill="#C4855B"/>
<g opacity="0.4">
<path d="M248.07 66.2548V71.4804L241.849 72.7246L235.628 70.9827V65.7571L248.07 66.2548Z" fill="black"/>
</g>
<path d="M248.07 68.494C248.07 69.2405 244.835 71.9778 241.103 71.729C237.37 71.4801 235.628 68.494 235.628 68.494C235.628 68.494 233.886 68.9917 233.638 70.2359C233.389 71.4801 235.628 72.4755 235.131 72.9732C234.882 73.4709 233.638 73.7197 233.638 74.4662C233.638 76.2081 235.877 80.1896 241.103 80.1896C245.333 80.1896 249.315 78.1988 249.563 75.9593C249.563 73.4708 248.319 74.7151 248.319 72.9732C248.319 71.9778 249.812 70.9824 249.812 69.7382C249.812 67.4987 248.07 67.001 248.07 67.001C248.07 67.001 248.07 67.9963 248.07 68.494Z" fill="#2B2B2B"/>
<g opacity="0.4">
<path d="M244.835 75.9593C244.835 77.2035 248.816 72.9732 249.563 76.2081C249.563 73.7197 248.319 74.9639 248.319 73.222C248.319 72.2266 249.812 71.2313 249.812 69.9871C249.563 71.9778 244.835 74.2174 244.835 75.9593Z" fill="black"/>
</g>
<g opacity="0.4">
<path d="M248.071 68.4942C248.071 69.2407 244.836 73.7199 241.103 73.471C237.371 73.2222 235.629 68.4942 235.629 68.4942C235.629 68.4942 233.887 68.9919 233.638 70.2361C233.14 70.9826 237.62 74.9641 242.099 77.7013C243.592 80.6874 235.38 77.9502 233.638 74.7152C233.638 76.4571 235.878 80.4386 241.103 80.4386C245.334 80.4386 249.315 78.4479 249.564 76.2083C249.564 73.7199 248.32 74.9641 248.32 73.2222C248.32 72.2268 249.813 71.2315 249.813 69.9873C249.813 67.7477 248.071 67.25 248.071 67.25C248.071 67.25 248.071 67.9965 248.071 68.4942Z" fill="black"/>
</g>
<path d="M228.164 61.0287C228.164 61.0287 226.133 72.5616 233.35 75.7965C227.626 76.0454 228.413 77.8484 228.413 77.8484C228.413 77.8484 225.178 82.1802 224.68 86.9082C223.436 84.1709 224.68 81.4337 224.68 81.4337C224.68 81.4337 223.685 84.1709 220.45 86.1616C227.915 80.6871 225.427 49.0843 225.427 49.0843C225.427 49.0843 224.431 44.854 225.427 41.619C226.173 38.1353 234.634 26.4397 243.841 24.449C245.832 24.449 246.578 27.1862 247.822 27.1862C248.818 27.4351 252.301 24.6978 254.043 25.1955C260.513 27.4351 267.232 41.3702 267.978 45.3517C268.476 48.3377 267.232 58.0426 265.241 68.2451C263.997 74.7149 262.504 81.1848 261.011 86.6593C260.015 86.1616 258.025 84.6686 258.025 84.6686C258.025 84.6686 259.269 87.9035 258.522 88.8989C257.527 89.8943 253.048 88.8989 253.048 88.8989C253.048 88.8989 256.098 87.6547 256.098 86.1616C256.098 84.6686 255.748 80.8361 255.748 80.8361C255.748 80.8361 256.743 81.3337 255.748 80.8361C256.245 80.0895 253.508 79.0862 253.508 79.0862C253.508 79.0862 256.034 80.4383 258.522 68.2451C258.771 67.0009 261.011 48.0889 261.011 48.0889L255.039 38.6329L246.578 32.4119L228.413 40.126L228.164 61.0287Z" fill="black"/>
<path d="M262.256 53.0662C262.256 53.0662 265.49 53.8127 265.242 56.3011C264.993 58.7895 260.265 59.5361 260.265 59.5361L258.772 60.7803C258.772 60.7803 247.574 69.4897 239.362 68.992C233.141 67.9967 227.667 57.5453 227.667 57.5453L226.671 53.0662C226.671 53.0662 222.441 51.5731 222.441 48.587C222.441 46.3475 226.671 47.3428 226.671 47.3428L230.155 38.6334L237.371 34.4031L246.579 31.417L261.011 45.3521L262.256 53.0662Z" fill="#C4855B"/>
<g opacity="0.2">
<path d="M262.255 53.0662C262.255 53.0662 265.49 53.8127 265.241 56.3011C264.992 58.7895 260.264 59.5361 260.264 59.5361L258.771 60.7803C258.771 60.7803 247.573 69.4897 239.362 68.992C268.974 55.8034 255.288 40.6241 246.08 33.1589C237.869 37.1403 229.906 40.3753 229.906 40.3753C229.906 40.3753 230.652 36.8915 237.371 34.4031C244.09 31.9147 246.578 31.417 246.578 31.417L261.011 45.3521L262.255 53.0662Z" fill="black"/>
</g>
<g opacity="0.2">
<path d="M226.92 52.3191C226.92 52.3191 223.685 51.0749 223.685 48.8353C223.685 47.0934 226.92 47.8399 226.92 47.8399V52.3191Z" fill="black"/>
</g>
<g opacity="0.2">
<path d="M261.011 58.7892C261.011 58.7892 264.246 58.2915 264.743 56.0519C264.992 54.3101 261.757 54.3101 261.757 54.3101L261.011 58.7892Z" fill="black"/>
</g>
<path d="M246.827 31.1679C245.334 30.6703 257.03 39.1309 258.523 46.0984C260.265 54.0613 254.541 85.1665 254.541 85.1665C254.541 85.1665 263.997 54.8079 263.5 45.3519C263.251 42.8635 248.32 31.6656 246.827 31.1679Z" fill="black"/>
<path d="M246.827 31.168C246.827 31.168 232.643 36.1448 230.652 39.6286C227.666 44.6054 228.412 82.1805 228.412 82.1805C228.412 82.1805 224.68 42.3658 225.924 40.1263C227.417 36.8913 246.827 31.168 246.827 31.168Z" fill="black"/>
<g opacity="0.5">
<path d="M196.853 127.142L214.12 126.328L196.853 129.423V127.142Z" fill="#F90000"/>
</g>
<path d="M202.88 130.564L185.613 131.541L202.717 128.283L202.88 130.564Z" fill="#FF4D4D"/>
<g opacity="0.5">
<path d="M199.948 143.595L215.423 135.613L201.088 145.55L199.948 143.595Z" fill="#F90000"/>
</g>
<path d="M206.952 144.084L191.64 152.229L205.812 142.129L206.952 144.084Z" fill="#FF4D4D"/>
<g opacity="0.5">
<path d="M280.745 127.142L263.315 126.328L280.582 129.423L280.745 127.142Z" fill="#F90000"/>
</g>
<path d="M274.555 130.564L291.985 131.541L274.718 128.283L274.555 130.564Z" fill="#FF4D4D"/>
<g opacity="0.5">
<path d="M277.487 143.595L262.175 135.613L276.51 145.55L277.487 143.595Z" fill="#F90000"/>
</g>
<path d="M270.646 144.084L285.795 152.229L271.623 142.129L270.646 144.084Z" fill="#FF4D4D"/>
</g>
<g clip-path="url(#clip19)">
<path fill-rule="evenodd" clip-rule="evenodd" d="M111.887 137.397C122.651 137.397 131.378 146.123 131.378 156.888C131.378 167.652 122.651 176.378 111.887 176.378C101.122 176.378 92.397 167.652 92.397 156.888C92.397 146.123 101.122 137.397 111.887 137.397ZM111.887 174.426C121.575 174.426 129.427 166.574 129.427 156.888C129.427 147.2 121.575 139.347 111.887 139.347C102.202 139.347 94.3474 147.2 94.3474 156.888C94.3474 166.574 102.202 174.426 111.887 174.426Z" fill="#FF3D2C"/>
<path fill-rule="evenodd" clip-rule="evenodd" d="M111.887 132.993C125.084 132.993 135.781 143.69 135.781 156.887C135.781 170.084 125.084 180.781 111.887 180.781C98.691 180.781 87.9932 170.084 87.9932 156.887C87.9932 143.69 98.691 132.993 111.887 132.993ZM111.887 179.758C124.519 179.758 134.759 169.518 134.759 156.887C134.759 144.255 124.519 134.015 111.887 134.015C99.2563 134.015 89.0158 144.255 89.0158 156.887C89.0158 169.518 99.2563 179.758 111.887 179.758Z" fill="#FF4D3D"/>
<path fill-rule="evenodd" clip-rule="evenodd" d="M111.887 141.759C120.241 141.759 127.014 148.533 127.014 156.888C127.014 165.241 120.241 172.014 111.887 172.014C103.532 172.014 96.7603 165.241 96.7603 156.888C96.7603 148.533 103.532 141.759 111.887 141.759ZM111.887 167.939C117.989 167.939 122.938 162.99 122.938 156.888C122.938 150.784 117.989 145.835 111.887 145.835C105.784 145.835 100.832 150.784 100.832 156.888C100.832 162.99 105.784 167.939 111.887 167.939Z" fill="#E33627"/>
<path d="M103.537 156.888C103.537 152.275 107.275 148.536 111.887 148.536C116.5 148.536 120.239 152.275 120.239 156.888C120.239 161.498 116.5 165.239 111.887 165.239C107.275 165.239 103.537 161.498 103.537 156.888Z" fill="#B52B1F"/>
<path d="M110.632 173.018C109.657 170.534 111.818 175.323 113.703 177.966C113.956 178.449 114.908 178.448 115.839 177.966C116.766 177.481 116.691 176.532 116.438 176.048C114.586 173.889 113.052 165.342 112.37 165.279C112 165.243 110.138 163.609 110.138 163.609L97.6036 157.635C97.2211 156.368 94.6652 156.621 93.3996 156.998L89.5365 158.158C88.267 158.535 87.5497 159.87 87.93 161.138C87.93 161.138 102.928 168.051 103.178 168.886C104.858 180.781 109.768 175.776 110.231 187.505C110.322 189.801 111.657 189.573 112.635 189.196C113.611 188.82 113.608 187.337 113.577 186.794C113.223 180.781 113.466 180.231 110.632 173.018Z" fill="#DA9B6F"/>
<path d="M137.472 115.788C137.205 111.183 140.762 105.67 144.983 106.987C150.211 108.616 153.202 110.251 153.471 114.854C153.738 119.458 154.006 132.317 146.479 129.766C142.285 128.346 137.741 120.39 137.472 115.788Z" fill="#0ABAB5"/>
<path d="M106.26 268.769C106.26 268.769 104.222 274.581 105.669 275.416C112.316 279.257 118.629 284.9 122.985 284.833C125.379 284.798 129.453 279.997 126.502 277.338C123.975 275.058 120.58 276.255 116.453 266.848C115.411 264.475 106.26 268.769 106.26 268.769Z" fill="#291B10"/>
<path d="M132.298 269.615C132.298 269.615 131.737 275.748 133.34 276.206C140.722 278.319 148.216 282.26 152.428 281.136C154.741 280.519 157.523 274.872 154.016 273.01C151.012 271.414 148.009 273.399 141.721 265.276C140.132 263.227 132.298 269.615 132.298 269.615Z" fill="#291B10"/>
<path d="M155.812 169.453L164.49 214.565L143.969 268.993L132.978 266.43L145.106 213.707L138.26 186.526L131.792 185.018L133.887 221.061L117.562 268.357L105.698 266.862L115.079 224.798C115.633 188.506 112.368 184.868 113.138 159.018L155.812 169.453Z" fill="#3F3D56"/>
<path d="M146.139 263.41C144.781 266.758 146.404 265.536 145.663 268.177C145.064 270.309 141.821 268.849 138.196 268.711C134.799 268.58 131.852 272.008 131.234 268.907C130.575 265.601 133.439 264.19 134.389 260.669L146.139 263.41Z" fill="#9E7B46"/>
<path d="M118.518 264.7C117.158 268.051 118.783 266.831 118.042 269.47C117.443 271.605 114.201 270.143 110.575 270.004C107.178 269.876 104.231 273.3 103.613 270.201C102.953 266.894 105.818 265.484 106.769 261.961L118.518 264.7Z" fill="#9E7B46"/>
<path d="M140.576 93.9692L134.262 110.811L145.151 117.361C145.675 129.229 155.677 146.709 155.811 169.453C137.621 174.451 132.624 177.898 113.105 172.551C111.016 155.808 107.559 140.688 97.603 112.734L116.077 109.778L122.389 90.676L140.576 93.9692Z" fill="#DA9B6F"/>
<path d="M122.39 90.676L140.577 93.9692L136.979 103.561C136.491 103.492 125.375 101.148 119.416 99.6733L122.39 90.676Z" fill="#CA804F"/>
<path d="M128.859 118.672C133.688 118.672 133.053 114.039 135.352 107.901C138.743 105.851 141.444 105.58 145.151 107.048C145.675 118.916 155.677 146.709 155.811 169.453C137.621 174.451 132.624 177.898 113.105 172.551C111.016 155.808 107.559 140.688 97.603 112.734C103.572 110.199 109.712 109.068 116.077 109.778C119.364 114.813 123.964 118.672 128.859 118.672Z" fill="#0ABAB5"/>
<path d="M110.19 43.7556C114.098 38.614 120.258 35.964 126.217 34.8867C132.754 33.7039 141.689 31.3927 146.991 35.8872C151.558 39.7578 147.778 45.9728 149.026 53.9042C150.275 61.8357 150.237 67.8954 150.237 67.8954C150.237 67.8954 149.798 74.7753 149.026 80.9257C148.255 87.076 147.152 92.4969 147.152 92.4969C147.152 92.4969 147.615 103.395 142.402 103.233C133.604 102.96 119.409 97.2468 114.687 87.1835C111.913 81.2684 109.678 82.0688 108.751 75.623C108.189 71.7083 104.856 65.3635 104.043 61.5025C103.652 59.6375 103.287 57.7687 102.95 55.891C101.74 49.1951 107.591 47.1742 110.19 43.7556Z" fill="#DA9B6F"/>
<path d="M110.202 49.1781C109.387 57.7427 109.837 65.9365 111.676 73.7268C107.18 65.5657 104.781 64.7869 102.215 68.031C99.289 62.5588 96.8025 56.8188 97.8451 51.1069C98.7834 45.9641 102.204 42.97 105.546 41.3749C105.098 37.4768 110.39 32.4119 114.711 30.6071C134.993 22.1403 136.019 29.3028 146.406 28.8662C151.17 28.6667 153.279 27.2678 156.615 23.7629C157.542 28.1846 159.249 32.7495 157.431 36.4858C156.361 38.682 154.355 41.458 151.641 42.8275C137.182 50.1179 121.324 44.0058 110.202 49.1781Z" fill="black"/>
<path d="M99.059 75.3349C97.341 71.6593 98.3825 67.5406 101.385 66.1379C104.388 64.7333 108.214 66.5771 109.931 70.254C111.65 73.9309 110.607 78.0482 107.606 79.4516C104.603 80.8543 100.776 79.0117 99.059 75.3349Z" fill="#DA9B6F"/>
<path d="M104.379 74.161C104.182 73.1003 104.791 72.0998 105.738 71.9233C106.684 71.7481 107.609 72.4648 107.805 73.5261C108.003 74.5875 107.396 75.5899 106.449 75.7638C105.503 75.9403 104.577 75.2223 104.379 74.161Z" fill="#CA804F"/>
<path d="M106.735 73.7241C106.354 71.6737 104.564 70.2857 102.732 70.6252C102.087 70.7447 101.529 71.0714 101.085 71.5234C101.507 70.4545 102.378 69.6412 103.502 69.4328C105.332 69.0939 107.125 70.4807 107.505 72.5323C107.751 73.8602 107.34 75.1325 106.526 75.9637C106.792 75.2898 106.881 74.5168 106.735 73.7241Z" fill="#CA804F"/>
<path d="M105.698 159.018C80.6896 152.719 77.3925 128.923 104.981 128.756L97.6036 112.734C59.1867 127.188 65.0928 156.808 99.2965 171.272L105.698 159.018Z" fill="#0ABAB5"/>
</g>
<g clip-path="url(#clip20)">
<path d="M77.9943 75.2562C77.9943 57.8612 63.8925 43.759 46.4975 43.759C29.1014 43.759 15 57.8612 15 75.2562C15 92.6524 29.1014 106.755 46.4975 106.755C63.8925 106.755 77.9943 92.6524 77.9943 75.2562Z" fill="#0ABAB5"/>
<g clip-path="url(#clip21)">
<path d="M48.8315 91.0481C48.5773 90.5826 48.1303 90.3074 47.7574 90.4779L43.8602 92.2703C43.5049 92.4367 43.3797 93.0287 43.6843 93.5956C43.9752 94.1637 44.4992 94.4666 44.852 94.2747L48.6325 92.2495C48.9853 92.058 49.0748 91.5204 48.8315 91.0481Z" fill="#D9EBFF"/>
<path d="M53.479 91.7879C52.5637 92.3054 52.2456 91.5718 52.0547 91.204C51.8594 90.8403 51.3769 90.7345 51.102 90.8396C50.8336 90.9386 50.6675 90.8913 50.8839 91.3136C51.1007 91.7243 51.1922 92.7535 50.8564 92.8818C50.5287 92.9971 49.9503 92.6548 49.6733 91.9747L49.6682 92.0295C49.6026 91.8791 49.5379 91.7382 49.4729 91.612C49.3593 91.3919 49.0837 91.2149 48.9605 91.3674C48.3334 92.1489 47.3947 92.6617 46.4389 93.0305C45.4852 93.4044 44.5142 93.6334 43.8782 93.9559C43.7088 94.041 43.6533 94.3517 43.8235 94.5983C44.1637 95.1108 44.4852 95.596 44.7918 96.057C45.1045 96.5353 45.3382 96.9889 45.6584 97.4438C45.9548 97.896 46.2341 98.3217 46.4944 98.7181C46.8016 99.1264 47.1239 99.5075 47.4219 99.8395C47.6744 100.118 48.0493 100.287 48.1211 100.093C48.4502 99.2403 49.2344 98.5108 50.0265 97.8351C50.823 97.1632 51.6246 96.5391 52.1228 96.0291C52.2541 95.8926 52.2742 95.5813 52.0802 95.4646C51.7764 95.2673 51.4504 95.0472 51.2038 94.7239C50.8145 94.2761 51.2721 93.9002 51.64 94.305C51.8216 94.515 51.9588 94.5619 52.071 94.5395C52.1816 94.5208 52.266 94.4378 52.3633 94.3575C52.5603 94.1999 53.8386 93.2619 54.644 92.6001C55.0452 92.2642 54.9975 92.0213 54.7226 91.7961C54.4504 91.6018 53.9397 91.5358 53.479 91.7879Z" fill="white"/>
<path d="M46.3891 84.817C46.2397 84.3022 45.8052 83.9735 45.4187 84.0831L41.2973 85.2702C40.9111 85.3791 40.7332 85.9351 40.9013 86.5107C41.0727 87.0858 41.5515 87.4427 41.9281 87.3164L46.0005 85.9704C46.3857 85.8425 46.5422 85.3325 46.3891 84.817Z" fill="#B52B1F"/>
<path d="M50.8957 86.5408C49.8916 86.8266 49.6663 86.0206 49.5636 85.5707C49.4483 85.1287 48.9563 84.9539 48.6732 85.0032C48.3901 85.0539 48.2312 84.977 48.3874 85.4401C48.5371 85.9028 48.4163 86.9892 48.0737 87.0314C47.711 87.0811 47.2312 86.6101 47.0798 85.8793L47.0662 85.9324C47.0237 85.7725 46.9798 85.6218 46.9338 85.486C46.8532 85.2472 46.6058 85.0257 46.4605 85.1567C44.9863 86.5125 42.3888 86.468 41.0224 86.8752C40.8414 86.9324 40.7342 87.2148 40.8594 87.469C41.1109 87.979 41.3184 88.4758 41.496 88.9542C41.6859 89.4319 41.8601 89.8909 42.0081 90.3294C42.2901 91.2046 42.5749 91.9932 42.8611 92.6367C42.9812 92.9054 43.2493 93.1151 43.3891 92.9759C44.6429 91.7575 47.2646 91.1648 48.5459 90.5394C48.7171 90.4574 48.828 90.1634 48.6718 89.978C48.4221 89.6826 48.2067 89.3356 48.0165 88.9661C47.7395 88.4244 48.2758 88.1587 48.5419 88.6717C48.8355 89.1746 49.0206 89.0481 49.2523 88.948C49.4843 88.848 50.9797 88.3271 51.9477 87.9409C52.4336 87.7443 52.4067 87.3424 52.1502 87.008C51.9011 86.667 51.3999 86.4006 50.8957 86.5408Z" fill="white"/>
<path d="M44.8333 78.2843C44.75 77.7555 44.3604 77.3727 43.963 77.4309L39.7208 78.0641C39.3237 78.1216 39.0767 78.6521 39.1709 79.2478C39.2574 79.8477 39.6888 80.2556 40.0787 80.1808L44.292 79.3782C44.6908 79.3009 44.9075 78.8164 44.8333 78.2843Z" fill="#B52B1F"/>
<path d="M49.0722 80.6035C48.5536 80.6757 48.2671 80.5025 48.1001 80.2531C47.9442 80.002 47.9112 79.6764 47.8813 79.4484C47.8217 78.9935 47.3543 78.7557 47.0674 78.7672C46.7802 78.7802 46.6316 78.6828 46.7292 79.1633C46.8265 79.6397 46.5567 80.708 46.2052 80.7053C45.8473 80.7025 45.4387 80.1704 45.3754 79.4283L45.3553 79.4784C45.3328 79.3143 45.308 79.1592 45.2794 79.019C45.2257 78.7723 45.0174 78.5185 44.8558 78.6301C43.2134 79.7819 40.6405 79.4014 39.24 79.627C39.0509 79.6611 38.9045 79.9274 38.9985 80.1932C39.3693 81.2623 39.5585 82.2612 39.7542 83.1469C39.928 84.039 40.0532 84.8328 40.254 85.4844C40.3329 85.7573 40.567 85.9941 40.7266 85.8801C42.1478 84.8849 44.8317 84.6784 46.195 84.2615C46.3767 84.2068 46.5275 83.9322 46.3968 83.725C46.193 83.3926 46.0099 83.021 45.8963 82.6195C45.6989 82.0425 46.261 81.8533 46.4601 82.4007C46.6578 82.9523 46.8728 82.8499 47.113 82.7852C47.3566 82.7195 48.9136 82.4225 49.9279 82.1826C50.9207 81.9478 50.1157 80.4688 49.0722 80.6035Z" fill="#FF4D3D"/>
<path d="M44.2273 71.6248C44.228 71.0943 43.9034 70.6516 43.5022 70.637L39.2151 70.5023C38.8139 70.487 38.4849 70.9905 38.4839 71.6261C38.4839 72.2631 38.8068 72.7663 39.2171 72.7479L43.5039 72.6132C43.8962 72.5985 44.2273 72.1566 44.2273 71.6248Z" fill="#B52B1F"/>
<path d="M48.0528 74.4996C46.9899 74.4989 47.0433 73.6686 47.0491 73.2226C47.0549 72.7772 46.6258 72.4781 46.3397 72.4454C46.0579 72.4149 45.9191 72.2968 45.9484 72.7772C45.9766 73.2536 45.5588 74.2529 45.2087 74.2028C44.8579 74.1504 44.5265 73.5686 44.57 72.8306L44.5428 72.8766C44.5411 72.7126 44.5394 72.5571 44.5381 72.4149C44.5384 72.1661 44.3754 71.8854 44.1954 71.9678C43.2795 72.3897 42.2107 72.4329 41.1924 72.3397C40.1737 72.2515 39.2053 72.0263 38.4929 72.0334C38.3034 72.0348 38.1118 72.2879 38.1499 72.5833C38.5449 74.898 38.4463 76.7751 38.6575 78.1375C38.7018 78.4205 38.9046 78.6886 39.0771 78.5955C40.614 77.7928 43.305 77.9445 44.7109 77.7091C44.8984 77.6788 45.0828 77.4264 44.9793 77.2045C44.8102 76.851 44.6959 76.4556 44.6353 76.045C44.5159 75.4485 45.0981 75.3396 45.2233 75.9048C45.3488 76.4743 45.5629 76.4026 45.8133 76.3699C46.0627 76.3376 47.6414 76.2501 48.6805 76.147C49.7084 76.0388 49.1052 74.5135 48.0528 74.4996Z" fill="#FF4D3D"/>
<path d="M45.0692 65.0423C45.1869 64.5153 44.9661 64.0113 44.5755 63.9174L40.4034 62.9236C40.0128 62.8293 39.5943 63.2077 39.4687 63.7677C39.3432 64.3284 39.5602 64.8504 39.9529 64.9351L44.1444 65.8446C44.537 65.929 44.9511 65.5704 45.0692 65.0423Z" fill="#B52B1F"/>
<path d="M48.0985 68.7119C47.5892 68.6 47.3871 68.3649 47.3231 68.1039C47.2608 67.8422 47.3214 67.5799 47.4017 67.3342C47.5361 66.8786 47.2081 66.4673 46.9396 66.3659C46.6715 66.2648 46.5752 66.1151 46.4657 66.6041C46.416 66.8446 46.2016 67.2022 45.9989 67.4462C45.7995 67.6878 45.5644 67.8657 45.399 67.798C45.0669 67.667 44.8512 67.0341 45.1169 66.3152L45.0782 66.354C45.1248 66.1934 45.1656 66.041 45.1972 65.8991C45.253 65.651 45.1561 65.3336 44.9631 65.3744C42.9924 65.7967 40.7863 64.4506 39.397 64.1281C39.2123 64.0865 38.9765 64.2645 38.9551 64.5326C38.9336 64.8021 38.9047 65.0634 38.8693 65.3169C38.8349 65.5813 38.7897 65.7861 38.7509 66.1025C38.6699 66.6847 38.5747 67.2342 38.4784 67.7524C38.3171 68.7697 38.2089 69.6292 38.1548 70.3818C38.1528 70.6836 38.3099 70.9987 38.495 70.934C40.1401 70.3883 42.7716 71.0371 44.1972 71.0423C44.3871 71.045 44.6086 70.831 44.5412 70.5975C44.4552 70.2263 44.4324 69.8245 44.4378 69.4138C44.4266 68.8106 45.0169 68.8313 45.0401 69.3965C45.0628 69.9661 45.286 69.9371 45.5382 69.9538C45.7896 69.9715 47.3561 70.1835 48.3939 70.2729C49.4337 70.3546 49.0781 68.9242 48.0985 68.7119Z" fill="#FF4D3D"/>
<path d="M46.7516 58.4786C46.8963 57.9556 46.7006 57.4425 46.3141 57.3323L42.1882 56.1615C41.8021 56.0513 41.3683 56.399 41.2192 56.9376C41.0702 57.4766 41.2638 57.9982 41.6513 58.104L45.7884 59.2353C46.176 59.3405 46.607 59.0025 46.7516 58.4786Z" fill="#D9EBFF"/>
<path d="M49.476 62.5563C48.4957 62.1953 48.7931 61.3695 48.9601 60.9112C49.1194 60.4536 48.8138 60.0191 48.5515 59.9031C48.2888 59.7871 48.2004 59.6319 48.0653 60.1212C47.9258 60.6101 47.2072 61.4689 46.8976 61.2998C46.5791 61.13 46.4481 60.4594 46.7346 59.7591L46.6938 59.7956C46.7485 59.637 46.7969 59.4853 46.8356 59.3444C46.9037 59.0984 46.8231 58.7749 46.6281 58.8065C44.64 59.128 42.5043 57.6707 41.1317 57.2856C40.9487 57.2345 40.7061 57.3951 40.6734 57.6547C40.6078 58.176 40.5125 58.6653 40.4002 59.125C40.2951 59.5924 40.1743 60.0307 40.0501 60.4414C39.8034 61.2641 39.5394 61.9735 39.388 62.6002C39.3284 62.8656 39.4213 63.1759 39.6146 63.1586C41.3311 63.0116 43.7779 64.1405 45.1678 64.4583C45.3525 64.5012 45.6169 64.3338 45.6029 64.0868C45.5839 63.6921 45.6373 63.2814 45.7173 62.868C45.8159 62.2606 46.4008 62.3583 46.3164 62.9449C46.2314 63.5352 46.4563 63.5461 46.7016 63.6063C46.9466 63.6665 48.4484 64.1647 49.4498 64.4508C50.4518 64.7356 50.4576 62.9228 49.476 62.5563Z" fill="white"/>
<path d="M51.2647 56.1259C50.296 55.7312 50.6305 54.9054 50.803 54.443C50.9728 53.982 50.6774 53.5366 50.4175 53.4148C50.1575 53.2933 50.0728 53.1348 49.9268 53.6257C49.7785 54.1181 49.0367 54.9663 48.7291 54.7867C48.4189 54.608 48.3056 53.9316 48.604 53.2344L48.5621 53.2698C48.6203 53.1119 48.672 52.9612 48.7139 52.8204C48.787 52.5743 48.7132 52.2491 48.5172 52.2767C46.5233 52.5594 44.4165 51.0606 43.0494 50.654C42.8681 50.5999 42.6234 50.7513 42.587 51.0051C42.2954 53.0367 41.5367 54.5991 41.1876 55.7975C41.1168 56.052 41.1964 56.3586 41.3904 56.3514C43.111 56.2926 45.5067 57.5144 46.8799 57.8982C47.0626 57.9492 47.3352 57.7927 47.3341 57.544C47.3341 57.1483 47.3981 56.7373 47.4937 56.3249C47.6132 55.7196 48.195 55.8356 48.0895 56.4229C47.9837 57.0139 48.2079 57.0336 48.4505 57.1031C48.6931 57.1728 50.1742 57.7298 51.1636 58.0567C52.1534 58.3831 52.234 56.5212 51.2647 56.1259Z" fill="white"/>
</g>
</g>
<g clip-path="url(#clip22)">
<path d="M300.957 88.9752C292.276 78.9888 293.335 63.8553 303.321 55.1743C313.308 46.4927 328.441 47.5513 337.122 57.5377C345.804 67.5247 344.746 82.658 334.759 91.3396C324.773 100.021 309.639 98.9622 300.957 88.9752Z" fill="#3F3D56"/>
<g clip-path="url(#clip23)">
<path d="M325.581 83.4874C325.495 83.0933 325.614 82.7122 325.914 82.624L329.045 81.7081C329.332 81.6263 329.7 81.9038 329.808 82.3812C329.924 82.8525 329.775 83.2879 329.476 83.3538L326.295 84.0778C325.997 84.1439 325.678 83.88 325.581 83.4874Z" fill="#D9EBFF"/>
<path d="M323.282 86.231C324.066 86.0714 323.882 85.4915 323.808 85.1851C323.739 84.8788 323.963 84.5773 324.174 84.5004C324.377 84.4233 324.449 84.3133 324.535 84.6637C324.616 85.0076 325.077 85.6442 325.334 85.5502C325.579 85.4529 325.741 84.9677 325.56 84.439L325.59 84.468C325.553 84.3489 325.52 84.2357 325.494 84.1308C325.45 83.9477 325.52 83.7086 325.666 83.7347C326.416 83.8704 327.211 83.6963 327.944 83.4311C328.678 83.1698 329.35 82.8166 329.876 82.6844C330.016 82.6487 330.202 82.7994 330.228 83.0259C330.288 83.4899 330.346 83.9289 330.4 84.3466C330.459 84.7772 330.551 85.1543 330.594 85.5752C330.65 85.9827 330.702 86.3665 330.75 86.7239C330.778 87.1117 330.783 87.4913 330.778 87.8306C330.771 88.1162 330.641 88.4004 330.503 88.3251C329.888 87.9998 329.074 87.9724 328.282 87.9797C327.489 87.9915 326.718 88.0332 326.177 87.989C326.034 87.9763 325.867 87.8076 325.92 87.6438C325.996 87.3789 326.073 87.0898 326.054 86.7811C326.054 86.3298 325.603 86.3424 325.594 86.7584C325.595 86.9695 325.539 87.0649 325.464 87.1081C325.391 87.1525 325.301 87.147 325.205 87.1494C325.013 87.1573 323.811 87.2567 323.019 87.2787C322.621 87.2861 322.527 87.1229 322.572 86.8564C322.632 86.609 322.892 86.3162 323.282 86.231Z" fill="white"/>
<path d="M323.874 78.6911C323.703 78.321 323.788 77.9155 324.065 77.7855L327.023 76.4102C327.299 76.28 327.679 76.5103 327.87 76.9247C328.058 77.3404 327.962 77.7842 327.682 77.8997L324.673 79.1593C324.388 79.2781 324.043 79.0634 323.874 78.6911Z" fill="#B52B1F"/>
<path d="M322.147 81.9297C322.866 81.5927 322.593 81.0175 322.427 80.708C322.273 80.3967 322.468 80.0508 322.655 79.9378C322.843 79.8257 322.896 79.7022 323.038 80.046C323.183 80.3864 323.794 80.9498 324.012 80.803C324.245 80.6506 324.285 80.1407 324.007 79.6456L324.042 79.6693C323.986 79.5563 323.936 79.4479 323.895 79.347C323.822 79.1696 323.853 78.919 324.002 78.9217C325.525 78.9644 326.994 77.6425 327.982 77.1944C328.114 77.1369 328.317 77.2455 328.372 77.454C328.482 77.8722 328.611 78.261 328.748 78.6243C328.877 78.9933 329.006 79.3437 329.14 79.6694C329.415 80.3125 329.645 80.9074 329.802 81.4196C329.867 81.6338 329.817 81.888 329.668 81.8779C328.34 81.8041 326.539 82.7722 325.491 83.0526C325.352 83.0909 325.142 82.9775 325.139 82.7932C325.135 82.499 325.085 82.1922 325.01 81.8852C324.899 81.436 324.458 81.551 324.562 81.9784C324.644 82.4136 324.475 82.4333 324.292 82.4915C324.108 82.5499 322.99 82.9972 322.242 83.2585C321.865 83.3881 321.679 83.144 321.66 82.8239C321.633 82.5039 321.787 82.1009 322.147 81.9297Z" fill="white"/>
<path d="M321.506 74.1643C321.29 73.8192 321.323 73.405 321.58 73.24L324.331 71.4865C324.588 71.3213 324.994 71.5026 325.238 71.8916C325.487 72.2792 325.443 72.7287 325.182 72.8803L322.363 74.5221C322.095 74.6768 321.729 74.5068 321.506 74.1643Z" fill="#B52B1F"/>
<path d="M320.231 77.6119C320.564 77.3945 320.642 77.1521 320.614 76.9255C320.578 76.7036 320.434 76.5002 320.338 76.3544C320.145 76.0635 320.295 75.6937 320.465 75.5572C320.636 75.4213 320.673 75.2912 320.857 75.6158C321.039 75.9378 321.727 76.4165 321.927 76.2395C322.131 76.0593 322.1 75.5499 321.766 75.0923L321.803 75.111C321.734 75.0056 321.671 74.9042 321.617 74.8094C321.525 74.641 321.518 74.3913 321.666 74.3747C323.184 74.2163 324.471 72.7139 325.388 72.1445C325.513 72.0697 325.73 72.1495 325.809 72.349C326.13 73.1478 326.52 73.8157 326.849 74.4218C327.195 75.0207 327.519 75.5389 327.729 76.0132C327.82 76.2093 327.803 76.462 327.655 76.4762C326.342 76.6141 324.699 77.835 323.708 78.2761C323.576 78.3353 323.353 78.2529 323.324 78.0687C323.275 77.7762 323.195 77.4715 323.06 77.1843C322.885 76.7545 322.468 76.9264 322.627 77.34C322.789 77.7554 322.614 77.8039 322.444 77.8866C322.271 77.9705 321.229 78.577 320.527 78.9455C319.84 79.3061 319.564 78.0553 320.231 77.6119Z" fill="#FF4D3D"/>
<path d="M318.532 70.0396C318.266 69.7354 318.232 69.3193 318.455 69.1107L320.849 66.8939C321.071 66.6849 321.512 66.8098 321.829 67.1741C322.147 67.5398 322.213 67.9899 321.968 68.1841L319.44 70.2461C319.208 70.4334 318.797 70.3449 318.532 70.0396Z" fill="#B52B1F"/>
<path d="M317.77 73.5982C318.379 73.0673 317.934 72.6173 317.709 72.3641C317.483 72.1113 317.58 71.7255 317.728 71.564C317.874 71.4058 317.895 71.2687 318.118 71.5591C318.34 71.8467 319.078 72.2119 319.254 72.0084C319.43 71.8033 319.329 71.3039 318.936 70.902L318.975 70.9148C318.894 70.8198 318.817 70.7296 318.747 70.6473C318.623 70.5047 318.576 70.2622 318.721 70.2196C319.457 70.0048 320.092 69.4962 320.63 68.9345C321.171 68.3755 321.615 67.7629 322.027 67.4115C322.137 67.3177 322.373 67.3674 322.498 67.556C323.427 69.082 324.42 70.1104 324.979 70.998C325.095 71.1825 325.112 71.4376 324.967 71.4702C323.684 71.7764 322.215 73.2065 321.29 73.773C321.167 73.8491 320.935 73.7962 320.884 73.6172C320.805 73.3299 320.673 73.0459 320.503 72.7799C320.274 72.3779 319.885 72.6059 320.095 72.9928C320.307 73.3825 320.149 73.4481 319.989 73.5543C319.829 73.6602 318.879 74.3979 318.231 74.8572C317.587 75.3081 317.172 74.1314 317.77 73.5982Z" fill="#FF4D3D"/>
<path d="M314.762 66.6795C314.432 66.4357 314.307 66.0362 314.484 65.7874L316.384 63.1347C316.561 62.8857 316.99 62.894 317.342 63.1529C317.693 63.4121 317.829 63.8201 317.646 64.0647L315.694 66.6786C315.51 66.923 315.094 66.9238 314.762 66.6795Z" fill="#B52B1F"/>
<path d="M314.856 70.2987C315.092 69.9803 315.091 69.7445 314.998 69.5627C314.903 69.3814 314.737 69.2611 314.568 69.1601C314.264 68.9656 314.247 68.5658 314.35 68.3736C314.454 68.1818 314.434 68.0478 314.741 68.2738C314.89 68.3871 315.191 68.4854 315.43 68.5243C315.665 68.5635 315.888 68.5483 315.95 68.4269C316.075 68.186 315.883 67.715 315.371 67.4349L315.413 67.4378C315.306 67.3688 315.207 67.3017 315.118 67.236C314.962 67.1215 314.859 66.8908 314.99 66.818C316.332 66.0769 316.927 64.2032 317.564 63.3247C317.649 63.2087 317.873 63.1932 318.019 63.3364C318.166 63.4804 318.313 63.616 318.46 63.7439C318.612 63.8785 318.74 63.9735 318.92 64.1358C319.257 64.4296 319.586 64.6975 319.9 64.9469C320.5 65.4505 320.991 65.8899 321.398 66.295C321.55 66.4673 321.617 66.7266 321.478 66.7818C320.261 67.2895 319.074 68.9753 318.259 69.6897C318.151 69.786 317.917 69.7736 317.839 69.606C317.703 69.35 317.516 69.1079 317.308 68.8749C317.013 68.5229 316.685 68.8294 316.953 69.1655C317.224 69.5038 317.082 69.5986 316.945 69.734C316.81 69.8696 316.016 70.7731 315.465 71.3423C314.909 71.9081 314.399 70.9095 314.856 70.2987Z" fill="#FF4D3D"/>
<path d="M310.522 63.7513C310.177 63.5232 310.034 63.131 310.201 62.8748L311.985 60.1437C312.152 59.8876 312.574 59.8708 312.929 60.1056C313.283 60.3407 313.432 60.7367 313.263 60.9909L311.452 63.705C311.282 63.9588 310.866 63.9799 310.522 63.7513Z" fill="#D9EBFF"/>
<path d="M310.993 67.4523C311.375 66.7558 310.792 66.4301 310.468 66.2504C310.148 66.0672 310.107 65.6652 310.199 65.4677C310.292 65.27 310.266 65.1368 310.587 65.3503C310.911 65.5613 311.752 65.6957 311.846 65.4441C311.944 65.1877 311.684 64.7373 311.17 64.4783L311.212 64.4789C311.102 64.4152 310.998 64.3522 310.906 64.2907C310.744 64.1834 310.629 63.9574 310.756 63.8783C312.058 63.0707 312.557 61.1682 313.153 60.2621C313.232 60.1415 313.452 60.1126 313.6 60.2454C313.898 60.5118 314.197 60.7452 314.491 60.9531C314.784 61.169 315.072 61.3603 315.349 61.5341C315.901 61.8833 316.406 62.1588 316.806 62.443C316.973 62.5657 317.074 62.7902 316.955 62.8767C315.896 63.6489 315.054 65.5181 314.415 66.3942C314.33 66.511 314.095 66.5468 313.98 66.398C313.794 66.1619 313.558 65.9528 313.306 65.7554C312.946 65.456 312.659 65.8039 313 66.0986C313.344 66.395 313.22 66.5135 313.109 66.6705C312.999 66.8273 312.385 67.8628 311.953 68.5268C311.52 69.1904 310.612 68.1525 310.993 67.4523Z" fill="white"/>
<path d="M306.757 64.6529C307.116 63.9428 306.512 63.6357 306.182 63.4563C305.854 63.2764 305.802 62.8733 305.89 62.6736C305.979 62.4742 305.948 62.3409 306.277 62.5499C306.608 62.7585 307.457 62.8753 307.544 62.6187C307.633 62.3612 307.361 61.9164 306.841 61.665L306.883 61.6645C306.771 61.6029 306.666 61.5421 306.572 61.4822C306.407 61.3774 306.287 61.1539 306.413 61.0719C307.699 60.2392 308.16 58.3273 308.742 57.4116C308.82 57.2901 309.036 57.2549 309.183 57.3825C310.364 58.4033 311.58 58.9216 312.378 59.4353C312.546 59.5461 312.653 59.7619 312.538 59.8545C311.521 60.6794 310.755 62.5765 310.159 63.4821C310.079 63.6026 309.845 63.6487 309.721 63.5055C309.524 63.2783 309.282 63.0742 309.021 62.8852C308.65 62.5973 308.374 62.9543 308.728 63.2388C309.084 63.5253 308.965 63.6485 308.86 63.8094C308.756 63.9705 308.183 65.0294 307.778 65.7109C307.373 66.3922 306.398 65.3636 306.757 64.6529Z" fill="white"/>
</g>
</g>
<path d="M254.562 26.7117C254.562 26.7117 261.734 19.0345 252.599 14.0816C248.49 11.853 243.735 14.6584 241.836 18.2217C240.731 20.2918 241.421 25.8115 243.818 27.5133C245.946 29.0252 254.562 26.7117 254.562 26.7117Z" fill="black"/>
<defs>
<clipPath id="clip0">
<rect width="318.53" height="119.812" fill="white" transform="translate(26.4702 155.436)"/>
</clipPath>
<clipPath id="clip1">
<rect width="318.53" height="119.532" fill="white" transform="translate(26.4702 155.436)"/>
</clipPath>
<clipPath id="clip2">
<rect width="81.0298" height="119.532" fill="white" transform="translate(263.97 155.436)"/>
</clipPath>
<clipPath id="clip3">
<rect width="81.0298" height="119.532" fill="white" transform="translate(263.97 155.436)"/>
</clipPath>
<clipPath id="clip4">
<rect width="54.4117" height="103.497" fill="white" transform="translate(280.488 169.314)"/>
</clipPath>
<clipPath id="clip5">
<rect width="54.4117" height="103.497" fill="white" transform="translate(280.488 169.314)"/>
</clipPath>
<clipPath id="clip6">
<rect width="67.2099" height="104.865" fill="white" transform="translate(26.4702 169.948)"/>
</clipPath>
<clipPath id="clip7">
<rect width="67.2099" height="97.6876" fill="white" transform="translate(26.4702 169.948)"/>
</clipPath>
<clipPath id="clip8">
<rect width="67.2099" height="97.6876" fill="white" transform="translate(26.4702 169.948)"/>
</clipPath>
<clipPath id="clip9">
<rect width="67.2099" height="97.6876" fill="white" transform="translate(26.4702 169.948)"/>
</clipPath>
<clipPath id="clip10">
<rect width="37.2511" height="103.254" fill="white" transform="translate(33.4082 171.559)"/>
</clipPath>
<clipPath id="clip11">
<rect width="37.2511" height="103.254" fill="white" transform="translate(33.4082 171.559)"/>
</clipPath>
<clipPath id="clip12">
<rect width="37.2511" height="103.254" fill="white" transform="translate(33.4082 171.559)"/>
</clipPath>
<clipPath id="clip13">
<rect width="37.2511" height="103.254" fill="white" transform="translate(33.4082 171.559)"/>
</clipPath>
<clipPath id="clip14">
<rect width="178.417" height="289.402" fill="white" transform="translate(185.613 24.449)"/>
</clipPath>
<clipPath id="clip15">
<rect width="174.936" height="3.9815" fill="white" transform="translate(189.095 309.87)"/>
</clipPath>
<clipPath id="clip16">
<rect width="46.9138" height="48.56" fill="white" transform="translate(213.077 107.568)"/>
</clipPath>
<clipPath id="clip17">
<rect width="41.1525" height="41.9755" fill="white" transform="translate(215.546 110.86)"/>
</clipPath>
<clipPath id="clip18">
<rect width="46.9138" height="48.56" fill="white" transform="translate(213.077 107.568)"/>
</clipPath>
<clipPath id="clip19">
<rect width="93.3464" height="261.071" fill="white" transform="translate(71.1431 23.7629)"/>
</clipPath>
<clipPath id="clip20">
<rect width="62.9943" height="62.9955" fill="white" transform="translate(15 43.759)"/>
</clipPath>
<clipPath id="clip21">
<rect width="16.7917" height="49.5331" fill="white" transform="translate(38.145 50.6431)"/>
</clipPath>
<clipPath id="clip22">
<rect width="47.9186" height="47.9196" fill="white" transform="translate(285.239 70.8928) rotate(-41)"/>
</clipPath>
<clipPath id="clip23">
<rect width="12.7732" height="37.6785" fill="white" transform="translate(301.912 63.3379) rotate(-41)"/>
</clipPath>
</defs>
</svg>
